SplineFontDB: 3.2
FontName: TengwarArtano
FullName: Tengwar Artano
FamilyName: Tengwar Artano
Weight: Regular
Copyright: Shankar Sivarajan\nBased on glyphs from Tengwar Annatar Italic, by Johan Winge.
Version: 
ItalicAngle: 0
UnderlinePosition: -250
UnderlineWidth: 100
Ascent: 1638
Descent: 410
InvalidEm: 0
LayerCount: 2
Layer: 0 1 "Back" 1
Layer: 1 1 "Fore" 0
XUID: [1021 748 -1547143621 6245240]
StyleMap: 0x0040
FSType: 0
OS2Version: 4
OS2_WeightWidthSlopeOnly: 0
OS2_UseTypoMetrics: 0
CreationTime: 1107308838
ModificationTime: 1694014602
PfmFamily: 17
TTFWeight: 400
TTFWidth: 5
LineGap: 0
VLineGap: 0
Panose: 2 0 5 3 0 0 0 0 0 0
OS2TypoAscent: 1638
OS2TypoAOffset: 0
OS2TypoDescent: -410
OS2TypoDOffset: 0
OS2TypoLinegap: 0
OS2WinAscent: 1000
OS2WinAOffset: 0
OS2WinDescent: 1172
OS2WinDOffset: 0
HheadAscent: 1957
HheadAOffset: 0
HheadDescent: -1172
HheadDOffset: 0
OS2SubXSize: 1331
OS2SubYSize: 1433
OS2SubXOff: 0
OS2SubYOff: 286
OS2SupXSize: 1331
OS2SupYSize: 1433
OS2SupXOff: 0
OS2SupYOff: 983
OS2StrikeYSize: 102
OS2StrikeYPos: 530
OS2Vendor: 'PfEd'
OS2CodePages: 00000001.c0d40000
OS2UnicodeRanges: 8000002f.00000008.00000000.00000000
Lookup: 6 0 0 "LambeLoop" { "LambeLoop contextual 0"  "LambeLoop contextual 1"  "LambeLoop contextual 2"  "LambeLoop contextual 3"  "LambeLoop contextual 4"  "LambeLoop contextual 5"  } ['liga' ('DFLT' <'dflt' > ) ]
Lookup: 1 0 0 "Single Substitution lookup 1" { "Single Substitution lookup 1 subtable"  } []
Lookup: 1 0 0 "Single Substitution lookup 2" { "Single Substitution lookup 2 subtable"  } []
Lookup: 1 0 0 "Single Substitution lookup 3" { "Single Substitution lookup 3 subtable"  } []
Lookup: 1 0 0 "Single Substitution lookup 4" { "Single Substitution lookup 4 subtable"  } []
Lookup: 1 0 0 "Single Substitution lookup 5" { "Single Substitution lookup 5 subtable"  } []
Lookup: 1 0 0 "Single Substitution lookup 6" { "Single Substitution lookup 6 subtable"  } []

StartChar: bar_above_medium
Encoding: 189 -1 0
Width: 0
Flags: W
AnchorPoint: "mkmk_up" 458 1321 mark 0
AnchorPoint: "mkmk_up" 558 1620 basemark 0
AnchorPoint: "TehtaAbove" 558 1620 mark 0
LayerCount: 2
Fore
SplineSet
808 1537 m 0,0,1
 909 1537 909 1537 951 1571 c 2,2,-1
 983 1597 l 2,3,4
 997 1606 997 1606 1015 1611 c 1,5,-1
 1024 1611 l 2,6,7
 1034 1610 1034 1610 1034 1601 c 0,8,9
 1034 1577 1034 1577 985 1530 c 0,10,11
 888 1439 888 1439 757 1419 c 0,12,13
 727 1414 727 1414 696 1414 c 0,14,15
 620 1414 620 1414 472 1442 c 0,16,17
 350 1466 350 1466 277 1466 c 0,18,19
 174 1466 174 1466 113 1420 c 0,20,21
 82 1396 82 1396 71 1393 c 0,22,23
 66 1392 66 1392 59 1392 c 0,24,25
 48 1392 48 1392 48 1402 c 0,26,27
 48 1427 48 1427 98 1475 c 0,28,29
 194 1565 194 1565 326 1585 c 0,30,31
 357 1589 357 1589 387 1589 c 0,32,33
 460 1589 460 1589 614 1560 c 0,34,35
 737 1537 737 1537 808 1537 c 0,0,1
EndSplineSet
Validated: 1
EndChar

StartChar: bar_below_medium
Encoding: 190 -1 1
Width: 1
Flags: W
AnchorPoint: "TehtaBelow" 578 -190 mark 0
AnchorPoint: "mkmk_down" 558 -250 basemark 0
AnchorPoint: "mkmk_down" 658 48 mark 0
LayerCount: 2
Fore
SplineSet
866 -103 m 0,0,1
 967 -103 967 -103 1009 -69 c 2,2,-1
 1041 -43 l 2,3,4
 1055 -34 1055 -34 1073 -29 c 1,5,-1
 1082 -29 l 2,6,7
 1092 -30 1092 -30 1092 -39 c 0,8,9
 1092 -63 1092 -63 1043 -110 c 0,10,11
 946 -201 946 -201 815 -221 c 0,12,13
 785 -226 785 -226 754 -226 c 0,14,15
 678 -226 678 -226 530 -198 c 0,16,17
 408 -174 408 -174 335 -174 c 0,18,19
 232 -174 232 -174 171 -220 c 0,20,21
 140 -244 140 -244 129 -247 c 0,22,23
 124 -248 124 -248 117 -248 c 0,24,25
 106 -248 106 -248 106 -238 c 0,26,27
 106 -213 106 -213 156 -165 c 0,28,29
 252 -75 252 -75 384 -55 c 0,30,31
 415 -51 415 -51 445 -51 c 0,32,33
 518 -51 518 -51 672 -80 c 0,34,35
 795 -103 795 -103 866 -103 c 0,0,1
EndSplineSet
Validated: 1
EndChar

StartChar: tinco
Encoding: 74 57344 3
Width: 1212
GlyphClass: 2
Flags: W
AnchorPoint: "tehta_contact_up" 315 700 basechar 0
AnchorPoint: "tehta_contact_down" 580 100 basechar 0
AnchorPoint: "shook" 580 100 basechar 0
AnchorPoint: "Inside" 681 450 basechar 0
AnchorPoint: "TehtaBelow" 456 -250 basechar 0
AnchorPoint: "TehtaAbove" 772 1200 basechar 0
LayerCount: 2
Fore
SplineSet
-184 675 m 0,0,1
 -184 704 -184 704 -130 759 c 0,2,3
 -30 861 -30 861 116 894 c 0,4,5
 158 904 158 904 202 906 c 0,6,7
 278 910 278 910 313 883 c 0,8,9
 338 865 338 865 357 828 c 0,10,11
 380 783 380 783 380 726 c 0,12,13
 380 668 380 668 357 599 c 1,14,15
 358 599 358 599 389 628 c 0,16,17
 446 684 446 684 538 751 c 0,18,19
 733 886 733 886 865 889 c 0,20,21
 989 889 989 889 1076 799 c 0,22,23
 1169 704 1169 704 1169 552 c 0,24,25
 1169 414 1169 414 1064 262 c 128,-1,26
 959 110 959 110 811 35 c 0,27,28
 711 -16 711 -16 613 -16 c 0,29,30
 470 -16 470 -16 461 77 c 0,31,32
 460 83 460 83 460 89 c 0,33,34
 460 133 460 133 492 173 c 0,35,36
 529 219 529 219 595 221 c 0,37,38
 642 222 642 222 675 189 c 0,39,40
 702 160 702 160 714 154 c 0,41,42
 733 144 733 144 760 144 c 0,43,44
 907 144 907 144 967 283 c 0,45,46
 995 348 995 348 995 421 c 0,47,48
 995 563 995 563 903 653 c 0,49,50
 826 728 826 728 723 728 c 0,51,52
 578 728 578 728 424 563 c 0,53,54
 308 437 308 437 232 266 c 0,55,56
 73 -93 73 -93 -221 -565 c 0,57,58
 -649 -1253 -649 -1253 -1121 -1768 c 1,59,-1
 -1215 -1869 l 2,60,61
 -1285 -1946 -1285 -1946 -1472 -2122 c 0,62,63
 -1547 -2193 -1547 -2193 -1574 -2215 c 0,64,65
 -1623 -2255 -1623 -2255 -1652 -2255 c 0,66,67
 -1667 -2255 -1667 -2255 -1667 -2241 c 0,68,69
 -1667 -2213 -1667 -2213 -1605 -2152 c 2,70,-1
 -1419 -1974 l 1,71,-1
 -1395 -1951 l 1,72,73
 -681 -1239 -681 -1239 -70 -103 c 0,74,75
 124 257 124 257 185 478 c 0,76,77
 206 551 206 551 206 595 c 0,78,79
 206 669 206 669 165 713 c 0,80,81
 133 746 133 746 83 746 c 0,82,83
 -26 746 -26 746 -101 695 c 0,84,85
 -141 667 -141 667 -152 664 c 0,86,87
 -160 662 -160 662 -168 662 c 0,88,89
 -184 662 -184 662 -184 675 c 0,0,1
EndSplineSet
Substitution2: "Single Substitution lookup 48 subtable" tinco.nofin
Substitution2: "Single Substitution lookup 47 subtable" tinco.nofin
Substitution2: "Single Substitution lookup 46 subtable" tinco.nofin
Substitution2: "Single Substitution lookup 45 subtable" tinco.nofin
Substitution2: "Single Substitution lookup 44 subtable" tinco.nofin
EndChar

StartChar: parma
Encoding: 75 57345 4
Width: 1276
GlyphClass: 2
Flags: W
AnchorPoint: "tehta_contact_up" 315 700 basechar 0
AnchorPoint: "tehta_contact_down" 850 100 basechar 0
AnchorPoint: "TehtaBelow" 445 -250 basechar 0
AnchorPoint: "shook" 1095 100 basechar 0
AnchorPoint: "Inside" 655 450 basechar 0
AnchorPoint: "TehtaAbove" 837 1200 basechar 0
LayerCount: 2
Fore
SplineSet
913 160 m 1,0,-1
 1010 157 l 1,1,2
 1228 157 1228 157 1340 238 c 2,3,-1
 1402 285 l 2,4,5
 1423 298 1423 298 1444 298 c 2,6,-1
 1448 298 l 2,7,8
 1461 298 1461 298 1461 283 c 0,9,10
 1461 252 1461 252 1400 194 c 0,11,12
 1284 86 1284 86 1104 40 c 0,13,14
 1002 14 1002 14 892 14 c 0,15,16
 810 14 810 14 634 33 c 0,17,18
 577 39 577 39 532 42 c 0,19,20
 486 45 486 45 397 45 c 0,21,22
 272 45 272 45 115 10 c 1,23,-1
 102 -15 l 1,24,25
 -255 -676 -255 -676 -625 -1176 c 0,26,27
 -882 -1524 -882 -1524 -1161 -1822 c 2,28,-1
 -1205 -1869 l 2,29,30
 -1275 -1946 -1275 -1946 -1462 -2122 c 0,31,32
 -1537 -2193 -1537 -2193 -1564 -2215 c 0,33,34
 -1613 -2255 -1613 -2255 -1642 -2255 c 0,35,36
 -1657 -2255 -1657 -2255 -1657 -2241 c 0,37,38
 -1657 -2213 -1657 -2213 -1595 -2152 c 2,39,-1
 -1409 -1974 l 1,40,-1
 -1385 -1951 l 1,41,42
 -692 -1258 -692 -1258 -102 -182 c 1,43,-1
 11 31 l 1,44,45
 58 109 58 109 135 312 c 0,46,47
 216 523 216 523 216 595 c 0,48,49
 216 669 216 669 175 713 c 0,50,51
 143 746 143 746 93 746 c 0,52,53
 -16 746 -16 746 -91 695 c 0,54,55
 -131 667 -131 667 -142 664 c 0,56,57
 -150 662 -150 662 -158 662 c 0,58,59
 -174 662 -174 662 -174 675 c 0,60,61
 -174 704 -174 704 -120 759 c 0,62,63
 -20 861 -20 861 126 894 c 0,64,65
 168 904 168 904 212 906 c 0,66,67
 304 911 304 911 344 866 c 0,68,69
 376 831 376 831 388 763 c 0,70,71
 390 754 390 754 390 731 c 0,72,73
 390 674 390 674 366 593 c 1,74,75
 437 672 437 672 554 755 c 0,76,77
 744 889 744 889 880 889 c 0,78,79
 1006 889 1006 889 1091 803 c 0,80,81
 1172 722 1172 722 1172 601 c 0,82,83
 1172 435 1172 435 1010 254 c 0,84,85
 964 203 964 203 913 160 c 1,0,-1
527 189 m 2,86,-1
 701 185 l 2,87,88
 841 185 841 185 906 249 c 0,89,90
 915 257 915 257 923 267 c 0,91,92
 998 358 998 358 998 469 c 0,93,94
 998 590 998 590 911 664 c 0,95,96
 837 728 837 728 727 728 c 0,97,98
 593 728 593 728 429 553 c 0,99,100
 372 493 372 493 336 439 c 0,101,102
 282 357 282 357 200 174 c 0,103,104
 189 150 189 150 185 142 c 1,105,106
 306 178 306 178 465 187 c 0,107,108
 497 189 497 189 527 189 c 2,86,-1
EndSplineSet
Validated: 33
Substitution2: "Single Substitution lookup 48 subtable" parma.nofin
Substitution2: "Single Substitution lookup 47 subtable" parma.nofin
Substitution2: "Single Substitution lookup 46 subtable" parma.nofin
Substitution2: "Single Substitution lookup 45 subtable" parma.nofin
Substitution2: "Single Substitution lookup 44 subtable" parma.nofin
EndChar

StartChar: calma
Encoding: 76 57346 5
Width: 1191
GlyphClass: 2
Flags: W
AnchorPoint: "Inside" 481 450 basechar 0
AnchorPoint: "shook" 1147 800 basechar 0
AnchorPoint: "tehta_contact_up" 270 700 basechar 0
AnchorPoint: "tehta_contact_down" 370 50 basechar 0
AnchorPoint: "TehtaBelow" 241 -250 basechar 0
AnchorPoint: "TehtaAbove" 922 1200 basechar 0
LayerCount: 2
Fore
SplineSet
326 -17 m 0,0,1
 203 -17 203 -17 115 73 c 0,2,3
 20 169 20 169 20 316 c 0,4,5
 20 542 20 542 248 744 c 0,6,7
 396 876 396 876 549 888 c 1,8,-1
 579 888 l 2,9,10
 715 888 715 888 732 797 c 0,11,12
 734 787 734 787 734 775 c 0,13,14
 734 720 734 720 688 678 c 0,15,16
 650 642 650 642 598 642 c 0,17,18
 554 642 554 642 516 683 c 0,19,20
 485 716 485 716 472 722 c 0,21,22
 460 729 460 729 447 729 c 0,23,24
 443 729 443 729 429 728 c 0,25,26
 303 728 303 728 247 634 c 0,27,28
 233 612 233 612 221 581 c 0,29,30
 195 515 195 515 195 447 c 0,31,32
 195 350 195 350 246 269 c 0,33,34
 297 189 297 189 388 157 c 0,35,36
 426 144 426 144 469 144 c 0,37,38
 565 144 565 144 668 221 c 0,39,40
 727 266 727 266 777 332 c 0,41,42
 821 390 821 390 895 532 c 0,43,44
 968 670 968 670 1023 730 c 0,45,46
 1065 777 1065 777 1116 806 c 0,47,48
 1143 821 1143 821 1159 821 c 0,49,50
 1173 821 1173 821 1173 806 c 0,51,52
 1173 784 1173 784 1127 733 c 0,53,54
 1107 711 1107 711 1102 703 c 0,55,56
 1050 623 1050 623 944 317 c 0,57,58
 873 113 873 113 850 59 c 0,59,60
 517 -705 517 -705 -265 -1498 c 1,61,-1
 -551 -1777 l 1,62,63
 -785 -1997 -785 -1997 -861 -2061 c 0,64,65
 -909 -2099 -909 -2099 -942 -2102 c 0,66,67
 -957 -2102 -957 -2102 -957 -2089 c 0,68,69
 -957 -2054 -957 -2054 -872 -1978 c 2,70,-1
 -557 -1686 l 1,71,72
 441 -733 441 -733 739 100 c 1,73,-1
 782 228 l 1,74,75
 667 131 667 131 614 94 c 0,76,77
 453 -17 453 -17 326 -17 c 0,0,1
EndSplineSet
Validated: 1
EndChar

StartChar: quesse
Encoding: 77 57347 6
Width: 1336
GlyphClass: 2
Flags: W
AnchorPoint: "tehta_contact_up" 412 700 basechar 0
AnchorPoint: "shook" 1275 800 basechar 0
AnchorPoint: "tehta_contact_down" 397 100 basechar 0
AnchorPoint: "TehtaBelow" 271 -250 basechar 0
AnchorPoint: "Inside" 613 450 basechar 0
AnchorPoint: "TehtaAbove" 909 1200 basechar 0
LayerCount: 2
Fore
SplineSet
437 762 m 1,0,1
 403 768 403 768 314 768 c 0,2,3
 34 768 34 768 -132 628 c 0,4,5
 -184 582 -184 582 -215 582 c 0,6,7
 -232 582 -232 582 -232 598 c 0,8,9
 -232 631 -232 631 -163 694 c 0,10,11
 -38 808 -38 808 152 868 c 0,12,13
 272 905 272 905 399 911 c 1,14,-1
 451 911 l 2,15,16
 546 910 546 910 743 886 c 0,17,18
 979 858 979 858 1228 858 c 0,19,20
 1316 858 1316 858 1379 889 c 0,21,22
 1404 901 1404 901 1417 901 c 0,23,24
 1434 901 1434 901 1434 885 c 0,25,26
 1434 835 1434 835 1349 782 c 0,27,28
 1280 738 1280 738 1200 722 c 0,29,30
 1187 719 1187 719 1182 711 c 0,31,32
 1181 709 1181 709 1151 632 c 2,33,-1
 1078 434 l 2,34,35
 981 169 981 169 922 37 c 0,36,37
 587 -718 587 -718 -190 -1505 c 1,38,-1
 -469 -1777 l 1,39,40
 -703 -1997 -703 -1997 -779 -2061 c 0,41,42
 -827 -2099 -827 -2099 -860 -2102 c 0,43,44
 -875 -2102 -875 -2102 -875 -2089 c 0,45,46
 -875 -2054 -875 -2054 -790 -1978 c 2,47,-1
 -475 -1686 l 1,48,49
 -153 -1378 -153 -1378 58 -1133 c 0,50,51
 569 -539 569 -539 809 65 c 0,52,53
 872 221 872 221 872 230 c 1,54,-1
 792 162 l 2,55,56
 722 107 722 107 651 64 c 0,57,58
 517 -17 517 -17 409 -17 c 0,59,60
 281 -17 281 -17 196 71 c 0,61,62
 117 154 117 154 117 273 c 0,63,64
 117 390 117 390 206 526 c 0,65,66
 285 645 285 645 421 749 c 1,67,-1
 437 762 l 1,0,1
292 403 m 0,68,69
 292 281 292 281 378 207 c 0,70,71
 451 144 451 144 559 144 c 0,72,73
 645 144 645 144 749 217 c 0,74,75
 839 281 839 281 906 380 c 0,76,77
 954 452 954 452 999 569 c 0,78,79
 1033 661 1033 661 1070 714 c 0,80,81
 1069 715 1069 715 991 716 c 0,82,83
 852 718 852 718 649 739 c 0,84,85
 630 741 630 741 614 741 c 0,86,87
 525 741 525 741 433 670 c 0,88,89
 323 585 323 585 298 463 c 0,90,91
 292 433 292 433 292 403 c 0,68,69
EndSplineSet
Validated: 1
Substitution2: "Single Substitution lookup 48 subtable" quesse.nofin
Substitution2: "Single Substitution lookup 47 subtable" quesse.nofin
Substitution2: "Single Substitution lookup 46 subtable" quesse.nofin
Substitution2: "Single Substitution lookup 45 subtable" quesse.nofin
Substitution2: "Single Substitution lookup 44 subtable" quesse.nofin
EndChar

StartChar: ando
Encoding: 78 57348 7
Width: 1863
GlyphClass: 2
Flags: W
AnchorPoint: "tehta_contact_up" 315 700 basechar 0
AnchorPoint: "tehta_contact_down" 1265 100 basechar 0
AnchorPoint: "shook" 1265 100 basechar 0
AnchorPoint: "TehtaBelow" 666 -250 basechar 0
AnchorPoint: "Inside" 661 450 basechar 0
AnchorPoint: "TehtaAbove" 1115 1200 basechar 0
LayerCount: 2
Fore
SplineSet
-174 675 m 0,0,1
 -174 703 -174 703 -121 758 c 0,2,3
 -22 861 -22 861 122 894 c 0,4,5
 166 904 166 904 212 906 c 0,6,7
 358 912 358 912 385 780 c 0,8,9
 390 755 390 755 390 726 c 0,10,11
 390 679 390 679 378 636 c 0,12,13
 376 631 376 631 375 628 c 2,14,-1
 375 627 l 1,15,16
 378 627 378 627 431 678 c 0,17,18
 648 888 648 888 817 888 c 0,19,20
 952 888 952 888 1030 767 c 0,21,22
 1077 695 1077 695 1089 600 c 1,23,24
 1351 888 1351 888 1554 888 c 0,25,26
 1647 888 1647 888 1723 815 c 0,27,28
 1793 747 1793 747 1815 640 c 0,29,30
 1823 603 1823 603 1823 558 c 0,31,32
 1823 387 1823 387 1691 220 c 0,33,34
 1584 84 1584 84 1445 20 c 0,35,36
 1367 -17 1367 -17 1300 -17 c 0,37,38
 1187 -17 1187 -17 1155 44 c 0,39,40
 1144 64 1144 64 1144 90 c 0,41,42
 1144 156 1144 156 1205 197 c 0,43,44
 1241 221 1241 221 1278 221 c 0,45,46
 1326 221 1326 221 1359 187 c 0,47,48
 1388 158 1388 158 1402 152 c 0,49,50
 1420 143 1420 143 1444 143 c 0,51,52
 1535 143 1535 143 1575 202 c 0,53,54
 1648 304 1648 304 1648 435 c 0,55,56
 1648 536 1648 536 1588 624 c 0,57,58
 1515 729 1515 729 1405 729 c 0,59,60
 1291 729 1291 729 1183 594 c 0,61,62
 1168 575 1168 575 1154 554 c 0,63,64
 1111 491 1111 491 1051 370 c 0,65,66
 997 262 997 262 933 190 c 2,67,-1
 910 165 l 1,68,69
 738 -16 738 -16 569 -16 c 1,70,71
 416 -10 416 -10 411 89 c 0,72,73
 411 124 411 124 439 164 c 0,74,75
 477 219 477 219 544 221 c 0,76,77
 591 222 591 222 626 188 c 0,78,79
 655 159 655 159 668 152 c 0,80,81
 686 143 686 143 709 143 c 0,82,83
 769 143 769 143 814 171 c 0,84,85
 847 192 847 192 880 269 c 0,86,87
 916 351 916 351 916 432 c 0,88,89
 916 609 916 609 787 690 c 0,90,91
 725 729 725 729 671 729 c 0,92,93
 527 729 527 729 371 500 c 0,94,95
 301 397 301 397 244 270 c 0,96,97
 81 -95 81 -95 -213 -568 c 0,98,99
 -641 -1255 -641 -1255 -1111 -1768 c 1,100,-1
 -1205 -1869 l 2,101,102
 -1275 -1946 -1275 -1946 -1462 -2122 c 0,103,104
 -1537 -2193 -1537 -2193 -1564 -2215 c 0,105,106
 -1613 -2255 -1613 -2255 -1642 -2255 c 0,107,108
 -1657 -2255 -1657 -2255 -1657 -2241 c 0,109,110
 -1657 -2213 -1657 -2213 -1595 -2152 c 2,111,-1
 -1409 -1974 l 1,112,-1
 -1385 -1951 l 1,113,114
 -671 -1239 -671 -1239 -60 -103 c 0,115,116
 134 257 134 257 195 478 c 0,117,118
 216 551 216 551 216 595 c 0,119,120
 216 669 216 669 175 713 c 0,121,122
 143 746 143 746 93 746 c 0,123,124
 -16 746 -16 746 -91 695 c 0,125,126
 -131 667 -131 667 -142 664 c 0,127,128
 -150 662 -150 662 -158 662 c 0,129,130
 -174 662 -174 662 -174 675 c 0,0,1
EndSplineSet
Validated: 33
Substitution2: "Single Substitution lookup 48 subtable" ando.nofin
Substitution2: "Single Substitution lookup 47 subtable" ando.nofin
Substitution2: "Single Substitution lookup 46 subtable" ando.nofin
Substitution2: "Single Substitution lookup 45 subtable" ando.nofin
Substitution2: "Single Substitution lookup 44 subtable" ando.nofin
EndChar

StartChar: umbar
Encoding: 79 57349 8
Width: 1936
GlyphClass: 2
Flags: W
AnchorPoint: "tehta_contact_up" 315 700 basechar 0
AnchorPoint: "tehta_contact_down" 850 100 basechar 0
AnchorPoint: "shook" 1745 100 basechar 0
AnchorPoint: "TehtaAbove" 1115 1200 basechar 0
AnchorPoint: "Inside" 661 450 basechar 0
AnchorPoint: "TehtaBelow" 666 -250 basechar 0
LayerCount: 2
Fore
SplineSet
-174 675 m 0,0,1
 -174 704 -174 704 -120 759 c 0,2,3
 -20 861 -20 861 126 894 c 0,4,5
 168 904 168 904 212 906 c 0,6,7
 288 910 288 910 323 883 c 0,8,9
 348 865 348 865 367 828 c 0,10,11
 390 784 390 784 390 727 c 0,12,13
 390 685 390 685 374 625 c 1,14,-1
 374 624 l 1,15,16
 376 624 376 624 429 675 c 0,17,18
 651 888 651 888 823 888 c 0,19,20
 979 888 979 888 1052 744 c 0,21,22
 1084 682 1084 682 1088 626 c 0,23,24
 1089 615 1089 615 1090 615 c 2,25,-1
 1178 700 l 1,26,27
 1384 888 1384 888 1530 888 c 2,28,-1
 1544 888 l 2,29,30
 1653 888 1653 888 1730 806 c 0,31,32
 1808 722 1808 722 1808 592 c 0,33,34
 1808 487 1808 487 1733 359 c 0,35,36
 1682 272 1682 272 1601 191 c 2,37,-1
 1566 156 l 1,38,-1
 1575 156 l 1,39,-1
 1587 156 l 2,40,41
 1881 156 1881 156 2006 250 c 1,42,-1
 2017 259 l 2,43,44
 2062 298 2062 298 2093 298 c 2,45,-1
 2097 298 l 2,46,47
 2110 298 2110 298 2110 284 c 0,48,49
 2110 252 2110 252 2052 196 c 0,50,51
 1937 87 1937 87 1746 41 c 0,52,53
 1689 27 1689 27 1628 21 c 0,54,55
 1553 13 1553 13 1459 13 c 0,56,57
 1312 13 1312 13 1042 33 c 0,58,59
 860 46 860 46 715 46 c 2,60,-1
 591 46 l 1,61,62
 362 39 362 39 146 5 c 2,63,-1
 110 0 l 1,64,-1
 99 -20 l 1,65,66
 -240 -665 -240 -665 -673 -1239 c 0,67,68
 -889 -1526 -889 -1526 -1111 -1768 c 2,69,-1
 -1205 -1869 l 2,70,71
 -1275 -1946 -1275 -1946 -1462 -2122 c 0,72,73
 -1537 -2193 -1537 -2193 -1564 -2215 c 0,74,75
 -1613 -2255 -1613 -2255 -1642 -2255 c 0,76,77
 -1657 -2255 -1657 -2255 -1657 -2241 c 0,78,79
 -1657 -2213 -1657 -2213 -1595 -2152 c 2,80,-1
 -1409 -1974 l 1,81,-1
 -1385 -1951 l 1,82,83
 -692 -1258 -692 -1258 -102 -182 c 1,84,-1
 11 31 l 1,85,86
 58 109 58 109 135 312 c 0,87,88
 216 523 216 523 216 595 c 0,89,90
 216 669 216 669 175 713 c 0,91,92
 143 746 143 746 93 746 c 0,93,94
 -16 746 -16 746 -91 695 c 0,95,96
 -131 667 -131 667 -142 664 c 0,97,98
 -150 662 -150 662 -158 662 c 0,99,100
 -174 662 -174 662 -174 675 c 0,0,1
915 462 m 1,101,102
 915 628 915 628 784 698 c 0,103,104
 727 729 727 729 677 729 c 0,105,106
 526 729 526 729 367 494 c 0,107,108
 296 389 296 389 238 257 c 2,109,-1
 189 151 l 1,110,-1
 182 136 l 1,111,-1
 183 136 l 2,112,113
 187 136 187 136 274 150 c 0,114,115
 414 174 414 174 643 186 c 0,116,117
 783 194 783 194 812 214 c 0,118,119
 818 217 818 217 822 222 c 0,120,121
 911 335 911 335 915 462 c 1,101,102
1634 466 m 0,122,123
 1634 580 1634 580 1562 656 c 0,124,125
 1494 728 1494 728 1393 728 c 0,126,127
 1259 728 1259 728 1120 523 c 0,128,129
 1084 470 1084 470 1027 371 c 0,130,131
 979 286 979 286 906 208 c 2,132,-1
 890 190 l 1,133,-1
 919 189 l 2,134,135
 975 188 975 188 1256 169 c 0,136,137
 1326 164 1326 164 1358 164 c 0,138,139
 1478 164 1478 164 1541 229 c 0,140,141
 1577 267 1577 267 1604 331 c 0,142,143
 1634 399 1634 399 1634 466 c 0,122,123
EndSplineSet
Validated: 33
Substitution2: "Single Substitution lookup 48 subtable" umbar.nofin
Substitution2: "Single Substitution lookup 47 subtable" umbar.nofin
Substitution2: "Single Substitution lookup 46 subtable" umbar.nofin
Substitution2: "Single Substitution lookup 45 subtable" umbar.nofin
Substitution2: "Single Substitution lookup 44 subtable" umbar.nofin
EndChar

StartChar: anga
Encoding: 80 57350 9
Width: 1853
GlyphClass: 2
Flags: W
AnchorPoint: "tehta_contact_up" 270 700 basechar 0
AnchorPoint: "tehta_contact_down" 1000 50 basechar 0
AnchorPoint: "shook" 1807 800 basechar 0
AnchorPoint: "TehtaBelow" 626 -250 basechar 0
AnchorPoint: "Inside" 1201 450 basechar 0
AnchorPoint: "TehtaAbove" 1099 1200 basechar 0
LayerCount: 2
Fore
SplineSet
1427 193 m 1,0,1
 1323 104 1323 104 1278 73 c 0,2,3
 1149 -16 1149 -16 1044 -16 c 0,4,5
 941 -16 941 -16 863 62 c 0,6,7
 797 128 797 128 775 232 c 0,8,9
 773 232 773 232 749 207 c 0,10,11
 708 166 708 166 647 120 c 0,12,13
 466 -16 466 -16 328 -16 c 0,14,15
 229 -16 229 -16 152 60 c 0,16,17
 82 128 82 128 61 235 c 0,18,19
 53 269 53 269 53 310 c 0,20,21
 53 479 53 479 179 645 c 0,22,23
 286 785 286 785 426 851 c 0,24,25
 489 881 489 881 548 888 c 1,26,-1
 564 888 l 2,27,28
 719 888 719 888 734 799 c 0,29,30
 736 789 736 789 736 777 c 0,31,32
 736 692 736 692 653 655 c 0,33,34
 623 642 623 642 601 642 c 0,35,36
 556 642 556 642 525 676 c 0,37,38
 498 707 498 707 489 713 c 0,39,40
 464 729 464 729 427 729 c 0,41,42
 343 728 343 728 304 675 c 0,43,44
 230 570 230 570 228 443 c 0,45,46
 228 335 228 335 291 246 c 0,47,48
 363 143 363 143 472 143 c 0,49,50
 580 143 580 143 668 228 c 0,51,52
 747 303 747 303 783 429 c 0,53,54
 828 585 828 585 959 719 c 0,55,56
 1091 853 1091 853 1230 882 c 0,57,58
 1262 889 1262 889 1292 889 c 0,59,60
 1420 889 1420 889 1445 808 c 0,61,62
 1450 793 1450 793 1450 776 c 0,63,64
 1450 708 1450 708 1389 667 c 0,65,66
 1353 642 1353 642 1315 642 c 0,67,68
 1271 642 1271 642 1237 679 c 0,69,70
 1206 711 1206 711 1193 718 c 0,71,72
 1173 729 1173 729 1147 729 c 0,73,74
 1043 729 1043 729 985 624 c 0,75,76
 942 546 942 546 942 443 c 0,77,78
 942 302 942 302 1032 212 c 0,79,80
 1054 190 1054 190 1079 174 c 0,81,82
 1126 144 1126 144 1186 144 c 0,83,84
 1338 144 1338 144 1481 395 c 2,85,-1
 1492 414 l 1,86,-1
 1573 576 l 1,87,88
 1647 711 1647 711 1738 782 c 0,89,90
 1787 821 1787 821 1815 821 c 0,91,92
 1818 821 1818 821 1820 820 c 0,93,94
 1830 820 1830 820 1830 806 c 0,95,96
 1830 786 1830 786 1807 761 c 0,97,98
 1754 702 1754 702 1719 630 c 0,99,100
 1700 592 1700 592 1681 545 c 0,101,102
 1662 495 1662 495 1595 292 c 0,103,104
 1554 168 1554 168 1507 59 c 0,105,106
 1174 -705 1174 -705 392 -1498 c 1,107,-1
 106 -1777 l 1,108,109
 -131 -2001 -131 -2001 -204 -2061 c 0,110,111
 -251 -2099 -251 -2099 -285 -2102 c 0,112,113
 -300 -2102 -300 -2102 -300 -2089 c 0,114,115
 -300 -2054 -300 -2054 -215 -1978 c 2,116,-1
 99 -1686 l 1,117,118
 1037 -793 1037 -793 1357 -1 c 1,119,-1
 1379 55 l 1,120,-1
 1427 193 l 1,0,1
EndSplineSet
Validated: 1
EndChar

StartChar: ungwe
Encoding: 81 57351 10
Width: 1877
GlyphClass: 2
Flags: W
AnchorPoint: "tehta_contact_up" 350 700 basechar 0
AnchorPoint: "tehta_contact_down" 950 50 basechar 0
AnchorPoint: "shook" 1727 800 basechar 0
AnchorPoint: "TehtaBelow" 666 -250 basechar 0
AnchorPoint: "Inside" 1241 450 basechar 0
AnchorPoint: "TehtaAbove" 1139 1200 basechar 0
LayerCount: 2
Fore
SplineSet
-244 598 m 0,0,1
 -244 632 -244 632 -175 694 c 0,2,3
 -47 809 -47 809 159 869 c 0,4,5
 318 915 318 915 494 915 c 0,6,7
 668 915 668 915 906 893 c 0,8,9
 1244 861 1244 861 1665 858 c 2,10,-1
 1767 858 l 2,11,12
 1902 858 1902 858 1959 889 c 0,13,14
 1981 901 1981 901 1997 901 c 0,15,16
 2014 901 2014 901 2014 886 c 0,17,18
 2014 854 2014 854 1966 811 c 0,19,20
 1890 743 1890 743 1765 719 c 0,21,22
 1762 716 1762 716 1731 632 c 2,23,-1
 1658 434 l 2,24,25
 1561 169 1561 169 1502 37 c 0,26,27
 1167 -718 1167 -718 390 -1505 c 1,28,-1
 111 -1777 l 1,29,30
 -126 -2001 -126 -2001 -199 -2061 c 0,31,32
 -246 -2099 -246 -2099 -280 -2102 c 0,33,34
 -295 -2102 -295 -2102 -295 -2089 c 0,35,36
 -295 -2054 -295 -2054 -210 -1978 c 2,37,-1
 105 -1686 l 1,38,39
 431 -1374 431 -1374 648 -1120 c 0,40,41
 1152 -530 1152 -530 1389 65 c 0,42,43
 1440 194 1440 194 1440 197 c 1,44,45
 1437 197 1437 197 1385 151 c 0,46,47
 1195 -16 1195 -16 1048 -16 c 0,48,49
 888 -16 888 -16 814 137 c 0,50,51
 800 165 800 165 783 225 c 1,52,-1
 768 211 l 1,53,54
 660 103 660 103 535 39 c 0,55,56
 429 -16 429 -16 342 -16 c 0,57,58
 228 -16 228 -16 150 67 c 0,59,60
 74 150 74 150 74 277 c 0,61,62
 74 438 74 438 223 618 c 0,63,64
 283 690 283 690 365 760 c 0,65,66
 376 771 376 771 378 771 c 1,67,68
 378 772 378 772 370 772 c 0,69,70
 119 772 119 772 -49 689 c 0,71,72
 -106 661 -106 661 -148 624 c 0,73,74
 -195 583 -195 583 -227 583 c 0,75,76
 -244 583 -244 583 -244 598 c 0,0,1
1027 730 m 2,77,78
 1014 730 1014 730 717 756 c 0,79,80
 585 768 585 768 542 768 c 0,81,82
 482 768 482 768 417 713 c 0,83,84
 403 702 403 702 366 668 c 0,85,86
 278 589 278 589 254 467 c 0,87,88
 247 436 247 436 247 406 c 0,89,90
 247 266 247 266 356 187 c 0,91,92
 382 168 382 168 407 158 c 0,93,94
 444 144 444 144 485 144 c 0,95,96
 578 144 578 144 670 217 c 0,97,98
 717 255 717 255 748 302 c 0,99,100
 764 327 764 327 805 423 c 0,101,102
 864 560 864 560 950 654 c 0,103,104
 982 689 982 689 1020 722 c 0,105,106
 1028 729 1028 729 1028 730 c 1,107,-1
 1027 730 l 2,77,78
1226 720 m 2,108,109
 1059 720 1059 720 988 561 c 0,110,111
 954 484 954 484 954 412 c 0,112,113
 954 290 954 290 1034 211 c 0,114,115
 1049 196 1049 196 1067 184 c 0,116,117
 1125 144 1125 144 1192 144 c 0,118,119
 1325 144 1325 144 1450 319 c 0,120,121
 1518 414 1518 414 1565 535 c 0,122,123
 1603 632 1603 632 1618 660 c 0,124,125
 1632 688 1632 688 1650 714 c 1,126,-1
 1562 715 l 1,127,-1
 1226 720 l 2,108,109
EndSplineSet
Validated: 1
Substitution2: "Single Substitution lookup 48 subtable" ungwe.nofin
Substitution2: "Single Substitution lookup 47 subtable" ungwe.nofin
Substitution2: "Single Substitution lookup 46 subtable" ungwe.nofin
Substitution2: "Single Substitution lookup 45 subtable" ungwe.nofin
Substitution2: "Single Substitution lookup 44 subtable" ungwe.nofin
EndChar

StartChar: thuule
Encoding: 82 57352 11
Width: 1163
GlyphClass: 2
Flags: W
AnchorPoint: "tehta_contact_up" 265 700 basechar 0
AnchorPoint: "tehta_contact_down" 520 100 basechar 0
AnchorPoint: "shook" 520 100 basechar 0
AnchorPoint: "TehtaBelow" 216 -250 basechar 0
AnchorPoint: "Inside" 651 450 basechar 0
AnchorPoint: "TehtaAbove" 919 1200 basechar 0
LayerCount: 2
Fore
SplineSet
-99 -16 m 0,0,1
 -115 -16 -115 -16 -115 -3 c 0,2,3
 -115 14 -115 14 -96 36 c 0,4,5
 -37 101 -37 101 13 217 c 0,6,7
 52 307 52 307 93 436 c 0,8,9
 315 1137 315 1137 371 1290 c 0,10,11
 405 1381 405 1381 453 1490 c 0,12,13
 658 1958 658 1958 945 2272 c 0,14,15
 1134 2478 1134 2478 1196 2478 c 0,16,17
 1210 2478 1210 2478 1210 2465 c 0,18,19
 1210 2436 1210 2436 1142 2368 c 0,20,21
 1044 2271 1044 2271 1036 2263 c 2,22,-1
 1014 2238 l 2,23,24
 845 2045 845 2045 723 1806 c 0,25,26
 537 1444 537 1444 321 730 c 1,27,-1
 281 607 l 2,28,29
 280 602 280 602 280 597 c 1,30,-1
 280 597 l 1,31,32
 284 597 284 597 341 651 c 0,33,34
 595 888 595 888 788 888 c 0,35,36
 922 888 922 888 1009 791 c 0,37,38
 1093 698 1093 698 1093 557 c 0,39,40
 1093 389 1093 389 964 227 c 0,41,42
 852 88 852 88 703 22 c 0,43,44
 616 -16 616 -16 537 -16 c 0,45,46
 405 -16 405 -16 387 67 c 0,47,48
 384 78 384 78 384 89 c 0,49,50
 384 141 384 141 428 183 c 0,51,52
 467 221 467 221 517 221 c 0,53,54
 565 221 565 221 597 188 c 0,55,56
 625 160 625 160 638 154 c 0,57,58
 658 144 658 144 686 144 c 0,59,60
 816 144 816 144 873 248 c 0,61,62
 883 267 883 267 893 292 c 0,63,64
 919 359 919 359 919 426 c 0,65,66
 919 572 919 572 815 662 c 0,67,68
 752 716 752 716 677 727 c 0,69,70
 666 728 666 728 646 728 c 0,71,72
 488 728 488 728 321 527 c 0,73,74
 226 412 226 412 156 267 c 0,75,76
 71 89 71 89 -31 14 c 0,77,78
 -72 -16 -72 -16 -99 -16 c 0,0,1
EndSplineSet
Validated: 5
Substitution2: "Single Substitution lookup 48 subtable" thuule.nofin
Substitution2: "Single Substitution lookup 47 subtable" thuule.nofin
Substitution2: "Single Substitution lookup 46 subtable" thuule.nofin
Substitution2: "Single Substitution lookup 45 subtable" thuule.nofin
Substitution2: "Single Substitution lookup 44 subtable" thuule.nofin
EndChar

StartChar: formen
Encoding: 83 57353 12
Width: 1186
GlyphClass: 2
Flags: W
AnchorPoint: "tehta_contact_up" 235 700 basechar 0
AnchorPoint: "tehta_contact_down" 896 100 basechar 0
AnchorPoint: "shook" 900 100 basechar 0
AnchorPoint: "TehtaBelow" 196 -250 basechar 0
AnchorPoint: "Inside" 631 450 basechar 0
AnchorPoint: "TehtaAbove" 899 1200 basechar 0
LayerCount: 2
Fore
SplineSet
-120 -16 m 0,0,1
 -135 -16 -135 -16 -135 -3 c 0,2,3
 -135 19 -135 19 -116 40 c 0,4,5
 -66 97 -66 97 -26 180 c 0,6,7
 0 235 0 235 28 309 c 0,8,9
 69 418 69 418 129 618 c 2,10,-1
 265 1050 l 1,11,12
 406 1471 406 1471 569 1766 c 0,13,14
 729 2058 729 2058 925 2272 c 0,15,16
 1114 2478 1114 2478 1176 2478 c 0,17,18
 1190 2478 1190 2478 1190 2465 c 0,19,20
 1190 2436 1190 2436 1122 2368 c 0,21,22
 1024 2271 1024 2271 1016 2263 c 2,23,-1
 994 2238 l 2,24,25
 825 2045 825 2045 703 1807 c 0,26,27
 517 1445 517 1445 302 734 c 2,28,-1
 259 593 l 1,29,30
 259 605 259 605 401 716 c 0,31,32
 462 765 462 765 493 785 c 0,33,34
 652 889 652 889 775 889 c 0,35,36
 897 889 897 889 982 807 c 0,37,38
 1066 725 1066 725 1066 601 c 0,39,40
 1066 481 1066 481 979 348 c 0,41,42
 915 251 915 251 813 166 c 0,43,44
 808 161 808 161 808 160 c 0,45,46
 811 157 811 157 886 157 c 0,47,48
 1108 157 1108 157 1223 238 c 1,49,-1
 1285 285 l 2,50,51
 1306 298 1306 298 1328 298 c 2,52,-1
 1332 298 l 2,53,54
 1345 298 1345 298 1345 284 c 0,55,56
 1345 251 1345 251 1280 192 c 0,57,58
 1161 86 1161 86 980 40 c 0,59,60
 878 14 878 14 770 14 c 0,61,62
 686 14 686 14 498 34 c 0,63,64
 381 46 381 46 298 46 c 0,65,66
 104 46 104 46 -82 -8 c 0,67,68
 -111 -16 -111 -16 -120 -16 c 0,0,1
413 189 m 1,69,-1
 590 182 l 1,70,71
 719 182 719 182 782 233 c 0,72,73
 789 238 789 238 794 243 c 0,74,75
 874 322 874 322 889 433 c 0,76,77
 892 452 892 452 892 470 c 0,78,79
 892 587 892 587 809 662 c 0,80,81
 735 728 735 728 625 728 c 2,82,-1
 613 728 l 2,83,84
 530 728 530 728 422 644 c 0,85,86
 263 521 263 521 138 272 c 0,87,88
 96 186 96 186 73 152 c 0,89,90
 70 148 70 148 70 147 c 1,91,-1
 187 171 l 1,92,93
 296 189 296 189 413 189 c 1,69,-1
EndSplineSet
Validated: 5
Substitution2: "Single Substitution lookup 48 subtable" formen.nofin
Substitution2: "Single Substitution lookup 47 subtable" formen.nofin
Substitution2: "Single Substitution lookup 46 subtable" formen.nofin
Substitution2: "Single Substitution lookup 45 subtable" formen.nofin
Substitution2: "Single Substitution lookup 44 subtable" formen.nofin
EndChar

StartChar: harma
Encoding: 84 57354 13
Width: 1169
GlyphClass: 2
Flags: W
AnchorPoint: "tehta_contact_up" 270 700 basechar 0
AnchorPoint: "tehta_contact_down" 320 50 basechar 0
AnchorPoint: "shook" 860 100 basechar 0
AnchorPoint: "TehtaBelow" 216 -250 basechar 0
AnchorPoint: "Inside" 481 450 basechar 0
AnchorPoint: "TehtaAbove" 599 1200 basechar 0
LayerCount: 2
Fore
SplineSet
594 642 m 0,0,1
 551 642 551 642 511 683 c 0,2,3
 479 716 479 716 465 722 c 0,4,5
 452 728 452 728 438 728 c 2,6,-1
 425 728 l 2,7,8
 272 728 272 728 216 584 c 0,9,10
 191 520 191 520 191 446 c 0,11,12
 191 295 191 295 304 203 c 0,13,14
 329 182 329 182 354 170 c 0,15,16
 409 144 409 144 465 144 c 0,17,18
 567 144 567 144 690 240 c 0,19,20
 811 335 811 335 865 453 c 0,21,22
 873 471 873 471 879 489 c 2,23,-1
 971 839 l 2,24,25
 998 935 998 935 1028 1031 c 0,26,27
 1247 1732 1247 1732 1594 2187 c 0,28,29
 1672 2288 1672 2288 1758 2382 c 0,30,31
 1962 2605 1962 2605 2023 2605 c 0,32,33
 2039 2605 2039 2605 2039 2591 c 0,34,35
 2039 2558 2039 2558 1974 2498 c 0,36,37
 1689 2239 1689 2239 1483 1841 c 0,38,39
 1168 1230 1168 1230 949 138 c 0,40,41
 936 71 936 71 855 15 c 0,42,43
 810 -16 810 -16 788 -16 c 0,44,45
 773 -16 773 -16 773 -4 c 0,46,47
 773 22 773 22 820 231 c 0,48,49
 828 266 828 266 830 273 c 1,50,51
 828 273 828 273 814 259 c 0,52,53
 590 45 590 45 409 -4 c 0,54,55
 363 -16 363 -16 321 -16 c 0,56,57
 202 -16 202 -16 114 70 c 0,58,59
 17 165 17 165 17 312 c 0,60,61
 17 492 17 492 157 659 c 0,62,63
 270 793 270 793 416 855 c 0,64,65
 495 888 495 888 563 888 c 0,66,67
 728 888 728 888 728 778 c 2,68,-1
 728 775 l 2,69,70
 728 703 728 703 663 663 c 0,71,72
 629 642 629 642 594 642 c 0,0,1
EndSplineSet
Validated: 1
EndChar

StartChar: hwesta
Encoding: 85 57355 14
Width: 1196
GlyphClass: 2
Flags: W
AnchorPoint: "tehta_contact_up" 310 700 basechar 0
AnchorPoint: "tehta_contact_down" 320 50 basechar 0
AnchorPoint: "shook" 860 100 basechar 0
AnchorPoint: "TehtaBelow" 196 -250 basechar 0
AnchorPoint: "Inside" 531 450 basechar 0
AnchorPoint: "TehtaAbove" 579 1200 basechar 0
LayerCount: 2
Fore
SplineSet
326 753 m 0,0,1
 326 759 326 759 214 763 c 1,2,-1
 185 763 l 2,3,4
 -37 763 -37 763 -189 662 c 0,5,6
 -213 646 -213 646 -234 628 c 0,7,8
 -287 582 -287 582 -317 582 c 0,9,10
 -334 582 -334 582 -334 598 c 0,11,12
 -334 631 -334 631 -272 687 c 0,13,14
 -25 903 -25 903 309 906 c 0,15,16
 385 906 385 906 563 883 c 0,17,18
 709 864 709 864 815 864 c 0,19,20
 925 864 925 864 968 872 c 0,21,22
 972 872 972 872 973 873 c 2,23,-1
 1021 1031 l 1,24,25
 1240 1729 1240 1729 1581 2179 c 0,26,27
 1661 2285 1661 2285 1750 2382 c 0,28,29
 1954 2605 1954 2605 2016 2605 c 0,30,31
 2032 2605 2032 2605 2032 2590 c 0,32,33
 2032 2562 2032 2562 1980 2511 c 0,34,35
 1686 2245 1686 2245 1480 1851 c 0,36,37
 1156 1235 1156 1235 941 138 c 0,38,39
 929 76 929 76 851 19 c 0,40,41
 805 -16 805 -16 780 -16 c 0,42,43
 765 -16 765 -16 765 -4 c 128,-1,44
 765 8 765 8 819 257 c 0,45,46
 822 272 822 272 822 273 c 2,47,-1
 822 274 l 1,48,49
 821 274 821 274 792 245 c 0,50,51
 745 201 745 201 671 146 c 0,52,53
 477 1 477 1 348 -14 c 0,54,55
 329 -16 329 -16 308 -16 c 0,56,57
 184 -16 184 -16 100 67 c 0,58,59
 15 148 15 148 15 273 c 0,60,61
 15 381 15 381 96 510 c 0,62,63
 128 562 128 562 171 611 c 0,64,65
 227 676 227 676 304 736 c 2,66,-1
 321 749 l 2,67,68
 326 752 326 752 326 753 c 0,0,1
688 721 m 1,69,-1
 516 729 l 1,70,71
 374 729 374 729 276 618 c 0,72,73
 198 528 198 528 191 420 c 1,74,-1
 191 403 l 2,75,76
 191 242 191 242 331 174 c 0,77,78
 394 143 394 143 452 143 c 0,79,80
 556 143 556 143 680 239 c 0,81,82
 805 335 805 335 860 460 c 0,83,84
 867 475 867 475 872 491 c 2,85,-1
 936 738 l 1,86,-1
 936 739 l 1,87,88
 887 727 887 727 717 721 c 1,89,-1
 688 721 l 1,69,-1
EndSplineSet
Validated: 1
EndChar

StartChar: anto
Encoding: 86 57356 15
Width: 1844
GlyphClass: 2
Flags: W
AnchorPoint: "tehta_contact_up" 335 700 basechar 0
AnchorPoint: "tehta_contact_down" 1280 100 basechar 0
AnchorPoint: "shook" 1280 100 basechar 0
AnchorPoint: "TehtaBelow" 696 -250 basechar 0
AnchorPoint: "Inside" 631 450 basechar 0
AnchorPoint: "TehtaAbove" 1339 1200 basechar 0
LayerCount: 2
Fore
SplineSet
-19 -16 m 0,0,1
 -35 -16 -35 -16 -35 -3 c 0,2,3
 -35 14 -35 14 -16 36 c 0,4,5
 43 101 43 101 93 217 c 0,6,7
 132 307 132 307 173 436 c 0,8,9
 395 1137 395 1137 451 1290 c 0,10,11
 485 1381 485 1381 533 1490 c 0,12,13
 738 1958 738 1958 1025 2272 c 0,14,15
 1214 2478 1214 2478 1276 2478 c 0,16,17
 1290 2478 1290 2478 1290 2465 c 0,18,19
 1290 2436 1290 2436 1222 2368 c 0,20,21
 1124 2271 1124 2271 1116 2263 c 2,22,-1
 1094 2238 l 2,23,24
 925 2045 925 2045 803 1806 c 0,25,26
 617 1444 617 1444 401 730 c 2,27,-1
 369 625 l 1,28,-1
 393 649 l 2,29,30
 632 888 632 888 809 888 c 0,31,32
 940 888 940 888 1020 772 c 0,33,34
 1071 696 1071 696 1082 599 c 1,35,36
 1175 708 1175 708 1293 790 c 0,37,38
 1434 889 1434 889 1541 889 c 0,39,40
 1645 889 1645 889 1723 809 c 0,41,42
 1788 742 1788 742 1809 637 c 0,43,44
 1817 604 1817 604 1817 562 c 0,45,46
 1817 389 1817 389 1686 222 c 0,47,48
 1580 85 1580 85 1441 20 c 0,49,50
 1363 -16 1363 -16 1295 -16 c 0,51,52
 1155 -16 1155 -16 1140 71 c 0,53,54
 1138 80 1138 80 1138 89 c 0,55,56
 1138 145 1138 145 1185 187 c 0,57,58
 1223 221 1223 221 1273 221 c 0,59,60
 1319 221 1319 221 1352 188 c 0,61,62
 1381 159 1381 159 1395 152 c 0,63,64
 1413 144 1413 144 1438 144 c 0,65,66
 1527 144 1527 144 1566 198 c 0,67,68
 1641 301 1641 301 1642 429 c 0,69,70
 1642 580 1642 580 1532 679 c 0,71,72
 1476 729 1476 729 1398 729 c 0,73,74
 1299 729 1299 729 1202 624 c 0,75,76
 1135 552 1135 552 1067 418 c 0,77,78
 1004 293 1004 293 972 248 c 0,79,80
 963 235 963 235 954 224 c 0,81,82
 801 27 801 27 621 -10 c 0,83,84
 588 -16 588 -16 558 -16 c 0,85,86
 434 -16 434 -16 408 58 c 0,87,88
 403 73 403 73 403 89 c 0,89,90
 403 141 403 141 447 183 c 0,91,92
 486 221 486 221 540 221 c 0,93,94
 587 221 587 221 619 187 c 0,95,96
 646 159 646 159 658 153 c 0,97,98
 676 143 676 143 701 143 c 0,99,100
 773 143 773 143 813 176 c 0,101,102
 818 179 818 179 821 183 c 0,103,104
 902 276 902 276 909 414 c 1,105,-1
 909 430 l 2,106,107
 909 565 909 565 823 655 c 0,108,109
 767 715 767 715 694 727 c 0,110,111
 683 728 683 728 664 728 c 0,112,113
 459 728 459 728 233 262 c 0,114,115
 153 97 153 97 53 18 c 0,116,117
 9 -16 9 -16 -19 -16 c 0,0,1
EndSplineSet
Validated: 1
Substitution2: "Single Substitution lookup 48 subtable" anto.nofin
Substitution2: "Single Substitution lookup 47 subtable" anto.nofin
Substitution2: "Single Substitution lookup 46 subtable" anto.nofin
Substitution2: "Single Substitution lookup 45 subtable" anto.nofin
Substitution2: "Single Substitution lookup 44 subtable" anto.nofin
EndChar

StartChar: ampa
Encoding: 87 57357 16
Width: 1895
GlyphClass: 2
Flags: W
AnchorPoint: "tehta_contact_up" 335 700 basechar 0
AnchorPoint: "tehta_contact_down" 886 100 basechar 0
AnchorPoint: "shook" 1620 100 basechar 0
AnchorPoint: "TehtaBelow" 696 -250 basechar 0
AnchorPoint: "Inside" 631 450 basechar 0
AnchorPoint: "TehtaAbove" 1339 1200 basechar 0
LayerCount: 2
Fore
SplineSet
-20 -16 m 0,0,1
 -35 -16 -35 -16 -35 -3 c 0,2,3
 -35 19 -35 19 -16 40 c 0,4,5
 34 97 34 97 74 180 c 0,6,7
 100 235 100 235 128 309 c 0,8,9
 169 418 169 418 229 618 c 2,10,-1
 365 1050 l 1,11,12
 506 1471 506 1471 669 1766 c 0,13,14
 829 2058 829 2058 1025 2272 c 0,15,16
 1214 2478 1214 2478 1276 2478 c 0,17,18
 1290 2478 1290 2478 1290 2465 c 0,19,20
 1290 2436 1290 2436 1222 2368 c 0,21,22
 1124 2271 1124 2271 1116 2263 c 2,23,-1
 1094 2238 l 2,24,25
 920 2038 920 2038 790 1780 c 0,26,27
 608 1418 608 1418 404 741 c 0,28,29
 378 657 378 657 369 624 c 1,30,-1
 479 724 l 1,31,32
 671 889 671 889 813 889 c 0,33,34
 965 889 965 889 1041 751 c 0,35,36
 1080 681 1080 681 1081 621 c 0,37,38
 1081 618 1081 618 1082 615 c 1,39,-1
 1165 695 l 1,40,41
 1278 798 1278 798 1379 848 c 0,42,43
 1463 889 1463 889 1533 889 c 0,44,45
 1646 889 1646 889 1723 806 c 128,-1,46
 1800 723 1800 723 1800 595 c 0,47,48
 1800 426 1800 426 1636 236 c 0,49,50
 1599 193 1599 193 1558 155 c 1,51,-1
 1596 156 l 2,52,53
 1871 161 1871 161 1990 245 c 1,54,-1
 2045 287 l 2,55,56
 2064 298 2064 298 2084 298 c 2,57,-1
 2088 298 l 2,58,59
 2101 298 2101 298 2101 281 c 0,60,61
 2099 249 2099 249 2044 198 c 0,62,63
 1887 60 1887 60 1662 27 c 0,64,65
 1567 12 1567 12 1434 12 c 0,66,67
 1314 12 1314 12 1022 33 c 0,68,69
 820 47 820 47 675 47 c 0,70,71
 332 47 332 47 2 -13 c 0,72,73
 -14 -16 -14 -16 -20 -16 c 0,0,1
908 462 m 0,74,75
 908 579 908 579 833 657 c 0,76,77
 765 728 765 728 666 728 c 0,78,79
 497 728 497 728 310 404 c 0,80,81
 295 379 295 379 202 204 c 0,82,83
 182 166 182 166 171 149 c 2,84,-1
 164 138 l 1,85,-1
 308 161 l 1,86,87
 429 176 429 176 628 187 c 0,88,89
 791 195 791 195 812 219 c 0,90,91
 899 318 899 318 907 443 c 0,92,93
 908 453 908 453 908 462 c 0,74,75
1627 467 m 0,94,95
 1627 528 1627 528 1593 597 c 0,96,97
 1527 729 1527 729 1387 729 c 0,98,99
 1379 729 1379 729 1376 728 c 0,100,101
 1242 728 1242 728 1086 482 c 0,102,103
 1062 445 1062 445 1034 395 c 0,104,105
 971 286 971 286 898 207 c 2,106,-1
 882 189 l 1,107,-1
 888 189 l 2,108,109
 952 189 952 189 1235 169 c 0,110,111
 1318 163 1318 163 1352 163 c 0,112,113
 1485 163 1485 163 1550 248 c 0,114,115
 1566 268 1566 268 1582 299 c 0,116,117
 1627 379 1627 379 1627 467 c 0,94,95
EndSplineSet
Validated: 1
Substitution2: "Single Substitution lookup 48 subtable" ampa.nofin
Substitution2: "Single Substitution lookup 47 subtable" ampa.nofin
Substitution2: "Single Substitution lookup 46 subtable" ampa.nofin
Substitution2: "Single Substitution lookup 45 subtable" ampa.nofin
Substitution2: "Single Substitution lookup 44 subtable" ampa.nofin
EndChar

StartChar: anca
Encoding: 88 57358 17
Width: 1798
GlyphClass: 2
Flags: W
AnchorPoint: "tehta_contact_up" 260 700 basechar 0
AnchorPoint: "tehta_contact_down" 1080 50 basechar 0
AnchorPoint: "shook" 1500 100 basechar 0
AnchorPoint: "TehtaBelow" 626 -250 basechar 0
AnchorPoint: "Inside" 1161 450 basechar 0
AnchorPoint: "TehtaAbove" 939 1200 basechar 0
LayerCount: 2
Fore
SplineSet
1410 -3 m 2,0,-1
 1461 248 l 1,1,-1
 1461 249 l 1,2,3
 1460 249 1460 249 1442 231 c 0,4,5
 1191 -16 1191 -16 1017 -16 c 0,6,7
 900 -16 900 -16 822 79 c 0,8,9
 773 140 773 140 750 232 c 1,10,-1
 735 217 l 2,11,12
 558 44 558 44 397 -2 c 0,13,14
 347 -16 347 -16 302 -16 c 0,15,16
 192 -16 192 -16 113 73 c 0,17,18
 29 168 29 168 29 314 c 0,19,20
 29 478 29 478 152 642 c 0,21,22
 257 782 257 782 396 849 c 0,23,24
 456 878 456 878 512 886 c 0,25,26
 524 888 524 888 555 888 c 0,27,28
 690 888 690 888 708 800 c 0,29,30
 711 789 711 789 711 776 c 0,31,32
 711 705 711 705 647 664 c 0,33,34
 612 642 612 642 577 642 c 0,35,36
 530 642 530 642 498 678 c 0,37,38
 471 708 471 708 461 715 c 0,39,40
 439 729 439 729 407 729 c 0,41,42
 313 729 313 729 267 660 c 0,43,44
 256 643 256 643 244 617 c 0,45,46
 203 535 203 535 203 443 c 0,47,48
 203 292 203 292 308 199 c 0,49,50
 335 176 335 176 361 163 c 0,51,52
 403 143 403 143 449 143 c 0,53,54
 541 143 541 143 627 213 c 0,55,56
 723 291 723 291 758 428 c 0,57,58
 795 573 795 573 922 707 c 0,59,60
 1050 841 1050 841 1187 878 c 0,61,62
 1227 889 1227 889 1264 889 c 0,63,64
 1411 889 1411 889 1425 793 c 0,65,66
 1426 784 1426 784 1426 775 c 0,67,68
 1426 722 1426 722 1380 679 c 0,69,70
 1341 642 1341 642 1290 642 c 0,71,72
 1246 642 1246 642 1213 677 c 0,73,74
 1185 708 1185 708 1175 715 c 0,75,76
 1153 729 1153 729 1123 729 c 0,77,78
 1029 729 1029 729 983 661 c 0,79,80
 970 642 970 642 956 613 c 0,81,82
 917 530 917 530 917 443 c 0,83,84
 917 319 917 319 990 230 c 0,85,86
 1018 196 1018 196 1055 174 c 0,87,88
 1105 144 1105 144 1161 144 c 0,89,90
 1264 144 1264 144 1378 265 c 0,91,92
 1467 360 1467 360 1508 467 c 0,93,94
 1519 497 1519 497 1553 636 c 0,95,96
 1596 809 1596 809 1665 1031 c 0,97,98
 1883 1729 1883 1729 2227 2182 c 0,99,100
 2306 2286 2306 2286 2395 2382 c 0,101,102
 2599 2605 2599 2605 2660 2605 c 0,103,104
 2676 2605 2676 2605 2676 2591 c 0,105,106
 2676 2558 2676 2558 2611 2498 c 0,107,108
 2464 2365 2464 2365 2348 2208 c 0,109,110
 2107 1885 2107 1885 1928 1406 c 0,111,112
 1733 886 1733 886 1586 138 c 0,113,114
 1573 71 1573 71 1492 15 c 0,115,116
 1447 -16 1447 -16 1425 -16 c 0,117,118
 1410 -16 1410 -16 1410 -3 c 2,0,-1
EndSplineSet
Validated: 1
EndChar

StartChar: unque
Encoding: 89 57359 18
Width: 1835
GlyphClass: 2
Flags: W
AnchorPoint: "tehta_contact_up" 359 700 basechar 0
AnchorPoint: "tehta_contact_down" 1039 50 basechar 0
AnchorPoint: "shook" 1539 100 basechar 0
AnchorPoint: "TehtaBelow" 685 -250 basechar 0
AnchorPoint: "Inside" 1220 450 basechar 0
AnchorPoint: "TehtaAbove" 998 1200 basechar 0
LayerCount: 2
Fore
SplineSet
1298 861 m 0,0,1
 1478 861 1478 861 1612 874 c 0,2,3
 1634 876 1634 876 1653 876 c 1,4,-1
 1656 877 l 1,5,-1
 1661 892 l 1,6,7
 1933 1832 1933 1832 2405 2354 c 0,8,9
 2486 2444 2486 2444 2583 2533 c 0,10,11
 2661 2605 2661 2605 2697 2605 c 0,12,13
 2713 2605 2713 2605 2713 2591 c 0,14,15
 2713 2558 2713 2558 2653 2502 c 0,16,17
 2365 2240 2365 2240 2161 1848 c 0,18,19
 1840 1234 1840 1234 1623 138 c 0,20,21
 1610 71 1610 71 1529 15 c 0,22,23
 1485 -16 1485 -16 1462 -16 c 0,24,25
 1447 -16 1447 -16 1447 -3 c 2,26,-1
 1499 253 l 1,27,-1
 1481 235 l 2,28,29
 1226 -16 1226 -16 1048 -16 c 0,30,31
 851 -16 851 -16 787 214 c 0,32,33
 785 224 785 224 784 224 c 2,34,-1
 768 208 l 2,35,36
 622 67 622 67 477 12 c 0,37,38
 404 -16 404 -16 341 -16 c 0,39,40
 228 -16 228 -16 151 67 c 0,41,42
 75 150 75 150 75 277 c 0,43,44
 75 454 75 454 244 639 c 0,45,46
 297 697 297 697 374 766 c 1,47,-1
 340 766 l 1,48,49
 10 758 10 758 -144 628 c 0,50,51
 -196 583 -196 583 -228 583 c 0,52,53
 -244 583 -244 583 -244 598 c 0,54,55
 -244 631 -244 631 -178 691 c 0,56,57
 -51 806 -51 806 159 865 c 0,58,59
 317 909 317 909 495 909 c 0,60,61
 617 909 617 909 878 884 c 0,62,63
 1119 861 1119 861 1298 861 c 0,0,1
1012 722 m 0,64,65
 967 722 967 722 649 751 c 0,66,67
 562 759 562 759 540 759 c 0,68,69
 480 759 480 759 427 719 c 0,70,71
 249 585 249 585 249 408 c 0,72,73
 249 243 249 243 379 174 c 0,74,75
 437 144 437 144 487 144 c 0,76,77
 587 144 587 144 682 225 c 0,78,79
 719 257 719 257 745 294 c 0,80,81
 777 342 777 342 810 427 c 0,82,83
 845 520 845 520 904 596 c 0,84,85
 923 621 923 621 947 648 c 0,86,87
 993 696 993 696 1011 712 c 0,88,89
 1019 720 1019 720 1019 721 c 128,-1,90
 1019 722 1019 722 1012 722 c 0,64,65
955 411 m 0,91,92
 955 251 955 251 1081 178 c 0,93,94
 1141 144 1141 144 1192 144 c 0,95,96
 1263 144 1263 144 1337 201 c 2,97,-1
 1366 224 l 1,98,99
 1510 346 1510 346 1556 502 c 0,100,101
 1561 518 1561 518 1576 578 c 2,102,-1
 1606 695 l 2,103,104
 1618 734 1618 734 1618 739 c 2,105,-1
 1618 741 l 1,106,107
 1549 734 1549 734 1293 718 c 0,108,109
 1150 709 1150 709 1096 684 c 0,110,111
 1040 657 1040 657 1004 587 c 0,112,113
 955 491 955 491 955 411 c 0,91,92
EndSplineSet
Validated: 1
EndChar

StartChar: tripledot_above
Encoding: 135 57408 19
AltUni2: 00e831.00fe00.0 00e040.ffffffff.0
Width: 0
GlyphClass: 4
AnchorPoint: "mkmk_up" 426 1839 basemark 0
AnchorPoint: "mkmk_up" 226 1239 mark 0
AnchorPoint: "TehtaAbove" 226 1239 mark 0
LayerCount: 2
Fore
SplineSet
255 1303 m 4,0,1
 234 1303 234 1303 228 1327 c 4,2,3
 227 1332 227 1332 227 1338 c 4,4,5
 227 1368 227 1368 259 1569 c 4,6,7
 271 1646 271 1646 279 1677 c 4,8,9
 303 1774 303 1774 365 1774 c 4,10,11
 405 1774 405 1774 424 1734 c 4,12,13
 432 1716 432 1716 432 1693 c 4,14,15
 432 1641 432 1641 333 1425 c 6,16,-1
 303 1360 l 6,17,18
 286 1324 286 1324 283 1319 c 4,19,20
 271 1303 271 1303 255 1303 c 4,0,1
22 1576 m 4,21,22
 22 1618 22 1618 53 1634 c 4,23,24
 66 1640 66 1640 83 1640 c 4,25,26
 158 1638 158 1638 186 1484 c 4,27,28
 195 1432 195 1432 195 1390 c 4,29,30
 195 1190 195 1190 146 1190 c 4,31,32
 123 1190 123 1190 115 1224 c 6,33,-1
 93 1357 l 5,34,35
 75 1441 75 1441 38 1519 c 4,36,37
 22 1553 22 1553 22 1576 c 4,21,22
273 1214 m 5,38,39
 273 1242 273 1242 337 1344 c 4,40,41
 431 1492 431 1492 505 1535 c 4,42,43
 528 1548 528 1548 546 1548 c 4,44,45
 585 1548 585 1548 599 1511 c 4,46,47
 603 1500 603 1500 603 1488 c 4,48,49
 603 1460 603 1460 573 1427 c 4,50,51
 548 1399 548 1399 478 1338 c 4,52,53
 430 1296 430 1296 351 1215 c 4,54,55
 321 1184 321 1184 300 1183 c 5,56,57
 277 1191 277 1191 273 1214 c 5,38,39
EndSplineSet
Validated: 1
EndChar

StartChar: nuumen
Encoding: 90 57360 20
Width: 1840
Flags: W
AnchorPoint: "shook" 1280 100 basechar 0
AnchorPoint: "tehta_contact_down" 1280 100 basechar 0
AnchorPoint: "tehta_contact_up" 335 700 basechar 0
AnchorPoint: "TehtaBelow" 696 -250 basechar 0
AnchorPoint: "Inside" 671 450 basechar 0
AnchorPoint: "TehtaAbove" 1169 1200 basechar 0
LayerCount: 2
Fore
SplineSet
-174 675 m 0,0,1
 -174 705 -174 705 -119 761 c 0,2,3
 -16 862 -16 862 135 895 c 0,4,5
 174 903 174 903 214 906 c 2,6,-1
 243 906 l 2,7,8
 330 906 330 906 368 825 c 0,9,10
 389 781 389 781 389 723 c 0,11,12
 389 674 389 674 378 634 c 0,13,14
 377 630 377 630 376 628 c 1,15,16
 378 628 378 628 430 678 c 0,17,18
 621 863 621 863 776 886 c 0,19,20
 790 888 790 888 815 888 c 0,21,22
 946 888 946 888 1025 771 c 0,23,24
 1076 696 1076 696 1087 599 c 1,25,26
 1209 740 1209 740 1342 820 c 0,27,28
 1456 889 1456 889 1549 889 c 0,29,30
 1654 889 1654 889 1732 804 c 0,31,32
 1794 738 1794 738 1815 637 c 0,33,34
 1822 604 1822 604 1822 564 c 0,35,36
 1822 387 1822 387 1690 220 c 0,37,38
 1582 82 1582 82 1441 19 c 0,39,40
 1363 -16 1363 -16 1295 -16 c 0,41,42
 1169 -16 1169 -16 1147 62 c 0,43,44
 1143 75 1143 75 1143 90 c 0,45,46
 1143 142 1143 142 1186 183 c 0,47,48
 1225 221 1225 221 1279 221 c 0,49,50
 1326 221 1326 221 1359 187 c 0,51,52
 1387 158 1387 158 1399 152 c 0,53,54
 1417 143 1417 143 1441 143 c 0,55,56
 1513 143 1513 143 1552 178 c 0,57,58
 1565 189 1565 189 1576 204 c 0,59,60
 1647 306 1647 306 1647 430 c 0,61,62
 1647 579 1647 579 1545 670 c 0,63,64
 1518 695 1518 695 1491 708 c 0,65,66
 1449 729 1449 729 1404 729 c 0,67,68
 1250 729 1250 729 1107 481 c 0,69,70
 1091 453 1091 453 1035 343 c 0,71,72
 1011 296 1011 296 980 252 c 0,73,74
 897 136 897 136 785 61 c 0,75,76
 694 -1 694 -1 605 -14 c 0,77,78
 592 -16 592 -16 564 -16 c 0,79,80
 427 -16 427 -16 412 71 c 0,81,82
 410 80 410 80 410 90 c 0,83,84
 410 141 410 141 454 184 c 0,85,86
 492 221 492 221 543 221 c 0,87,88
 589 221 589 221 627 185 c 0,89,90
 658 155 658 155 673 149 c 0,91,92
 686 144 686 144 701 144 c 2,93,-1
 710 144 l 2,94,95
 799 144 799 144 843 205 c 0,96,97
 855 220 855 220 871 251 c 0,98,99
 914 338 914 338 914 430 c 0,100,101
 914 552 914 552 843 640 c 0,102,103
 814 676 814 676 776 698 c 0,104,105
 725 729 725 729 669 729 c 0,106,107
 526 729 526 729 367 486 c 0,108,109
 329 428 329 428 225 241 c 0,110,111
 181 161 181 161 157 129 c 0,112,113
 65 6 65 6 -3 -14 c 0,114,115
 -12 -16 -12 -16 -20 -16 c 0,116,117
 -36 -16 -36 -16 -36 -3 c 0,118,119
 -36 17 -36 17 15 78 c 0,120,121
 32 98 32 98 37 106 c 0,122,123
 123 234 123 234 183 435 c 0,124,125
 215 540 215 540 215 590 c 0,126,127
 215 689 215 689 154 729 c 0,128,129
 128 747 128 747 94 747 c 0,130,131
 -15 747 -15 747 -90 695 c 0,132,133
 -131 667 -131 667 -143 664 c 0,134,135
 -150 662 -150 662 -158 662 c 0,136,137
 -174 662 -174 662 -174 675 c 0,0,1
EndSplineSet
Validated: 1
Substitution2: "Single Substitution lookup 48 subtable" nuumen.nofin
Substitution2: "Single Substitution lookup 47 subtable" nuumen.nofin
Substitution2: "Single Substitution lookup 46 subtable" nuumen.nofin
Substitution2: "Single Substitution lookup 45 subtable" nuumen.nofin
Substitution2: "Single Substitution lookup 44 subtable" nuumen.nofin
EndChar

StartChar: malta
Encoding: 91 57361 21
Width: 1914
Flags: W
AnchorPoint: "tehta_contact_up" 335 700 basechar 0
AnchorPoint: "tehta_contact_down" 886 100 basechar 0
AnchorPoint: "shook" 1620 100 basechar 0
AnchorPoint: "TehtaBelow" 696 -250 basechar 0
AnchorPoint: "Inside" 671 450 basechar 0
AnchorPoint: "TehtaAbove" 1169 1200 basechar 0
LayerCount: 2
Fore
SplineSet
-174 675 m 0,0,1
 -174 705 -174 705 -119 761 c 0,2,3
 -16 862 -16 862 135 895 c 0,4,5
 174 903 174 903 214 906 c 2,6,-1
 243 906 l 2,7,8
 330 906 330 906 368 825 c 0,9,10
 389 781 389 781 389 723 c 0,11,12
 389 689 389 689 376 627 c 1,13,14
 377 627 377 627 402 650 c 0,15,16
 644 889 644 889 821 889 c 0,17,18
 971 889 971 889 1047 751 c 0,19,20
 1086 681 1086 681 1087 621 c 0,21,22
 1087 618 1087 618 1088 615 c 1,23,24
 1101 625 1101 625 1182 701 c 0,25,26
 1320 831 1320 831 1430 869 c 0,27,28
 1487 888 1487 888 1543 888 c 0,29,30
 1650 888 1650 888 1727 808 c 0,31,32
 1807 724 1807 724 1807 598 c 0,33,34
 1807 415 1807 415 1624 215 c 0,35,36
 1595 184 1595 184 1564 155 c 1,37,-1
 1600 156 l 2,38,39
 1878 162 1878 162 1993 246 c 2,40,-1
 2047 287 l 2,41,42
 2065 298 2065 298 2085 298 c 2,43,-1
 2089 298 l 2,44,45
 2102 298 2102 298 2102 281 c 0,46,47
 2100 243 2100 243 2030 183 c 0,48,49
 1906 77 1906 77 1713 36 c 0,50,51
 1666 26 1666 26 1617 21 c 0,52,53
 1550 13 1550 13 1435 13 c 0,54,55
 1313 13 1313 13 1023 33 c 0,56,57
 823 47 823 47 675 47 c 0,58,59
 336 47 336 47 4 -13 c 0,60,61
 -15 -16 -15 -16 -21 -16 c 0,62,63
 -36 -16 -36 -16 -36 -3 c 0,64,65
 -36 20 -36 20 5 67 c 0,66,67
 29 93 29 93 37 105 c 0,68,69
 122 231 122 231 182 431 c 0,70,71
 215 538 215 538 215 590 c 0,72,73
 215 689 215 689 154 729 c 0,74,75
 128 747 128 747 94 747 c 0,76,77
 -15 747 -15 747 -90 695 c 0,78,79
 -131 667 -131 667 -143 664 c 0,80,81
 -150 662 -150 662 -158 662 c 0,82,83
 -174 662 -174 662 -174 675 c 0,0,1
914 462 m 0,84,85
 914 524 914 524 880 594 c 0,86,87
 814 729 814 729 675 729 c 0,88,89
 529 729 529 729 369 487 c 0,90,91
 328 425 328 425 222 236 c 0,92,93
 185 170 185 170 164 138 c 1,94,95
 221 157 221 157 489 175 c 0,96,97
 754 193 754 193 812 212 c 1,98,99
 914 325 914 325 914 462 c 0,84,85
891 189 m 2,100,101
 964 189 964 189 1243 169 c 0,102,103
 1322 163 1322 163 1355 163 c 0,104,105
 1481 163 1481 163 1540 231 c 0,106,107
 1624 326 1624 326 1633 444 c 1,108,-1
 1633 466 l 2,109,110
 1633 591 1633 591 1544 670 c 0,111,112
 1491 716 1491 716 1427 727 c 0,113,114
 1413 728 1413 728 1392 728 c 0,115,116
 1280 728 1280 728 1175 596 c 0,117,118
 1137 549 1137 549 1043 399 c 0,119,120
 959 265 959 265 902 204 c 0,121,122
 890 191 890 191 890 189 c 1,123,-1
 891 189 l 2,100,101
EndSplineSet
Validated: 1
Substitution2: "Single Substitution lookup 48 subtable" malta.nofin
Substitution2: "Single Substitution lookup 47 subtable" malta.nofin
Substitution2: "Single Substitution lookup 46 subtable" malta.nofin
Substitution2: "Single Substitution lookup 45 subtable" malta.nofin
Substitution2: "Single Substitution lookup 44 subtable" malta.nofin
EndChar

StartChar: noldo
Encoding: 92 57362 22
Width: 1857
Flags: W
AnchorPoint: "tehta_contact_up" 278 700 basechar 0
AnchorPoint: "tehta_contact_down" 1038 50 basechar 0
AnchorPoint: "shook" 1810 800 basechar 0
AnchorPoint: "TehtaBelow" 654 -250 basechar 0
AnchorPoint: "Inside" 1229 450 basechar 0
AnchorPoint: "TehtaAbove" 1087 1200 basechar 0
LayerCount: 2
Fore
SplineSet
1451 64 m 0,0,1
 1451 166 1451 166 1462 218 c 1,2,-1
 1461 219 l 1,3,-1
 1429 190 l 2,4,5
 1386 148 1386 148 1321 99 c 0,6,7
 1167 -16 1167 -16 1050 -16 c 0,8,9
 950 -16 950 -16 872 59 c 0,10,11
 804 126 804 126 782 232 c 0,12,13
 779 232 779 232 754 206 c 0,14,15
 706 158 706 158 632 104 c 0,16,17
 466 -16 466 -16 335 -16 c 0,18,19
 236 -16 236 -16 159 60 c 0,20,21
 89 128 89 128 68 235 c 0,22,23
 60 269 60 269 60 310 c 0,24,25
 60 521 60 521 248 715 c 0,26,27
 376 848 376 848 512 880 c 0,28,29
 535 886 535 886 561 888 c 2,30,-1
 574 888 l 2,31,32
 725 888 725 888 740 798 c 0,33,34
 742 787 742 787 742 775 c 0,35,36
 742 709 742 709 682 667 c 0,37,38
 646 642 646 642 607 642 c 0,39,40
 563 642 563 642 530 677 c 0,41,42
 502 708 502 708 492 715 c 0,43,44
 471 729 471 729 440 729 c 0,45,46
 353 729 353 729 311 675 c 0,47,48
 237 570 237 570 235 443 c 0,49,50
 235 335 235 335 298 246 c 0,51,52
 370 143 370 143 479 143 c 0,53,54
 582 143 582 143 669 222 c 0,55,56
 751 296 751 296 788 421 c 0,57,58
 837 588 837 588 972 724 c 0,59,60
 1106 860 1106 860 1248 884 c 0,61,62
 1274 889 1274 889 1299 889 c 0,63,64
 1428 889 1428 889 1452 807 c 0,65,66
 1457 792 1457 792 1457 776 c 0,67,68
 1457 708 1457 708 1396 666 c 0,69,70
 1361 642 1361 642 1325 642 c 0,71,72
 1277 642 1277 642 1244 678 c 0,73,74
 1216 709 1216 709 1206 715 c 0,75,76
 1185 729 1185 729 1154 729 c 0,77,78
 1088 729 1088 729 1047 698 c 0,79,80
 1041 694 1041 694 1037 689 c 0,81,82
 962 606 962 606 950 472 c 0,83,84
 949 456 949 456 949 443 c 0,85,86
 949 257 949 257 1083 179 c 0,87,88
 1142 144 1142 144 1194 144 c 0,89,90
 1300 144 1300 144 1401 263 c 0,91,92
 1424 290 1424 290 1443 320 c 0,93,94
 1485 385 1485 385 1554 524 c 0,95,96
 1614 645 1614 645 1677 716 c 0,97,98
 1698 740 1698 740 1722 763 c 0,99,100
 1782 816 1782 816 1822 821 c 0,101,102
 1837 821 1837 821 1837 806 c 0,103,104
 1837 787 1837 787 1812 758 c 0,105,106
 1755 693 1755 693 1719 619 c 0,107,108
 1703 584 1703 584 1688 544 c 0,109,110
 1625 379 1625 379 1625 191 c 1,111,-1
 1628 129 l 2,112,113
 1628 88 1628 88 1554 30 c 0,114,115
 1497 -16 1497 -16 1470 -16 c 0,116,117
 1456 -16 1456 -16 1453 -4 c 0,118,119
 1451 6 1451 6 1451 64 c 0,0,1
EndSplineSet
Validated: 1
EndChar

StartChar: nwalme
Encoding: 93 57363 23
Width: 1968
Flags: W
AnchorPoint: "tehta_contact_up" 324 700 basechar 0
AnchorPoint: "tehta_contact_down" 974 50 basechar 0
AnchorPoint: "shook" 1720 800 basechar 0
AnchorPoint: "TehtaBelow" 670 -250 basechar 0
AnchorPoint: "Inside" 1245 450 basechar 0
AnchorPoint: "TehtaAbove" 1103 1200 basechar 0
LayerCount: 2
Fore
SplineSet
-259 598 m 0,0,1
 -259 632 -259 632 -190 694 c 0,2,3
 -62 809 -62 809 144 869 c 0,4,5
 303 915 303 915 479 915 c 0,6,7
 653 915 653 915 891 893 c 0,8,9
 1228 861 1228 861 1648 858 c 2,10,-1
 1751 858 l 2,11,12
 1887 858 1887 858 1944 889 c 0,13,14
 1966 901 1966 901 1982 901 c 0,15,16
 1999 901 1999 901 1999 885 c 0,17,18
 1999 835 1999 835 1913 782 c 0,19,20
 1840 739 1840 739 1750 720 c 1,21,22
 1681 513 1681 513 1671 476 c 0,23,24
 1630 329 1630 329 1613 148 c 0,25,26
 1611 124 1611 124 1608 114 c 0,27,28
 1586 60 1586 60 1515 12 c 0,29,30
 1473 -16 1473 -16 1451 -16 c 1,31,32
 1439 -10 1439 -10 1438 0 c 0,33,34
 1438 65 1438 65 1466 218 c 0,35,36
 1468 230 1468 230 1470 238 c 1,37,38
 1468 238 1468 238 1451 222 c 0,39,40
 1242 13 1242 13 1075 -13 c 0,41,42
 1053 -16 1053 -16 1033 -16 c 0,43,44
 836 -16 836 -16 772 214 c 0,45,46
 770 224 770 224 769 224 c 2,47,-1
 753 208 l 2,48,49
 623 82 623 82 487 22 c 0,50,51
 400 -16 400 -16 327 -16 c 0,52,53
 213 -16 213 -16 136 67 c 0,54,55
 60 150 60 150 60 277 c 0,56,57
 60 507 60 507 347 757 c 2,58,-1
 364 772 l 1,59,-1
 361 772 l 2,60,61
 102 772 102 772 -68 686 c 0,62,63
 -122 659 -122 659 -163 624 c 0,64,65
 -210 583 -210 583 -242 583 c 0,66,67
 -259 583 -259 583 -259 598 c 0,0,1
1013 730 m 2,68,69
 1001 730 1001 730 690 757 c 0,70,71
 565 768 565 768 527 768 c 0,72,73
 438 768 438 768 336 651 c 0,74,75
 291 601 291 601 270 559 c 0,76,77
 234 482 234 482 234 406 c 0,78,79
 234 273 234 273 328 196 c 0,80,81
 368 164 368 164 414 151 c 0,82,83
 442 144 442 144 471 144 c 0,84,85
 572 144 572 144 668 225 c 0,86,87
 687 240 687 240 700 255 c 0,88,89
 754 317 754 317 786 402 c 0,90,91
 819 491 819 491 845 534 c 0,92,93
 896 619 896 619 1005 721 c 0,94,95
 1014 729 1014 729 1014 730 c 1,96,-1
 1013 730 l 2,68,69
940 411 m 0,97,98
 940 244 940 244 1071 174 c 0,99,100
 1129 144 1129 144 1177 144 c 0,101,102
 1248 144 1248 144 1316 196 c 0,103,104
 1433 286 1433 286 1496 410 c 0,105,106
 1511 441 1511 441 1570 586 c 2,107,-1
 1584 621 l 2,108,109
 1606 673 1606 673 1635 714 c 1,110,-1
 1547 715 l 1,111,-1
 1211 721 l 2,112,113
 1046 721 1046 721 975 562 c 0,114,115
 940 484 940 484 940 411 c 0,97,98
EndSplineSet
Validated: 1
Substitution2: "Single Substitution lookup 48 subtable" nwalme.nofin
Substitution2: "Single Substitution lookup 47 subtable" nwalme.nofin
Substitution2: "Single Substitution lookup 46 subtable" nwalme.nofin
Substitution2: "Single Substitution lookup 45 subtable" nwalme.nofin
Substitution2: "Single Substitution lookup 44 subtable" nwalme.nofin
EndChar

StartChar: oore
Encoding: 94 57364 24
Width: 1180
Flags: W
AnchorPoint: "tehta_contact_up" 305 700 basechar 0
AnchorPoint: "tehta_contact_down" 580 100 basechar 0
AnchorPoint: "shook" 580 100 basechar 0
AnchorPoint: "TehtaBelow" 406 -250 basechar 0
AnchorPoint: "Inside" 671 450 basechar 0
AnchorPoint: "TehtaAbove" 749 1200 basechar 0
LayerCount: 2
Fore
SplineSet
-204 675 m 0,0,1
 -204 705 -204 705 -149 761 c 0,2,3
 -46 862 -46 862 105 895 c 0,4,5
 144 903 144 903 184 906 c 2,6,-1
 213 906 l 2,7,8
 300 906 300 906 338 825 c 0,9,10
 359 781 359 781 359 723 c 0,11,12
 359 682 359 682 339 598 c 1,13,-1
 363 621 l 2,14,15
 473 731 473 731 604 808 c 0,16,17
 741 889 741 889 842 889 c 0,18,19
 988 889 988 889 1080 768 c 0,20,21
 1097 745 1097 745 1109 722 c 0,22,23
 1148 648 1148 648 1148 567 c 0,24,25
 1148 376 1148 376 1002 207 c 0,26,27
 932 126 932 126 840 66 c 0,28,29
 715 -16 715 -16 592 -16 c 0,30,31
 465 -16 465 -16 443 62 c 0,32,33
 440 75 440 75 440 89 c 0,34,35
 440 144 440 144 485 186 c 0,36,37
 524 221 524 221 575 221 c 0,38,39
 621 221 621 221 655 187 c 0,40,41
 684 158 684 158 697 151 c 0,42,43
 714 144 714 144 735 144 c 0,44,45
 893 144 893 144 950 290 c 0,46,47
 974 352 974 352 974 426 c 0,48,49
 974 575 974 575 863 667 c 0,50,51
 837 689 837 689 811 702 c 0,52,53
 756 729 756 729 699 729 c 0,54,55
 607 729 607 729 504 653 c 0,56,57
 485 638 485 638 462 619 c 0,58,59
 359 534 359 534 260 358 c 2,60,-1
 164 186 l 2,61,62
 145 153 145 153 127 129 c 0,63,64
 35 6 35 6 -33 -14 c 0,65,66
 -42 -16 -42 -16 -50 -16 c 0,67,68
 -66 -16 -66 -16 -66 -3 c 0,69,70
 -66 17 -66 17 -15 78 c 0,71,72
 2 98 2 98 7 106 c 0,73,74
 93 234 93 234 153 435 c 0,75,76
 185 540 185 540 185 590 c 0,77,78
 185 689 185 689 124 729 c 0,79,80
 98 747 98 747 64 747 c 0,81,82
 -45 747 -45 747 -120 695 c 0,83,84
 -161 667 -161 667 -173 664 c 0,85,86
 -180 662 -180 662 -188 662 c 0,87,88
 -204 662 -204 662 -204 675 c 0,0,1
EndSplineSet
Validated: 1
Substitution2: "Single Substitution lookup 48 subtable" oore.nofin
Substitution2: "Single Substitution lookup 47 subtable" oore.nofin
Substitution2: "Single Substitution lookup 46 subtable" oore.nofin
Substitution2: "Single Substitution lookup 45 subtable" oore.nofin
Substitution2: "Single Substitution lookup 44 subtable" oore.nofin
EndChar

StartChar: vala
Encoding: 95 57365 25
Width: 1253
Flags: W
AnchorPoint: "tehta_contact_up" 305 700 basechar 0
AnchorPoint: "tehta_contact_down" 836 100 basechar 0
AnchorPoint: "shook" 1080 100 basechar 0
AnchorPoint: "TehtaBelow" 412 -250 basechar 0
AnchorPoint: "Inside" 677 450 basechar 0
AnchorPoint: "TehtaAbove" 755 1200 basechar 0
LayerCount: 2
Fore
SplineSet
-198 675 m 0,0,1
 -198 705 -198 705 -143 761 c 0,2,3
 -40 862 -40 862 111 895 c 0,4,5
 150 903 150 903 190 906 c 2,6,-1
 219 906 l 2,7,8
 306 906 306 906 344 825 c 0,9,10
 365 781 365 781 365 723 c 0,11,12
 365 677 365 677 349 617 c 0,13,14
 345 604 345 604 345 596 c 1,15,-1
 368 619 l 2,16,17
 524 772 524 772 676 843 c 0,18,19
 773 889 773 889 853 889 c 0,20,21
 1033 889 1033 889 1111 743 c 0,22,23
 1147 673 1147 673 1147 610 c 0,24,25
 1147 503 1147 503 1074 375 c 0,26,27
 1010 263 1010 263 902 172 c 0,28,29
 889 162 889 162 889 160 c 0,30,31
 889 157 889 157 967 157 c 0,32,33
 1193 157 1193 157 1309 239 c 1,34,-1
 1371 286 l 2,35,36
 1392 298 1392 298 1412 298 c 2,37,-1
 1416 298 l 2,38,39
 1429 298 1429 298 1429 281 c 0,40,41
 1427 249 1427 249 1365 191 c 0,42,43
 1244 81 1244 81 1057 37 c 0,44,45
 959 13 959 13 853 13 c 0,46,47
 787 13 787 13 562 36 c 0,48,49
 491 42 491 42 427 45 c 0,50,51
 403 46 403 46 372 46 c 0,52,53
 176 46 176 46 -9 -8 c 0,54,55
 -36 -16 -36 -16 -45 -16 c 0,56,57
 -60 -16 -60 -16 -60 -3 c 0,58,59
 -60 20 -60 20 -22 63 c 0,60,61
 4 91 4 91 13 105 c 0,62,63
 98 231 98 231 158 431 c 0,64,65
 191 538 191 538 191 590 c 0,66,67
 191 689 191 689 130 729 c 0,68,69
 104 747 104 747 70 747 c 0,70,71
 -39 747 -39 747 -114 695 c 0,72,73
 -155 667 -155 667 -167 664 c 0,74,75
 -174 662 -174 662 -182 662 c 0,76,77
 -198 662 -198 662 -198 675 c 0,0,1
497 189 m 1,78,-1
 665 182 l 1,79,80
 815 182 815 182 879 246 c 0,81,82
 963 333 963 333 972 447 c 0,83,84
 973 459 973 459 973 470 c 0,85,86
 973 583 973 583 890 660 c 0,87,88
 829 715 829 715 745 727 c 0,89,90
 733 729 733 729 711 729 c 0,91,92
 631 729 631 729 532 665 c 0,93,94
 453 614 453 614 387 533 c 0,95,96
 317 447 317 447 218 269 c 0,97,98
 175 189 175 189 147 148 c 1,99,-1
 147 148 l 1,100,-1
 281 173 l 2,101,102
 384 189 384 189 497 189 c 1,78,-1
EndSplineSet
Validated: 5
Substitution2: "Single Substitution lookup 48 subtable" vala.nofin
Substitution2: "Single Substitution lookup 47 subtable" vala.nofin
Substitution2: "Single Substitution lookup 46 subtable" vala.nofin
Substitution2: "Single Substitution lookup 45 subtable" vala.nofin
Substitution2: "Single Substitution lookup 44 subtable" vala.nofin
EndChar

StartChar: anna
Encoding: 96 57366 26
Width: 1207
Flags: W
AnchorPoint: "shook" 880 100 basechar 0
AnchorPoint: "tehta_contact_up" 270 700 basechar 0
AnchorPoint: "tehta_contact_down" 340 50 basechar 0
AnchorPoint: "TehtaBelow" 370 -250 basechar 0
AnchorPoint: "Inside" 525 450 basechar 0
AnchorPoint: "TehtaAbove" 843 1200 basechar 0
LayerCount: 2
Fore
SplineSet
339 -16 m 0,0,1
 218 -16 218 -16 130 72 c 0,2,3
 35 168 35 168 35 312 c 0,4,5
 35 484 35 484 169 651 c 0,6,7
 280 787 280 787 423 852 c 0,8,9
 505 888 505 888 575 888 c 0,10,11
 711 888 711 888 739 823 c 0,12,13
 748 802 748 802 748 775 c 0,14,15
 748 720 748 720 702 678 c 0,16,17
 663 642 663 642 613 642 c 0,18,19
 568 642 568 642 535 678 c 0,20,21
 506 709 506 709 496 716 c 0,22,23
 474 729 474 729 445 729 c 0,24,25
 290 729 290 729 233 583 c 0,26,27
 209 520 209 520 209 446 c 0,28,29
 209 296 209 296 321 203 c 0,30,31
 347 182 347 182 372 170 c 0,32,33
 427 143 427 143 484 143 c 0,34,35
 579 143 579 143 679 219 c 0,36,37
 754 275 754 275 815 366 c 0,38,39
 853 423 853 423 921 553 c 0,40,41
 979 665 979 665 1043 733 c 0,42,43
 1057 748 1057 748 1073 763 c 0,44,45
 1133 818 1133 818 1173 821 c 0,46,47
 1187 821 1187 821 1187 806 c 0,48,49
 1187 784 1187 784 1161 755 c 0,50,51
 1108 695 1108 695 1078 635 c 0,52,53
 1057 595 1057 595 1038 544 c 0,54,55
 976 375 976 375 976 194 c 1,56,-1
 978 129 l 2,57,58
 978 89 978 89 905 30 c 0,59,60
 847 -16 847 -16 821 -16 c 0,61,62
 807 -16 807 -16 804 -4 c 128,-1,63
 801 8 801 8 801 68 c 0,64,65
 801 156 801 156 817 250 c 1,66,-1
 800 233 l 2,67,68
 679 114 679 114 544 44 c 0,69,70
 430 -16 430 -16 339 -16 c 0,0,1
EndSplineSet
Validated: 1
EndChar

StartChar: wilya
Encoding: 97 57367 27
Width: 1241
Flags: W
AnchorPoint: "tehta_contact_up" 352 700 basechar 0
AnchorPoint: "tehta_contact_down" 322 50 basechar 0
AnchorPoint: "shook" 1142 800 basechar 0
AnchorPoint: "TehtaBelow" 374 -250 basechar 0
AnchorPoint: "Inside" 529 450 basechar 0
AnchorPoint: "TehtaAbove" 717 1200 basechar 0
LayerCount: 2
Fore
SplineSet
376 762 m 1,0,1
 336 768 336 768 249 768 c 0,2,3
 13 768 13 768 -131 673 c 1,4,-1
 -230 601 l 2,5,6
 -236 597 -236 597 -242 594 c 0,7,8
 -264 582 -264 582 -278 582 c 0,9,10
 -295 582 -295 582 -295 598 c 0,11,12
 -295 631 -295 631 -226 694 c 0,13,14
 -101 808 -101 808 89 868 c 0,15,16
 209 905 209 905 336 911 c 1,17,-1
 388 911 l 2,18,19
 483 910 483 910 680 886 c 0,20,21
 916 858 916 858 1165 858 c 0,22,23
 1253 858 1253 858 1316 889 c 0,24,25
 1341 901 1341 901 1354 901 c 0,26,27
 1371 901 1371 901 1371 885 c 0,28,29
 1371 835 1371 835 1285 782 c 0,30,31
 1212 739 1212 739 1122 720 c 1,32,33
 1053 513 1053 513 1043 476 c 0,34,35
 1002 329 1002 329 985 148 c 0,36,37
 983 124 983 124 980 114 c 0,38,39
 958 60 958 60 887 12 c 0,40,41
 845 -16 845 -16 823 -16 c 1,42,43
 811 -10 811 -10 810 0 c 0,44,45
 810 61 810 61 837 200 c 0,46,47
 847 247 847 247 847 265 c 1,48,49
 732 150 732 150 597 70 c 0,50,51
 453 -16 453 -16 345 -16 c 0,52,53
 217 -16 217 -16 132 73 c 0,54,55
 55 154 55 154 55 271 c 0,56,57
 55 467 55 467 264 667 c 0,58,59
 316 717 316 717 376 762 c 1,0,1
230 403 m 0,60,61
 230 283 230 283 316 208 c 0,62,63
 389 144 389 144 491 144 c 0,64,65
 617 144 617 144 747 266 c 0,66,67
 866 378 866 378 920 526 c 0,68,69
 965 657 965 657 1007 714 c 1,70,-1
 894 718 l 2,71,72
 748 722 748 722 595 738 c 0,73,74
 567 741 567 741 548 741 c 0,75,76
 457 741 457 741 364 666 c 0,77,78
 258 580 258 580 235 459 c 0,79,80
 230 431 230 431 230 403 c 0,60,61
EndSplineSet
Validated: 1
Substitution2: "Single Substitution lookup 48 subtable" wilya.nofin
Substitution2: "Single Substitution lookup 47 subtable" wilya.nofin
Substitution2: "Single Substitution lookup 46 subtable" wilya.nofin
Substitution2: "Single Substitution lookup 45 subtable" wilya.nofin
Substitution2: "Single Substitution lookup 44 subtable" wilya.nofin
EndChar

StartChar: tinco_ext
Encoding: 98 57368 28
Width: 1259
Flags: W
AnchorPoint: "tehta_contact_up" 335 700 basechar 0
AnchorPoint: "tehta_contact_down" 580 100 basechar 0
AnchorPoint: "shook" 580 100 basechar 0
AnchorPoint: "TehtaBelow" 436 -250 basechar 0
AnchorPoint: "Inside" 701 450 basechar 0
AnchorPoint: "TehtaAbove" 1029 1200 basechar 0
LayerCount: 2
Fore
SplineSet
-1642 -2254 m 0,0,1
 -1657 -2254 -1657 -2254 -1657 -2241 c 0,2,3
 -1657 -2204 -1657 -2204 -1573 -2131 c 2,4,-1
 -1519 -2081 l 2,5,6
 -1458 -2027 -1458 -2027 -1317 -1886 c 2,7,-1
 -1162 -1727 l 1,8,9
 -510 -1035 -510 -1035 -113 -235 c 0,10,11
 -57 -121 -57 -121 -6 -6 c 0,12,13
 66 155 66 155 153 403 c 2,14,-1
 375 1039 l 2,15,16
 627 1768 627 1768 911 2139 c 0,17,18
 1023 2286 1023 2286 1179 2425 c 0,19,20
 1239 2479 1239 2479 1278 2479 c 0,21,22
 1289 2477 1289 2477 1289 2465 c 0,23,24
 1289 2437 1289 2437 1216 2365 c 0,25,26
 1138 2288 1138 2288 1125 2274 c 0,27,28
 895 2023 895 2023 706 1575 c 1,29,-1
 642 1415 l 2,30,31
 590 1281 590 1281 482 964 c 2,32,-1
 358 607 l 1,33,-1
 354 597 l 1,34,35
 496 739 496 739 642 820 c 0,36,37
 766 888 766 888 860 888 c 0,38,39
 1003 888 1003 888 1091 784 c 0,40,41
 1167 694 1167 694 1169 562 c 0,42,43
 1171 384 1171 384 1030 217 c 0,44,45
 991 172 991 172 945 132 c 0,46,47
 776 -13 776 -13 620 -16 c 0,48,49
 460 -18 460 -18 460 90 c 0,50,51
 460 125 460 125 488 165 c 0,52,53
 528 221 528 221 597 221 c 0,54,55
 642 221 642 221 673 188 c 0,56,57
 700 160 700 160 715 153 c 0,58,59
 733 144 733 144 759 144 c 0,60,61
 917 144 917 144 972 292 c 0,62,63
 994 351 994 351 995 421 c 0,64,65
 997 571 997 571 893 662 c 0,66,67
 831 715 831 715 757 726 c 0,68,69
 745 728 745 728 722 728 c 0,70,71
 647 728 647 728 542 662 c 0,72,73
 364 551 364 551 263 338 c 0,74,75
 244 300 244 300 218 232 c 2,76,-1
 191 163 l 1,77,78
 -42 -406 -42 -406 -484 -1024 c 0,79,80
 -601 -1187 -601 -1187 -719 -1333 c 2,81,-1
 -833 -1470 l 1,82,-1
 -1066 -1731 l 1,83,-1
 -1110 -1777 l 1,84,85
 -1200 -1877 -1200 -1877 -1449 -2110 c 2,86,-1
 -1560 -2212 l 2,87,88
 -1610 -2254 -1610 -2254 -1642 -2254 c 0,0,1
EndSplineSet
Validated: 33
Substitution2: "Single Substitution lookup 48 subtable" tinco_ext.nofin
Substitution2: "Single Substitution lookup 47 subtable" tinco_ext.nofin
Substitution2: "Single Substitution lookup 46 subtable" tinco_ext.nofin
Substitution2: "Single Substitution lookup 45 subtable" tinco_ext.nofin
Substitution2: "Single Substitution lookup 44 subtable" tinco_ext.nofin
EndChar

StartChar: parma_ext
Encoding: 99 57369 29
Width: 1302
Flags: W
AnchorPoint: "tehta_contact_up" 335 700 basechar 0
AnchorPoint: "tehta_contact_down" 836 100 basechar 0
AnchorPoint: "shook" 1140 100 basechar 0
AnchorPoint: "TehtaBelow" 436 -250 basechar 0
AnchorPoint: "Inside" 701 450 basechar 0
AnchorPoint: "TehtaAbove" 1029 1200 basechar 0
LayerCount: 2
Fore
SplineSet
-1642 -2254 m 0,0,1
 -1657 -2254 -1657 -2254 -1657 -2241 c 0,2,3
 -1657 -2204 -1657 -2204 -1573 -2131 c 2,4,-1
 -1519 -2081 l 2,5,6
 -1418 -1991 -1418 -1991 -1237 -1806 c 1,7,-1
 -1067 -1624 l 1,8,9
 -425 -915 -425 -915 -43 -88 c 1,10,-1
 2 11 l 1,11,-1
 112 289 l 1,12,13
 196 514 196 514 299 817 c 2,14,-1
 375 1039 l 2,15,16
 627 1768 627 1768 911 2139 c 0,17,18
 1023 2286 1023 2286 1179 2425 c 0,19,20
 1239 2479 1239 2479 1278 2479 c 0,21,22
 1289 2477 1289 2477 1289 2465 c 0,23,24
 1289 2437 1289 2437 1216 2365 c 0,25,26
 1138 2288 1138 2288 1125 2274 c 0,27,28
 895 2023 895 2023 706 1575 c 1,29,-1
 642 1415 l 2,30,31
 591 1281 591 1281 467 920 c 2,32,-1
 370 641 l 1,33,-1
 355 596 l 1,34,-1
 355 596 l 1,35,36
 355 604 355 604 488 711 c 0,37,38
 520 737 520 737 537 749 c 0,39,40
 711 875 711 875 836 886 c 0,41,42
 854 888 854 888 875 888 c 0,43,44
 894 888 894 888 903 887 c 0,45,46
 954 887 954 887 1021 847 c 0,47,48
 1148 773 1148 773 1161 634 c 0,49,50
 1162 620 1162 620 1162 604 c 0,51,52
 1162 510 1162 510 1096 390 c 0,53,54
 1025 262 1025 262 903 161 c 1,55,-1
 909 161 l 1,56,57
 939 157 939 157 1021 157 c 0,58,59
 1227 157 1227 157 1340 238 c 2,60,-1
 1403 285 l 2,61,62
 1424 298 1424 298 1444 298 c 2,63,-1
 1448 298 l 2,64,65
 1461 298 1461 298 1461 283 c 0,66,67
 1461 252 1461 252 1400 194 c 0,68,69
 1284 86 1284 86 1104 40 c 0,70,71
 1002 14 1002 14 892 14 c 0,72,73
 806 14 806 14 638 32 c 0,74,75
 511 45 511 45 395 45 c 0,76,77
 278 45 278 45 124 12 c 1,78,-1
 112 -14 l 2,79,80
 -211 -706 -211 -706 -719 -1333 c 1,81,-1
 -833 -1470 l 1,82,-1
 -1066 -1731 l 1,83,-1
 -1110 -1777 l 1,84,85
 -1200 -1877 -1200 -1877 -1449 -2110 c 2,86,-1
 -1560 -2212 l 2,87,88
 -1610 -2254 -1610 -2254 -1642 -2254 c 0,0,1
527 189 m 1,89,-1
 678 186 l 2,90,91
 793 186 793 186 859 220 c 0,92,93
 872 227 872 227 882 235 c 0,94,95
 940 286 940 286 970 367 c 0,96,97
 989 419 989 419 988 470 c 0,98,99
 984 609 984 609 883 681 c 0,100,101
 815 729 815 729 725 729 c 0,102,103
 643 729 643 729 535 658 c 0,104,105
 411 578 411 578 319 437 c 0,106,107
 281 381 281 381 252 317 c 2,108,-1
 213 220 l 1,109,-1
 182 146 l 1,110,-1
 182 142 l 1,111,112
 337 187 337 187 527 189 c 1,89,-1
EndSplineSet
Validated: 37
Substitution2: "Single Substitution lookup 48 subtable" parma_ext.nofin
Substitution2: "Single Substitution lookup 47 subtable" parma_ext.nofin
Substitution2: "Single Substitution lookup 46 subtable" parma_ext.nofin
Substitution2: "Single Substitution lookup 45 subtable" parma_ext.nofin
Substitution2: "Single Substitution lookup 44 subtable" parma_ext.nofin
EndChar

StartChar: calma_ext
Encoding: 100 57370 30
Width: 1245
Flags: W
AnchorPoint: "tehta_contact_up" 330 700 basechar 0
AnchorPoint: "tehta_contact_down" 360 50 basechar 0
AnchorPoint: "shook" 880 100 basechar 0
AnchorPoint: "TehtaBelow" 256 -250 basechar 0
AnchorPoint: "Inside" 581 450 basechar 0
AnchorPoint: "TehtaAbove" 812 1200 basechar 0
LayerCount: 2
Fore
SplineSet
267 446 m 0,0,1
 267 312 267 312 353 225 c 0,2,3
 432 144 432 144 548 144 c 128,-1,4
 664 144 664 144 802 274 c 0,5,6
 830 301 830 301 850 325 c 0,7,8
 902 387 902 387 933 455 c 0,9,10
 973 541 973 541 1084 869 c 0,11,12
 1204 1221 1204 1221 1213 1245 c 0,13,14
 1431 1847 1431 1847 1707 2218 c 0,15,16
 1794 2335 1794 2335 1888 2433 c 0,17,18
 2053 2605 2053 2605 2104 2605 c 0,19,20
 2120 2605 2120 2605 2120 2591 c 0,21,22
 2120 2561 2120 2561 2048 2490 c 0,23,24
 1972 2416 1972 2416 1960 2404 c 0,25,26
 1645 2063 1645 2063 1390 1370 c 0,27,28
 1363 1296 1363 1296 1265 1009 c 2,29,-1
 1118 587 l 1,30,31
 981 209 981 209 904 40 c 0,32,33
 833 -116 833 -116 736 -285 c 0,34,35
 430 -825 430 -825 -106 -1394 c 2,36,-1
 -157 -1448 l 2,37,38
 -215 -1511 -215 -1511 -399 -1689 c 2,39,-1
 -747 -2016 l 1,40,41
 -829 -2086 -829 -2086 -853 -2097 c 0,42,43
 -866 -2102 -866 -2102 -879 -2102 c 2,44,-1
 -884 -2102 l 2,45,46
 -892 -2102 -892 -2102 -893 -2090 c 0,47,48
 -894 -2061 -894 -2061 -835 -2003 c 2,49,-1
 -553 -1742 l 2,50,51
 -517 -1706 -517 -1706 -490 -1682 c 2,52,-1
 -255 -1447 l 2,53,54
 -137 -1329 -137 -1329 48 -1112 c 0,55,56
 150 -991 150 -991 231 -886 c 0,57,58
 619 -378 619 -378 815 123 c 1,59,-1
 854 226 l 1,60,-1
 752 141 l 1,61,62
 568 -3 568 -3 423 -15 c 0,63,64
 414 -16 414 -16 398 -16 c 0,65,66
 265 -16 265 -16 177 82 c 0,67,68
 93 176 93 176 93 312 c 0,69,70
 93 492 93 492 233 659 c 0,71,72
 345 793 345 793 492 855 c 0,73,74
 572 888 572 888 640 888 c 2,75,-1
 655 888 l 2,76,77
 775 888 775 888 800 809 c 0,78,79
 804 793 804 793 804 776 c 0,80,81
 804 706 804 706 743 666 c 0,82,83
 707 642 707 642 669 642 c 0,84,85
 627 642 627 642 587 682 c 0,86,87
 555 716 555 716 541 722 c 0,88,89
 528 728 528 728 514 728 c 2,90,-1
 501 728 l 2,91,92
 346 728 346 728 290 581 c 0,93,94
 267 519 267 519 267 446 c 0,0,1
EndSplineSet
Validated: 33
EndChar

StartChar: quesse_ext
Encoding: 101 57371 31
Width: 1350
Flags: W
AnchorPoint: "tehta_contact_up" 446 700 basechar 0
AnchorPoint: "tehta_contact_down" 396 50 basechar 0
AnchorPoint: "shook" 906 100 basechar 0
AnchorPoint: "TehtaBelow" 292 -250 basechar 0
AnchorPoint: "Inside" 617 450 basechar 0
AnchorPoint: "TehtaAbove" 835 1200 basechar 0
LayerCount: 2
Fore
SplineSet
445 906 m 0,0,1
 532 906 532 906 699 883 c 0,2,3
 838 864 838 864 945 864 c 0,4,5
 1019 864 1019 864 1121 873 c 1,6,-1
 1138 922 l 2,7,8
 1254 1264 1254 1264 1316 1419 c 0,9,10
 1627 2198 1627 2198 2057 2561 c 0,11,12
 2106 2603 2106 2603 2140 2605 c 0,13,14
 2156 2605 2156 2605 2156 2591 c 0,15,16
 2156 2561 2156 2561 2084 2490 c 0,17,18
 2008 2417 2008 2417 1996 2404 c 0,19,20
 1720 2105 1720 2105 1504 1568 c 0,21,22
 1449 1432 1449 1432 1238 830 c 0,23,24
 1051 295 1051 295 972 112 c 0,25,26
 653 -618 653 -618 -28 -1349 c 1,27,-1
 -121 -1448 l 2,28,29
 -179 -1511 -179 -1511 -363 -1689 c 2,30,-1
 -711 -2016 l 1,31,32
 -793 -2086 -793 -2086 -817 -2097 c 0,33,34
 -830 -2102 -830 -2102 -843 -2102 c 2,35,-1
 -848 -2102 l 2,36,37
 -856 -2102 -856 -2102 -857 -2090 c 0,38,39
 -858 -2061 -858 -2061 -799 -2003 c 2,40,-1
 -517 -1742 l 2,41,42
 -481 -1706 -481 -1706 -454 -1682 c 2,43,-1
 -219 -1447 l 2,44,45
 -101 -1329 -101 -1329 84 -1112 c 0,46,47
 186 -991 186 -991 267 -886 c 0,48,49
 596 -455 596 -455 793 -13 c 0,50,51
 839 91 839 91 879 197 c 0,52,53
 892 229 892 229 892 230 c 1,54,55
 890 230 890 230 873 214 c 0,56,57
 629 -5 629 -5 444 -16 c 1,58,-1
 427 -16 l 2,59,60
 305 -16 305 -16 220 66 c 128,-1,61
 135 148 135 148 135 272 c 0,62,63
 135 376 135 376 213 504 c 0,64,65
 300 644 300 644 448 755 c 1,66,67
 448 760 448 760 357 762 c 2,68,-1
 325 762 l 2,69,70
 95 762 95 762 -53 660 c 1,71,-1
 -139 597 l 2,72,73
 -160 584 -160 584 -180 582 c 0,74,75
 -197 582 -197 582 -197 598 c 0,76,77
 -197 629 -197 629 -127 693 c 0,78,79
 -3 806 -3 806 176 864 c 0,80,81
 258 890 258 890 341 900 c 0,82,83
 388 906 388 906 445 906 c 0,0,1
1075 738 m 1,84,85
 960 723 960 723 831 721 c 0,86,87
 781 721 781 721 662 730 c 0,88,89
 646 731 646 731 635 731 c 0,90,91
 500 731 500 731 402 624 c 0,92,93
 321 535 321 535 311 427 c 0,94,95
 310 415 310 415 310 403 c 0,96,97
 310 283 310 283 400 207 c 0,98,99
 474 144 474 144 572 144 c 0,100,101
 650 144 650 144 750 206 c 0,102,103
 917 311 917 311 996 513 c 1,104,-1
 1075 738 l 1,84,85
EndSplineSet
Validated: 33
EndChar

StartChar: ando_ext
Encoding: 102 57372 32
Width: 1804
Flags: W
AnchorPoint: "shook" 1210 100 basechar 0
AnchorPoint: "tehta_contact_down" 1210 100 basechar 0
AnchorPoint: "tehta_contact_up" 285 700 basechar 0
AnchorPoint: "TehtaBelow" 736 -250 basechar 0
AnchorPoint: "Inside" 591 450 basechar 0
AnchorPoint: "TehtaAbove" 1209 1200 basechar 0
LayerCount: 2
Fore
SplineSet
-1692 -2254 m 0,0,1
 -1707 -2254 -1707 -2254 -1707 -2241 c 0,2,3
 -1707 -2204 -1707 -2204 -1623 -2131 c 2,4,-1
 -1569 -2081 l 2,5,6
 -1508 -2027 -1508 -2027 -1367 -1886 c 2,7,-1
 -1212 -1727 l 1,8,9
 -560 -1035 -560 -1035 -163 -235 c 0,10,11
 -107 -121 -107 -121 -56 -6 c 0,12,13
 16 155 16 155 103 403 c 2,14,-1
 325 1039 l 2,15,16
 577 1768 577 1768 861 2139 c 0,17,18
 973 2286 973 2286 1129 2425 c 0,19,20
 1189 2479 1189 2479 1228 2479 c 0,21,22
 1239 2477 1239 2477 1239 2465 c 0,23,24
 1239 2437 1239 2437 1166 2365 c 0,25,26
 1088 2288 1088 2288 1075 2274 c 0,27,28
 845 2023 845 2023 656 1575 c 1,29,-1
 592 1415 l 2,30,31
 564 1343 564 1343 417 920 c 2,32,-1
 315 627 l 1,33,-1
 422 725 l 1,34,35
 610 888 610 888 755 888 c 0,36,37
 890 888 890 888 968 768 c 0,38,39
 1016 696 1016 696 1028 599 c 1,40,41
 1291 888 1291 888 1493 888 c 0,42,43
 1624 888 1624 888 1707 759 c 0,44,45
 1730 723 1730 723 1741 690 c 0,46,47
 1762 628 1762 628 1762 560 c 0,48,49
 1762 404 1762 404 1644 240 c 0,50,51
 1541 98 1541 98 1405 28 c 0,52,53
 1355 2 1355 2 1307 -9 c 0,54,55
 1280 -15 1280 -15 1242 -16 c 0,56,57
 1092 -6 1092 -6 1084 89 c 0,58,59
 1084 134 1084 134 1115 173 c 0,60,61
 1151 219 1151 219 1217 221 c 0,62,63
 1265 222 1265 222 1297 189 c 0,64,65
 1325 161 1325 161 1336 155 c 0,66,67
 1355 144 1355 144 1383 144 c 0,68,69
 1471 144 1471 144 1511 197 c 0,70,71
 1584 293 1584 293 1588 418 c 1,72,-1
 1588 429 l 2,73,74
 1588 576 1588 576 1488 668 c 0,75,76
 1461 693 1461 693 1435 706 c 0,77,78
 1390 729 1390 729 1345 729 c 0,79,80
 1201 729 1201 729 1071 520 c 0,81,82
 1057 498 1057 498 996 380 c 0,83,84
 917 230 917 230 824 140 c 2,85,-1
 800 118 l 2,86,87
 647 -17 647 -17 505 -17 c 0,88,89
 381 -17 381 -17 355 57 c 0,90,91
 350 71 350 71 350 87 c 0,92,93
 350 154 350 154 408 195 c 0,94,95
 445 221 445 221 484 221 c 0,96,97
 531 221 531 221 563 188 c 0,98,99
 591 160 591 160 604 153 c 0,100,101
 624 144 624 144 651 144 c 0,102,103
 753 144 753 144 803 232 c 0,104,105
 813 251 813 251 824 277 c 0,106,107
 855 354 855 354 855 432 c 0,108,109
 855 609 855 609 727 690 c 0,110,111
 667 728 667 728 614 728 c 2,112,-1
 606 728 l 2,113,114
 533 728 533 728 436 647 c 0,115,116
 318 548 318 548 228 371 c 0,117,118
 203 320 203 320 168 232 c 2,119,-1
 141 163 l 1,120,121
 -92 -406 -92 -406 -534 -1024 c 0,122,123
 -651 -1187 -651 -1187 -769 -1333 c 2,124,-1
 -883 -1470 l 1,125,-1
 -1116 -1731 l 1,126,-1
 -1160 -1777 l 1,127,128
 -1250 -1877 -1250 -1877 -1499 -2110 c 2,129,-1
 -1610 -2212 l 2,130,131
 -1660 -2254 -1660 -2254 -1692 -2254 c 0,0,1
EndSplineSet
Validated: 33
Substitution2: "Single Substitution lookup 48 subtable" ando_ext.nofin
Substitution2: "Single Substitution lookup 47 subtable" ando_ext.nofin
Substitution2: "Single Substitution lookup 46 subtable" ando_ext.nofin
Substitution2: "Single Substitution lookup 45 subtable" ando_ext.nofin
Substitution2: "Single Substitution lookup 44 subtable" ando_ext.nofin
EndChar

StartChar: umbar_ext
Encoding: 103 57373 33
Width: 1870
Flags: W
AnchorPoint: "tehta_contact_up" 255 700 basechar 0
AnchorPoint: "tehta_contact_down" 776 100 basechar 0
AnchorPoint: "shook" 1620 100 basechar 0
AnchorPoint: "TehtaBelow" 706 -250 basechar 0
AnchorPoint: "Inside" 561 450 basechar 0
AnchorPoint: "TehtaAbove" 1179 1200 basechar 0
LayerCount: 2
Fore
SplineSet
-1722 -2254 m 0,0,1
 -1737 -2254 -1737 -2254 -1737 -2241 c 0,2,3
 -1737 -2204 -1737 -2204 -1653 -2131 c 2,4,-1
 -1599 -2081 l 2,5,6
 -1498 -1991 -1498 -1991 -1317 -1806 c 1,7,-1
 -1147 -1624 l 1,8,9
 -505 -915 -505 -915 -123 -88 c 1,10,-1
 -78 11 l 1,11,-1
 32 289 l 1,12,13
 116 514 116 514 219 817 c 2,14,-1
 295 1039 l 2,15,16
 547 1768 547 1768 831 2139 c 0,17,18
 943 2286 943 2286 1099 2425 c 0,19,20
 1159 2479 1159 2479 1198 2479 c 0,21,22
 1209 2477 1209 2477 1209 2465 c 0,23,24
 1209 2437 1209 2437 1136 2365 c 0,25,26
 1058 2288 1058 2288 1045 2274 c 0,27,28
 815 2023 815 2023 626 1575 c 1,29,-1
 562 1415 l 2,30,31
 510 1281 510 1281 358 834 c 1,32,-1
 285 626 l 1,33,34
 286 626 286 626 295 635 c 0,35,36
 448 785 448 785 565 844 c 0,37,38
 655 888 655 888 733 888 c 0,39,40
 856 888 856 888 934 787 c 0,41,42
 990 714 990 714 997 626 c 0,43,44
 998 615 998 615 999 615 c 2,45,-1
 1054 672 l 2,46,47
 1084 699 1084 699 1122 731 c 0,48,49
 1304 881 1304 881 1436 888 c 1,50,-1
 1453 888 l 2,51,52
 1564 888 1564 888 1640 807 c 0,53,54
 1716 725 1716 725 1716 600 c 0,55,56
 1716 448 1716 448 1600 295 c 0,57,58
 1551 232 1551 232 1475 156 c 1,59,-1
 1489 156 l 1,60,-1
 1503 156 l 2,61,62
 1796 156 1796 156 1921 246 c 0,63,64
 1929 252 1929 252 1937 259 c 0,65,66
 1982 298 1982 298 2013 298 c 2,67,-1
 2017 298 l 2,68,69
 2030 298 2030 298 2030 284 c 0,70,71
 2030 252 2030 252 1972 196 c 0,72,73
 1857 87 1857 87 1666 41 c 0,74,75
 1609 27 1609 27 1548 21 c 0,76,77
 1473 13 1473 13 1379 13 c 0,78,79
 1232 13 1232 13 962 33 c 0,80,81
 780 46 780 46 635 46 c 2,82,-1
 600 46 l 2,83,84
 297 46 297 46 42 2 c 0,85,86
 39 1 39 1 16 -48 c 0,87,88
 -35 -159 -35 -159 -121 -319 c 0,89,90
 -348 -742 -348 -742 -647 -1135 c 2,91,-1
 -799 -1333 l 1,92,-1
 -913 -1470 l 1,93,-1
 -1146 -1731 l 1,94,-1
 -1190 -1777 l 1,95,96
 -1280 -1877 -1280 -1877 -1529 -2110 c 2,97,-1
 -1640 -2212 l 2,98,99
 -1690 -2254 -1690 -2254 -1722 -2254 c 0,0,1
824 462 m 0,100,101
 824 626 824 626 694 697 c 0,102,103
 636 729 636 729 587 729 c 0,104,105
 506 729 506 729 418 654 c 0,106,107
 401 639 401 639 377 617 c 0,108,109
 255 500 255 500 173 316 c 0,110,111
 159 285 159 285 146 252 c 2,112,-1
 103 144 l 2,113,114
 100 137 100 137 100 136 c 2,115,-1
 100 135 l 1,116,117
 171 156 171 156 457 178 c 0,118,119
 663 193 663 193 703 206 c 0,120,121
 722 212 722 212 728 219 c 0,122,123
 815 318 815 318 823 443 c 0,124,125
 824 453 824 453 824 462 c 0,100,101
1542 464 m 2,126,127
 1542 629 1542 629 1412 699 c 0,128,129
 1356 729 1356 729 1307 729 c 0,130,131
 1297 729 1297 729 1292 728 c 0,132,133
 1187 728 1187 728 1083 595 c 0,134,135
 1047 549 1047 549 950 395 c 0,136,137
 866 261 866 261 809 200 c 0,138,139
 801 192 801 192 801 191 c 0,140,141
 815 188 815 188 835 189 c 2,142,-1
 836 189 l 2,143,144
 945 187 945 187 1163 170 c 0,145,146
 1206 166 1206 166 1229 166 c 0,147,148
 1239 165 1239 165 1259 165 c 0,149,150
 1381 165 1381 165 1438 218 c 0,151,152
 1444 223 1444 223 1449 229 c 0,153,154
 1534 325 1534 325 1542 444 c 1,155,-1
 1542 464 l 2,126,127
EndSplineSet
Validated: 1
Substitution2: "Single Substitution lookup 48 subtable" umbar_ext.nofin
Substitution2: "Single Substitution lookup 47 subtable" umbar_ext.nofin
Substitution2: "Single Substitution lookup 46 subtable" umbar_ext.nofin
Substitution2: "Single Substitution lookup 45 subtable" umbar_ext.nofin
Substitution2: "Single Substitution lookup 44 subtable" umbar_ext.nofin
EndChar

StartChar: anga_ext
Encoding: 104 57374 34
Width: 1773
Flags: W
AnchorPoint: "tehta_contact_up" 270 700 basechar 0
AnchorPoint: "tehta_contact_down" 1000 50 basechar 0
AnchorPoint: "shook" 1450 100 basechar 0
AnchorPoint: "TehtaBelow" 616 -250 basechar 0
AnchorPoint: "Inside" 1191 450 basechar 0
AnchorPoint: "TehtaAbove" 1009 1200 basechar 0
LayerCount: 2
Fore
SplineSet
1305 642 m 0,0,1
 1261 642 1261 642 1228 678 c 0,2,3
 1198 709 1198 709 1186 716 c 0,4,5
 1165 729 1165 729 1137 729 c 0,6,7
 1043 729 1043 729 996 661 c 0,8,9
 984 643 984 643 970 614 c 0,10,11
 931 531 931 531 931 443 c 0,12,13
 931 322 931 322 1002 233 c 0,14,15
 1031 196 1031 196 1069 174 c 0,16,17
 1121 143 1121 143 1177 143 c 0,18,19
 1292 143 1292 143 1408 287 c 0,20,21
 1488 387 1488 387 1537 518 c 2,22,-1
 1659 869 l 2,23,24
 1776 1214 1776 1214 1807 1297 c 0,25,26
 2051 1953 2051 1953 2378 2338 c 0,27,28
 2420 2387 2420 2387 2463 2433 c 0,29,30
 2627 2605 2627 2605 2679 2605 c 0,31,32
 2695 2605 2695 2605 2695 2591 c 0,33,34
 2695 2560 2695 2560 2621 2488 c 0,35,36
 2547 2417 2547 2417 2535 2404 c 0,37,38
 2259 2105 2259 2105 2046 1579 c 2,39,-1
 2038 1559 l 2,40,41
 1955 1350 1955 1350 1839 1009 c 2,42,-1
 1693 587 l 1,43,44
 1556 209 1556 209 1479 40 c 0,45,46
 1408 -116 1408 -116 1311 -285 c 0,47,48
 918 -974 918 -974 166 -1699 c 1,49,-1
 -172 -2016 l 1,50,51
 -258 -2089 -258 -2089 -283 -2099 c 0,52,53
 -293 -2102 -293 -2102 -305 -2102 c 2,54,-1
 -309 -2102 l 2,55,56
 -316 -2102 -316 -2102 -318 -2090 c 0,57,58
 -318 -2058 -318 -2058 -250 -1993 c 2,59,-1
 84 -1682 l 1,60,61
 542 -1250 542 -1250 884 -779 c 0,62,63
 1218 -321 1218 -321 1380 100 c 2,64,-1
 1417 194 l 1,65,66
 1327 104 1327 104 1217 42 c 0,67,68
 1133 -5 1133 -5 1065 -15 c 1,69,-1
 1032 -16 l 1,70,-1
 1031 -16 l 2,71,72
 913 -16 913 -16 836 79 c 0,73,74
 787 139 787 139 764 232 c 1,75,-1
 749 217 l 2,76,77
 604 72 604 72 459 14 c 0,78,79
 383 -16 383 -16 316 -16 c 0,80,81
 205 -16 205 -16 127 73 c 0,82,83
 43 168 43 168 43 317 c 0,84,85
 43 462 43 462 151 620 c 0,86,87
 253 768 253 768 391 841 c 0,88,89
 482 889 482 889 568 889 c 0,90,91
 678 889 678 889 713 827 c 0,92,93
 725 805 725 805 725 775 c 0,94,95
 725 709 725 709 666 667 c 0,96,97
 630 642 630 642 594 642 c 0,98,99
 547 642 547 642 512 678 c 0,100,101
 483 709 483 709 473 716 c 0,102,103
 452 729 452 729 423 729 c 0,104,105
 331 729 331 729 285 664 c 0,106,107
 272 647 272 647 258 618 c 0,108,109
 217 531 217 531 217 443 c 0,110,111
 217 292 217 292 322 199 c 0,112,113
 349 176 349 176 375 163 c 0,114,115
 417 143 417 143 463 143 c 0,116,117
 556 143 556 143 641 213 c 0,118,119
 736 290 736 290 771 425 c 0,120,121
 807 562 807 562 924 694 c 0,122,123
 1054 839 1054 839 1199 877 c 0,124,125
 1240 888 1240 888 1280 888 c 0,126,127
 1439 888 1439 888 1440 773 c 0,128,129
 1440 707 1440 707 1378 666 c 0,130,131
 1342 642 1342 642 1305 642 c 0,0,1
EndSplineSet
Validated: 1
EndChar

StartChar: ungwe_ext
Encoding: 105 57375 35
Width: 1883
Flags: W
AnchorPoint: "tehta_contact_up" 407 700 basechar 0
AnchorPoint: "tehta_contact_down" 1117 50 basechar 0
AnchorPoint: "shook" 1557 100 basechar 0
AnchorPoint: "TehtaBelow" 743 -250 basechar 0
AnchorPoint: "Inside" 1318 450 basechar 0
AnchorPoint: "TehtaAbove" 1136 1200 basechar 0
LayerCount: 2
Fore
SplineSet
1396 861 m 0,0,1
 1573 861 1573 861 1706 874 c 0,2,3
 1726 876 1726 876 1743 876 c 2,4,-1
 1753 877 l 1,5,-1
 1770 924 l 1,6,7
 1888 1273 1888 1273 1957 1445 c 0,8,9
 2264 2204 2264 2204 2688 2561 c 0,10,11
 2737 2603 2737 2603 2771 2605 c 0,12,13
 2787 2605 2787 2605 2787 2591 c 0,14,15
 2787 2561 2787 2561 2715 2490 c 0,16,17
 2639 2417 2639 2417 2627 2404 c 0,18,19
 2349 2103 2349 2103 2131 1559 c 0,20,21
 2083 1439 2083 1439 1869 830 c 0,22,23
 1682 295 1682 295 1603 112 c 0,24,25
 1280 -627 1280 -627 589 -1364 c 2,26,-1
 510 -1448 l 2,27,28
 452 -1511 452 -1511 268 -1689 c 2,29,-1
 -80 -2016 l 1,30,31
 -162 -2086 -162 -2086 -186 -2097 c 0,32,33
 -199 -2102 -199 -2102 -212 -2102 c 2,34,-1
 -217 -2102 l 2,35,36
 -226 -2102 -226 -2102 -226 -2090 c 0,37,38
 -227 -2055 -227 -2055 -166 -1999 c 2,39,-1
 -49 -1894 l 1,40,-1
 114 -1742 l 2,41,42
 150 -1706 150 -1706 177 -1682 c 2,43,-1
 412 -1447 l 2,44,45
 530 -1329 530 -1329 715 -1112 c 0,46,47
 817 -991 817 -991 898 -886 c 0,48,49
 1243 -434 1243 -434 1440 24 c 0,50,51
 1471 96 1471 96 1499 168 c 2,52,-1
 1510 196 l 1,53,54
 1509 196 1509 196 1457 151 c 0,55,56
 1265 -16 1265 -16 1118 -16 c 0,57,58
 956 -16 956 -16 882 140 c 0,59,60
 871 164 871 164 853 224 c 1,61,-1
 837 208 l 2,62,63
 704 79 704 79 566 20 c 0,64,65
 482 -16 482 -16 411 -16 c 0,66,67
 294 -16 294 -16 217 70 c 0,68,69
 143 153 143 153 143 277 c 0,70,71
 143 424 143 424 263 583 c 0,72,73
 322 662 322 662 431 757 c 1,74,-1
 442 766 l 1,75,-1
 415 766 l 1,76,77
 82 756 82 756 -69 626 c 0,78,79
 -119 583 -119 583 -151 583 c 0,80,81
 -167 583 -167 583 -167 598 c 0,82,83
 -167 631 -167 631 -100 691 c 0,84,85
 27 806 27 806 238 865 c 0,86,87
 396 909 396 909 575 909 c 0,88,89
 681 909 681 909 955 884 c 0,90,91
 1211 861 1211 861 1396 861 c 0,0,1
1081 722 m 1,92,-1
 606 760 l 1,93,94
 550 760 550 760 473 702 c 0,95,96
 360 617 360 617 328 492 c 0,97,98
 317 451 317 451 317 408 c 0,99,100
 317 243 317 243 448 174 c 0,101,102
 505 144 505 144 556 144 c 0,103,104
 649 144 649 144 745 220 c 0,105,106
 767 237 767 237 780 252 c 0,107,108
 833 312 833 312 869 402 c 0,109,110
 906 497 906 497 934 542 c 0,111,112
 986 627 986 627 1090 722 c 1,113,-1
 1081 722 l 1,92,-1
1023 414 m 0,114,115
 1023 245 1023 245 1154 175 c 0,116,117
 1212 143 1212 143 1262 143 c 0,118,119
 1376 143 1376 143 1494 284 c 0,120,121
 1579 386 1579 386 1628 515 c 2,122,-1
 1696 707 l 1,123,-1
 1707 740 l 1,124,-1
 1707 741 l 1,125,-1
 1533 725 l 2,126,127
 1460 721 1460 721 1361 719 c 0,128,129
 1250 716 1250 716 1215 707 c 0,130,131
 1132 687 1132 687 1078 598 c 0,132,133
 1026 511 1026 511 1023 414 c 0,114,115
EndSplineSet
Validated: 33
EndChar

StartChar: roomen
Encoding: 106 57376 36
Width: 984
Flags: W
AnchorPoint: "TehtaBelow" -1 -250 basechar 0
AnchorPoint: "tehta_contact_up" 265 700 basechar 0
AnchorPoint: "tehta_contact_down" 0 800 basechar 0
AnchorPoint: "shook" 840 800 basechar 0
AnchorPoint: "Inside" 581 450 basechar 0
AnchorPoint: "TehtaAbove" 629 1200 basechar 0
LayerCount: 2
Fore
SplineSet
369 740 m 1,0,1
 423 794 423 794 522 845 c 0,2,3
 639 906 639 906 733 906 c 0,4,5
 882 906 882 906 912 807 c 0,6,7
 921 777 921 777 921 734 c 0,8,9
 921 524 921 524 609 -6 c 0,10,11
 132 -815 132 -815 -702 -1602 c 2,12,-1
 -841 -1733 l 2,13,14
 -938 -1819 -938 -1819 -978 -1819 c 0,15,16
 -991 -1819 -991 -1819 -991 -1806 c 0,17,18
 -991 -1772 -991 -1772 -900 -1690 c 0,19,20
 -35 -908 -35 -908 448 -91 c 1,21,-1
 463 -66 l 1,22,23
 351 36 351 36 288 257 c 1,24,-1
 218 530 l 1,25,26
 175 673 175 673 109 712 c 0,27,28
 100 718 100 718 89 722 c 0,29,30
 70 728 70 728 55 728 c 2,31,-1
 46 728 l 2,32,33
 -19 728 -19 728 -89 679 c 0,34,35
 -134 647 -134 647 -151 645 c 0,36,37
 -154 644 -154 644 -158 644 c 0,38,39
 -174 644 -174 644 -174 657 c 0,40,41
 -174 699 -174 699 -94 766 c 0,42,43
 9 852 9 852 122 879 c 0,44,45
 158 888 158 888 190 888 c 0,46,47
 289 888 289 888 349 781 c 0,48,49
 359 763 359 763 369 740 c 1,0,1
747 604 m 0,50,51
 747 725 747 725 632 743 c 0,52,53
 608 746 608 746 579 746 c 0,54,55
 489 747 489 747 394 669 c 1,56,57
 474 338 474 338 516 244 c 0,58,59
 541 189 541 189 579 141 c 1,60,61
 629 217 629 217 691 383 c 0,62,63
 747 534 747 534 747 604 c 0,50,51
EndSplineSet
Validated: 33
EndChar

StartChar: arda
Encoding: 107 57377 37
Width: 993
Flags: W
AnchorPoint: "tehta_contact_down" 0 800 basechar 0
AnchorPoint: "TehtaBelow" -244 -250 basechar 0
AnchorPoint: "tehta_contact_up" 265 700 basechar 0
AnchorPoint: "shook" 840 800 basechar 0
AnchorPoint: "Inside" 581 450 basechar 0
AnchorPoint: "TehtaAbove" 629 1200 basechar 0
LayerCount: 2
Fore
SplineSet
369 740 m 1,0,1
 423 794 423 794 522 845 c 0,2,3
 639 906 639 906 733 906 c 0,4,5
 882 906 882 906 912 807 c 0,6,7
 921 777 921 777 921 734 c 0,8,9
 921 524 921 524 609 -6 c 0,10,11
 132 -815 132 -815 -702 -1602 c 2,12,-1
 -841 -1733 l 2,13,14
 -938 -1819 -938 -1819 -978 -1819 c 0,15,16
 -991 -1819 -991 -1819 -991 -1806 c 0,17,18
 -991 -1776 -991 -1776 -931 -1718 c 2,19,-1
 -697 -1503 l 1,20,21
 -466 -1283 -466 -1283 -213 -996 c 0,22,23
 -80 -843 -80 -843 -62 -815 c 0,24,25
 -62 -812 -62 -812 -78 -799 c 0,26,27
 -138 -754 -138 -754 -138 -637 c 0,28,29
 -138 -463 -138 -463 80 -163 c 1,30,-1
 251 64 l 2,31,32
 297 131 297 131 317 164 c 1,33,-1
 310 185 l 2,34,35
 294 235 294 235 240 443 c 0,36,37
 194 619 194 619 151 674 c 0,38,39
 145 682 145 682 138 689 c 0,40,41
 99 728 99 728 55 728 c 2,42,-1
 46 728 l 2,43,44
 -19 728 -19 728 -89 679 c 0,45,46
 -134 647 -134 647 -151 645 c 0,47,48
 -154 644 -154 644 -158 644 c 0,49,50
 -174 644 -174 644 -174 657 c 0,51,52
 -174 699 -174 699 -94 766 c 0,53,54
 9 852 9 852 122 879 c 0,55,56
 158 888 158 888 190 888 c 0,57,58
 289 888 289 888 349 781 c 0,59,60
 359 763 359 763 369 740 c 1,0,1
747 604 m 0,61,62
 747 725 747 725 632 743 c 0,63,64
 608 746 608 746 579 746 c 0,65,66
 489 747 489 747 394 669 c 1,67,68
 474 338 474 338 516 244 c 0,69,70
 541 189 541 189 579 141 c 1,71,72
 629 217 629 217 691 383 c 0,73,74
 747 534 747 534 747 604 c 0,61,62
463 -66 m 1,75,76
 397 -6 397 -6 359 70 c 1,77,78
 134 -230 134 -230 80 -336 c 0,79,80
 38 -418 38 -418 35 -506 c 0,81,82
 35 -586 35 -586 79 -638 c 1,83,84
 122 -595 122 -595 332 -274 c 0,85,86
 413 -151 413 -151 448 -91 c 2,87,-1
 463 -66 l 1,75,76
EndSplineSet
Validated: 33
EndChar

StartChar: lambe
Encoding: 108 57378 38
Width: 1699
Flags: W
AnchorPoint: "tehta_contact_up" 605 700 basechar 0
AnchorPoint: "Inside" 725 100 basechar 0
AnchorPoint: "TehtaBelow" 725 20 basechar 0
AnchorPoint: "LambeBar" 950 400 basechar 0
AnchorPoint: "shook" 1378 100 basechar 0
AnchorPoint: "tehta_contact_down" 1396 -150 basechar 0
AnchorPoint: "TehtaAbove" 871 1200 basechar 0
LayerCount: 2
Fore
SplineSet
1196 797 m 0,0,1
 1410 797 1410 797 1523 881 c 1,2,-1
 1591 936 l 2,3,4
 1614 951 1614 951 1638 951 c 0,5,6
 1654 951 1654 951 1654 937 c 0,7,8
 1654 896 1654 896 1552 814 c 0,9,10
 1513 781 1513 781 1470 754 c 0,11,12
 1298 644 1298 644 1083 637 c 1,13,-1
 1048 637 l 2,14,15
 949 637 949 637 808 658 c 0,16,17
 788 661 788 661 776 662 c 0,18,19
 527 618 527 618 357 487 c 0,20,21
 146 324 146 324 146 80 c 0,22,23
 146 -132 146 -132 292 -283 c 0,24,25
 437 -435 437 -435 672 -468 c 0,26,27
 729 -476 729 -476 788 -476 c 0,28,29
 1036 -476 1036 -476 1187 -362 c 0,30,31
 1253 -312 1253 -312 1293 -243 c 128,-1,32
 1333 -174 1333 -174 1333 -116 c 0,33,34
 1333 -83 1333 -83 1300 -41 c 0,35,36
 1266 3 1266 3 1261 31 c 0,37,38
 1260 39 1260 39 1260 48 c 0,39,40
 1260 114 1260 114 1318 156 c 0,41,42
 1355 181 1355 181 1394 181 c 0,43,44
 1446 181 1446 181 1479 133 c 0,45,46
 1508 91 1508 91 1508 24 c 0,47,48
 1508 -135 1508 -135 1327 -329 c 0,49,50
 1294 -364 1294 -364 1261 -394 c 0,51,52
 1003 -624 1003 -624 678 -635 c 0,53,54
 663 -636 663 -636 647 -636 c 0,55,56
 371 -636 371 -636 183 -489 c 0,57,58
 23 -363 23 -363 -16 -175 c 0,59,60
 -27 -122 -27 -122 -27 -68 c 0,61,62
 -27 89 -27 89 46 227 c 2,63,-1
 61 255 l 1,64,65
 184 470 184 470 431 631 c 0,66,67
 493 671 493 671 552 701 c 1,68,69
 552 711 552 711 330 736 c 0,70,71
 215 748 215 748 170 748 c 0,72,73
 6 748 6 748 -78 687 c 2,74,-1
 -122 654 l 2,75,76
 -139 644 -139 644 -158 644 c 0,77,78
 -174 644 -174 644 -174 657 c 0,79,80
 -174 685 -174 685 -115 743 c 0,81,82
 -7 847 -7 847 141 888 c 0,83,84
 183 899 183 899 226 904 c 0,85,86
 269 908 269 908 317 908 c 0,87,88
 469 908 469 908 720 859 c 0,89,90
 963 812 963 812 1068 803 c 0,91,92
 1134 797 1134 797 1196 797 c 0,0,1
EndSplineSet
Validated: 1
Substitution2: "Single Substitution lookup 6 subtable" lambe.loop
Substitution2: "Single Substitution lookup 5 subtable" lambe.loop
Substitution2: "Single Substitution lookup 4 subtable" lambe.loop
Substitution2: "Single Substitution lookup 3 subtable" lambe.loop
Substitution2: "Single Substitution lookup 2 subtable" lambe.loop
Substitution2: "Single Substitution lookup 1 subtable" lambe.loop
EndChar

StartChar: alda
Encoding: 109 57379 39
Width: 1629
Flags: W
AnchorPoint: "tehta_contact_up" 465 700 basechar 0
AnchorPoint: "tehta_contact_down" 180 50 basechar 0
AnchorPoint: "shook" 1470 800 basechar 0
AnchorPoint: "TehtaBelow" 436 -250 basechar 0
AnchorPoint: "LambeBar" 900 400 basechar 0
AnchorPoint: "Inside" 557 350 basechar 0
AnchorPoint: "TehtaAbove" 805 1200 basechar 0
LayerCount: 2
Fore
SplineSet
1193 797 m 0,0,1
 1410 797 1410 797 1524 882 c 1,2,-1
 1591 936 l 2,3,4
 1614 951 1614 951 1638 951 c 0,5,6
 1654 951 1654 951 1654 937 c 0,7,8
 1654 896 1654 896 1552 814 c 0,9,10
 1513 781 1513 781 1470 754 c 0,11,12
 1302 647 1302 647 1092 638 c 0,13,14
 1069 637 1069 637 1045 637 c 0,15,16
 934 637 934 637 797 659 c 0,17,18
 705 674 705 674 632 674 c 0,19,20
 317 674 317 674 227 471 c 0,21,22
 196 402 196 402 196 316 c 0,23,24
 196 176 196 176 289 92 c 0,25,26
 363 24 363 24 468 24 c 0,27,28
 513 24 513 24 631 42 c 0,29,30
 700 53 700 53 750 53 c 0,31,32
 895 53 895 53 976 -48 c 0,33,34
 1039 -127 1039 -127 1039 -244 c 0,35,36
 1039 -353 1039 -353 953 -549 c 0,37,38
 937 -585 937 -585 920 -620 c 0,39,40
 669 -1124 669 -1124 -30 -1588 c 1,41,-1
 -128 -1652 l 1,42,-1
 -325 -1777 l 2,43,44
 -375 -1806 -375 -1806 -408 -1806 c 0,45,46
 -428 -1806 -428 -1806 -428 -1793 c 0,47,48
 -428 -1767 -428 -1767 -370 -1725 c 2,49,-1
 -302 -1680 l 1,50,51
 116 -1419 116 -1419 340 -1223 c 0,52,53
 695 -913 695 -913 820 -567 c 0,54,55
 839 -515 839 -515 853 -461 c 0,56,57
 865 -414 865 -414 865 -374 c 0,58,59
 865 -246 865 -246 780 -170 c 0,60,61
 710 -107 710 -107 604 -107 c 0,62,63
 558 -107 558 -107 441 -126 c 0,64,65
 375 -136 375 -136 328 -136 c 0,66,67
 183 -136 183 -136 97 -35 c 0,68,69
 22 52 22 52 22 185 c 0,70,71
 22 379 22 379 183 560 c 0,72,73
 270 658 270 658 382 725 c 0,74,75
 387 728 387 728 387 729 c 0,76,77
 366 739 366 739 217 747 c 0,78,79
 189 748 189 748 174 748 c 0,80,81
 6 748 6 748 -79 686 c 2,82,-1
 -123 654 l 2,83,84
 -140 644 -140 644 -158 644 c 0,85,86
 -174 644 -174 644 -174 657 c 0,87,88
 -174 685 -174 685 -115 743 c 0,89,90
 -7 847 -7 847 141 888 c 0,91,92
 183 899 183 899 226 904 c 0,93,94
 269 908 269 908 317 908 c 0,95,96
 474 908 474 908 722 859 c 0,97,98
 959 813 959 813 1059 804 c 0,99,100
 1128 797 1128 797 1193 797 c 0,0,1
EndSplineSet
Validated: 1
EndChar

StartChar: tecco_below
Encoding: 142 57415 40
Width: 0
GlyphClass: 4
Flags: W
AnchorPoint: "mkmk_down" 350 -860 basemark 0
AnchorPoint: "mkmk_down" 550 -260 mark 0
AnchorPoint: "TehtaBelow" 550 -260 mark 0
LayerCount: 2
Fore
SplineSet
56 -884 m 4,0,1
 23 -884 23 -884 13 -848 c 4,2,3
 11 -842 11 -842 11 -837 c 4,4,5
 11 -813 11 -813 50 -765 c 6,6,-1
 125 -677 l 6,7,8
 384 -374 384 -374 500 -266 c 4,9,10
 538 -231 538 -231 547 -231 c 6,11,-1
 551 -231 l 5,12,13
 568 -236 568 -236 571 -255 c 5,14,15
 569 -278 569 -278 348 -564 c 4,16,17
 164 -802 164 -802 104 -862 c 4,18,19
 81 -884 81 -884 56 -884 c 4,0,1
EndSplineSet
Validated: 1
EndChar

StartChar: hyarmen
Encoding: 114 57384 41
Width: 1185
Flags: W
AnchorPoint: "tehta_contact_up" 525 700 basechar 0
AnchorPoint: "tehta_contact_down" 1255 250 basechar 0
AnchorPoint: "shook" 1050 100 basechar 0
AnchorPoint: "TehtaBelow" 396 -250 basechar 0
AnchorPoint: "Inside" 471 150 basechar 0
AnchorPoint: "TehtaAbove" 890 1200 basechar 0
LayerCount: 2
Fore
SplineSet
423 642 m 0,0,1
 423 674 423 674 412 754 c 0,2,3
 404 810 404 810 404 884 c 0,4,5
 404 1408 404 1408 807 1928 c 0,6,7
 982 2153 982 2153 1256 2408 c 0,8,9
 1361 2506 1361 2506 1398 2520 c 0,10,11
 1410 2525 1410 2525 1421 2525 c 0,12,13
 1436 2525 1436 2525 1436 2512 c 0,14,15
 1436 2482 1436 2482 1395 2442 c 2,16,-1
 1246 2304 l 2,17,18
 1151 2213 1151 2213 1052 2101 c 0,19,20
 592 1585 592 1585 579 1062 c 0,21,22
 578 1041 578 1041 578 1018 c 0,23,24
 578 804 578 804 669 562 c 0,25,26
 757 327 757 327 874 222 c 0,27,28
 928 173 928 173 980 163 c 0,29,30
 989 161 989 161 1004 161 c 0,31,32
 1084 161 1084 161 1146 210 c 2,33,-1
 1219 271 l 2,34,35
 1237 285 1237 285 1256 295 c 0,36,37
 1279 307 1279 307 1294 307 c 1,38,39
 1307 300 1307 300 1308 291 c 0,40,41
 1308 260 1308 260 1229 186 c 0,42,43
 1112 77 1112 77 987 27 c 0,44,45
 919 1 919 1 865 1 c 0,46,47
 714 1 714 1 578 241 c 0,48,49
 518 347 518 347 490 435 c 0,50,51
 488 435 488 435 470 406 c 0,52,53
 424 333 424 333 330 241 c 0,54,55
 128 41 128 41 -33 15 c 0,56,57
 -55 11 -55 11 -75 11 c 0,58,59
 -163 11 -163 11 -224 66 c 0,60,61
 -249 89 -249 89 -249 102 c 0,62,63
 -249 134 -249 134 -189 190 c 0,64,65
 -130 247 -130 247 -93 248 c 0,66,67
 -84 248 -84 248 -60 225 c 0,68,69
 -11 178 -11 178 49 172 c 0,70,71
 59 171 59 171 69 171 c 0,72,73
 159 171 159 171 256 265 c 0,74,75
 367 372 367 372 406 520 c 0,76,77
 423 581 423 581 423 642 c 0,0,1
EndSplineSet
Validated: 1
Substitution2: "Single Substitution lookup 48 subtable" hyarmen.nofin
Substitution2: "Single Substitution lookup 47 subtable" hyarmen.nofin
Substitution2: "Single Substitution lookup 46 subtable" hyarmen.nofin
Substitution2: "Single Substitution lookup 45 subtable" hyarmen.nofin
Substitution2: "Single Substitution lookup 44 subtable" hyarmen.nofin
EndChar

StartChar: hwesta_sindarinwa
Encoding: 115 57385 42
Width: 1572
Flags: W
AnchorPoint: "tehta_contact_up" 425 700 basechar 0
AnchorPoint: "tehta_contact_down" 1635 250 basechar 0
AnchorPoint: "shook" 1450 100 basechar 0
AnchorPoint: "TehtaBelow" 686 -250 basechar 0
AnchorPoint: "Inside" 471 400 basechar 0
AnchorPoint: "TehtaAbove" 579 1200 basechar 0
LayerCount: 2
Fore
SplineSet
382 -34 m 0,0,1
 222 -34 222 -34 118 60 c 0,2,3
 18 150 18 150 18 287 c 0,4,5
 18 462 18 462 197 604 c 0,6,7
 299 684 299 684 401 716 c 0,8,9
 408 718 408 718 414 720 c 0,10,11
 467 734 467 734 521 734 c 0,12,13
 641 734 641 734 730 651 c 0,14,15
 801 586 801 586 900 422 c 2,16,-1
 925 381 l 1,17,-1
 936 398 l 1,18,19
 1065 614 1065 614 1164 965 c 1,20,-1
 1292 1442 l 1,21,22
 1396 1804 1396 1804 1539 2035 c 0,23,24
 1612 2153 1612 2153 1703 2255 c 0,25,26
 1857 2428 1857 2428 1916 2428 c 0,27,28
 1932 2428 1932 2428 1932 2415 c 0,29,30
 1932 2389 1932 2389 1881 2337 c 0,31,32
 1799 2251 1799 2251 1776 2225 c 0,33,34
 1742 2184 1742 2184 1714 2141 c 0,35,36
 1575 1930 1575 1930 1476 1597 c 0,37,38
 1464 1557 1464 1557 1371 1216 c 0,39,40
 1323 1036 1323 1036 1281 911 c 0,41,42
 1176 596 1176 596 1046 404 c 0,43,44
 1016 358 1016 358 983 318 c 0,45,46
 974 307 974 307 974 305 c 2,47,-1
 975 303 l 1,48,-1
 1007 260 l 2,49,50
 1075 175 1075 175 1149 146 c 0,51,52
 1198 126 1198 126 1252 126 c 0,53,54
 1416 126 1416 126 1546 222 c 2,55,-1
 1632 288 l 2,56,57
 1660 307 1660 307 1682 307 c 0,58,59
 1696 307 1696 307 1696 294 c 0,60,61
 1696 253 1696 253 1606 175 c 0,62,63
 1478 64 1478 64 1314 5 c 0,64,65
 1230 -24 1230 -24 1153 -32 c 0,66,67
 1138 -33 1138 -33 1110 -33 c 0,68,69
 943 -33 943 -33 829 122 c 0,70,71
 819 136 819 136 812 142 c 0,72,73
 810 142 810 142 764 107 c 0,74,75
 580 -34 580 -34 382 -34 c 0,0,1
726 280 m 2,76,77
 619 457 619 457 543 517 c 0,78,79
 472 573 472 573 383 573 c 2,80,-1
 351 573 l 1,81,82
 262 563 262 563 230 534 c 0,83,84
 192 499 192 499 192 415 c 0,85,86
 192 338 192 338 234 273 c 0,87,88
 301 173 301 173 428 139 c 0,89,90
 476 126 476 126 526 126 c 0,91,92
 659 126 659 126 762 196 c 0,93,94
 772 202 772 202 772 204 c 2,95,-1
 726 280 l 2,76,77
EndSplineSet
Validated: 1
Substitution2: "Single Substitution lookup 48 subtable" hwesta_sindarinwa.nofin
Substitution2: "Single Substitution lookup 47 subtable" hwesta_sindarinwa.nofin
Substitution2: "Single Substitution lookup 46 subtable" hwesta_sindarinwa.nofin
Substitution2: "Single Substitution lookup 45 subtable" hwesta_sindarinwa.nofin
Substitution2: "Single Substitution lookup 44 subtable" hwesta_sindarinwa.nofin
EndChar

StartChar: yanta
Encoding: 116 57386 43
Width: 1278
Flags: W
AnchorPoint: "tehta_contact_up" 705 700 basechar 0
AnchorPoint: "tehta_contact_down" 1375 250 basechar 0
AnchorPoint: "shook" 1150 100 basechar 0
AnchorPoint: "TehtaBelow" 546 -250 basechar 0
AnchorPoint: "Inside" 601 150 basechar 0
AnchorPoint: "TehtaAbove" 839 1200 basechar 0
LayerCount: 2
Fore
SplineSet
115 644 m 0,0,1
 99 644 99 644 99 657 c 0,2,3
 99 682 99 682 152 738 c 0,4,5
 254 846 254 846 396 887 c 0,6,7
 465 907 465 907 537 906 c 0,8,9
 630 905 630 905 691 838 c 0,10,11
 749 774 749 774 835 578 c 2,12,-1
 930 365 l 1,13,14
 1021 183 1021 183 1103 164 c 0,15,16
 1116 161 1116 161 1132 161 c 0,17,18
 1204 161 1204 161 1299 235 c 0,19,20
 1369 288 1369 288 1379 294 c 0,21,22
 1401 307 1401 307 1416 307 c 1,23,24
 1429 300 1429 300 1430 291 c 0,25,26
 1430 260 1430 260 1351 186 c 0,27,28
 1235 76 1235 76 1109 27 c 0,29,30
 1042 1 1042 1 988 1 c 0,31,32
 900 1 900 1 835 87 c 0,33,34
 783 156 783 156 697 353 c 2,35,-1
 650 463 l 1,36,37
 578 360 578 360 454 241 c 0,38,39
 214 11 214 11 49 11 c 0,40,41
 -43 11 -43 11 -104 68 c 0,42,43
 -127 90 -127 90 -127 102 c 0,44,45
 -127 134 -127 134 -67 190 c 0,46,47
 -8 247 -8 247 29 248 c 0,48,49
 42 248 42 248 54 233 c 0,50,51
 77 205 77 205 110 189 c 0,52,53
 148 171 148 171 191 171 c 0,54,55
 270 171 270 171 354 246 c 0,56,57
 518 392 518 392 558 504 c 0,58,59
 570 538 570 538 570 568 c 0,60,61
 570 634 570 634 518 689 c 0,62,63
 464 746 464 746 387 746 c 0,64,65
 278 746 278 746 196 687 c 0,66,67
 149 654 149 654 140 650 c 0,68,69
 127 644 127 644 115 644 c 0,0,1
EndSplineSet
Validated: 33
Substitution2: "Single Substitution lookup 48 subtable" yanta.nofin
Substitution2: "Single Substitution lookup 47 subtable" yanta.nofin
Substitution2: "Single Substitution lookup 46 subtable" yanta.nofin
Substitution2: "Single Substitution lookup 45 subtable" yanta.nofin
Substitution2: "Single Substitution lookup 44 subtable" yanta.nofin
EndChar

StartChar: uure
Encoding: 117 57387 44
Width: 941
Flags: W
AnchorPoint: "tehta_contact_up" 263 700 basechar 0
AnchorPoint: "tehta_contact_down" 368 50 basechar 0
AnchorPoint: "shook" 598 100 basechar 0
AnchorPoint: "TehtaBelow" 364 -250 basechar 0
AnchorPoint: "Inside" 479 450 basechar 0
AnchorPoint: "TehtaAbove" 667 1200 basechar 0
LayerCount: 2
Fore
SplineSet
35 328 m 0,0,1
 35 513 35 513 188 674 c 0,2,3
 312 803 312 803 475 860 c 0,4,5
 557 888 557 888 628 888 c 0,6,7
 779 888 779 888 866 778 c 0,8,9
 939 685 939 685 939 546 c 0,10,11
 939 359 939 359 784 196 c 0,12,13
 701 110 701 110 593 52 c 0,14,15
 464 -16 464 -16 332 -16 c 0,16,17
 193 -16 193 -16 109 93 c 0,18,19
 35 188 35 188 35 328 c 0,0,1
209 459 m 0,20,21
 209 320 209 320 293 227 c 0,22,23
 369 143 369 143 476 143 c 0,24,25
 560 143 560 143 635 174 c 0,26,27
 675 189 675 189 697 211 c 0,28,29
 757 269 757 269 764 394 c 0,30,31
 765 405 765 405 765 414 c 0,32,33
 765 560 765 560 678 650 c 0,34,35
 603 728 603 728 490 728 c 0,36,37
 417 728 417 728 341 699 c 0,38,39
 287 678 287 678 265 647 c 0,40,41
 209 571 209 571 209 459 c 0,20,21
EndSplineSet
Validated: 1
EndChar

StartChar: aara
Encoding: 118 57388 45
Width: 500
Flags: W
AnchorPoint: "tehta_contact_up" -135 700 basechar 0
AnchorPoint: "tehta_contact_down" 100 100 basechar 0
AnchorPoint: "shook" 100 100 basechar 0
AnchorPoint: "TehtaBelow" 116 -400 basechar 0
AnchorPoint: "Inside" 1 450 basechar 0
AnchorPoint: "TehtaAbove" 389 1200 basechar 0
LayerCount: 2
Fore
SplineSet
-174 675 m 0,0,1
 -174 704 -174 704 -120 759 c 0,2,3
 -20 861 -20 861 126 894 c 0,4,5
 168 904 168 904 212 906 c 0,6,7
 288 910 288 910 323 883 c 0,8,9
 348 865 348 865 367 828 c 0,10,11
 390 784 390 784 390 727 c 0,12,13
 390 585 390 585 223 226 c 0,14,15
 170 110 170 110 108 -5 c 0,16,17
 -444 -1039 -444 -1039 -1111 -1768 c 1,18,-1
 -1205 -1869 l 2,19,20
 -1275 -1946 -1275 -1946 -1462 -2122 c 0,21,22
 -1537 -2193 -1537 -2193 -1564 -2215 c 0,23,24
 -1613 -2255 -1613 -2255 -1642 -2255 c 0,25,26
 -1657 -2255 -1657 -2255 -1657 -2241 c 0,27,28
 -1657 -2213 -1657 -2213 -1595 -2152 c 2,29,-1
 -1409 -1974 l 1,30,-1
 -1385 -1951 l 1,31,32
 -671 -1239 -671 -1239 -60 -103 c 0,33,34
 134 257 134 257 195 478 c 0,35,36
 216 551 216 551 216 595 c 0,37,38
 216 669 216 669 175 713 c 0,39,40
 143 746 143 746 93 746 c 0,41,42
 -16 746 -16 746 -91 695 c 0,43,44
 -131 667 -131 667 -142 664 c 0,45,46
 -150 662 -150 662 -158 662 c 0,47,48
 -174 662 -174 662 -174 675 c 0,0,1
EndSplineSet
Validated: 33
EndChar

StartChar: halla
Encoding: 119 57389 46
Width: 557
Flags: W
AnchorPoint: "tehta_contact_up" 325 700 basechar 0
AnchorPoint: "tehta_contact_down" 91 100 basechar 0
AnchorPoint: "shook" 90 100 basechar 0
AnchorPoint: "TehtaBelow" -34 -250 basechar 0
AnchorPoint: "Inside" 1 450 basechar 0
AnchorPoint: "TehtaAbove" 219 1200 basechar 0
LayerCount: 2
Fore
SplineSet
-19 -16 m 0,0,1
 -35 -16 -35 -16 -35 -3 c 0,2,3
 -35 14 -35 14 -16 36 c 0,4,5
 43 101 43 101 93 217 c 0,6,7
 132 307 132 307 173 436 c 0,8,9
 395 1137 395 1137 451 1290 c 0,10,11
 485 1381 485 1381 533 1490 c 0,12,13
 738 1958 738 1958 1025 2272 c 0,14,15
 1214 2478 1214 2478 1276 2478 c 0,16,17
 1290 2478 1290 2478 1290 2465 c 0,18,19
 1290 2436 1290 2436 1222 2368 c 0,20,21
 1123 2270 1123 2270 1116 2263 c 2,22,-1
 1094 2238 l 2,23,24
 912 2030 912 2030 779 1761 c 0,25,26
 605 1409 605 1409 400 729 c 0,27,28
 271 302 271 302 167 145 c 0,29,30
 124 79 124 79 67 30 c 0,31,32
 12 -16 12 -16 -19 -16 c 0,0,1
EndSplineSet
Validated: 1
EndChar

StartChar: telco
Encoding: 120 57390 47
Width: 492
Flags: W
AnchorPoint: "tehta_contact_up" -135 700 basechar 0
AnchorPoint: "tehta_contact_down" 83 100 basechar 0
AnchorPoint: "shook" 80 100 basechar 0
AnchorPoint: "TehtaBelow" -34 -250 basechar 0
AnchorPoint: "Inside" 1 450 basechar 0
AnchorPoint: "TehtaAbove" 389 1200 basechar 0
LayerCount: 2
Fore
SplineSet
-174 675 m 0,0,1
 -174 705 -174 705 -119 761 c 0,2,3
 -16 862 -16 862 135 895 c 0,4,5
 174 903 174 903 214 906 c 2,6,-1
 243 906 l 2,7,8
 330 906 330 906 368 825 c 0,9,10
 389 781 389 781 389 723 c 0,11,12
 389 628 389 628 320 444 c 0,13,14
 229 201 229 201 112 75 c 0,15,16
 43 0 43 0 -7 -14 c 0,17,18
 -14 -16 -14 -16 -20 -16 c 0,19,20
 -36 -16 -36 -16 -36 -3 c 0,21,22
 -36 17 -36 17 15 78 c 0,23,24
 32 98 32 98 37 106 c 0,25,26
 123 234 123 234 183 435 c 0,27,28
 215 540 215 540 215 590 c 0,29,30
 215 689 215 689 154 729 c 0,31,32
 128 747 128 747 94 747 c 0,33,34
 -15 747 -15 747 -90 695 c 0,35,36
 -131 667 -131 667 -143 664 c 0,37,38
 -150 662 -150 662 -158 662 c 0,39,40
 -174 662 -174 662 -174 675 c 0,0,1
EndSplineSet
Validated: 1
EndChar

StartChar: silme
Encoding: 110 57380 48
Width: 1125
Flags: W
AnchorPoint: "tehta_contact_up" 875 700 basechar 0
AnchorPoint: "tehta_contact_down" 300 50 basechar 0
AnchorPoint: "shook" 900 600 basechar 0
AnchorPoint: "TehtaBelow" 406 -250 basechar 0
AnchorPoint: "Inside" 511 450 basechar 0
AnchorPoint: "TehtaAbove" 321 1600 basechar 0
LayerCount: 2
Fore
SplineSet
384 -16 m 0,0,1
 227 -16 227 -16 128 102 c 0,2,3
 35 213 35 213 35 380 c 0,4,5
 35 554 35 554 219 868 c 0,6,7
 319 1039 319 1039 466 1235 c 2,8,-1
 530 1319 l 2,9,10
 799 1666 799 1666 1140 2015 c 0,11,12
 1562 2447 1562 2447 1671 2512 c 0,13,14
 1687 2524 1687 2524 1707 2525 c 0,15,16
 1722 2525 1722 2525 1722 2511 c 0,17,18
 1722 2482 1722 2482 1666 2427 c 2,19,-1
 1417 2192 l 1,20,-1
 1166 1939 l 1,21,22
 688 1437 688 1437 431 1037 c 0,23,24
 209 693 209 693 209 501 c 0,25,26
 209 354 209 354 304 247 c 0,27,28
 373 169 373 169 464 150 c 0,29,30
 494 144 494 144 529 144 c 0,31,32
 616 144 616 144 697 175 c 0,33,34
 744 193 744 193 769 218 c 0,35,36
 821 271 821 271 833 373 c 0,37,38
 835 389 835 389 835 402 c 0,39,40
 835 464 835 464 794 517 c 0,41,42
 763 558 763 558 756 576 c 0,43,44
 751 592 751 592 751 611 c 0,45,46
 751 648 751 648 779 689 c 0,47,48
 818 744 818 744 886 744 c 0,49,50
 950 744 950 744 983 677 c 0,51,52
 1008 627 1008 627 1008 545 c 0,53,54
 1008 384 1008 384 883 233 c 0,55,56
 760 85 760 85 579 20 c 0,57,58
 524 0 524 0 468 -10 c 0,59,60
 427 -16 427 -16 384 -16 c 0,0,1
EndSplineSet
Validated: 1
Substitution2: "Single Substitution lookup 48 subtable" silme.nofin
Substitution2: "Single Substitution lookup 47 subtable" silme.nofin
Substitution2: "Single Substitution lookup 46 subtable" silme.nofin
Substitution2: "Single Substitution lookup 45 subtable" silme.nofin
Substitution2: "Single Substitution lookup 44 subtable" silme.nofin
EndChar

StartChar: silme_nuquerna
Encoding: 111 57381 49
Width: 1041
Flags: W
AnchorPoint: "tehta_contact_up" 275 700 basechar 0
AnchorPoint: "tehta_contact_down" 180 200 basechar 0
AnchorPoint: "shook" 900 600 basechar 0
AnchorPoint: "TehtaBelow" 186 -250 basechar 0
AnchorPoint: "Inside" 541 450 basechar 0
AnchorPoint: "TehtaAbove" 589 1200 basechar 0
LayerCount: 2
Fore
SplineSet
161 124 m 0,0,1
 88 124 88 124 52 206 c 0,2,3
 30 256 30 256 30 324 c 0,4,5
 30 518 30 518 191 679 c 0,6,7
 321 809 321 809 495 863 c 0,8,9
 564 884 564 884 626 888 c 1,10,-1
 661 888 l 2,11,12
 801 888 801 888 900 782 c 0,13,14
 999 675 999 675 1004 519 c 1,15,-1
 1004 503 l 2,16,17
 1004 242 1004 242 643 -272 c 0,18,19
 304 -754 304 -754 -234 -1296 c 0,20,21
 -418 -1481 -418 -1481 -607 -1653 c 0,22,23
 -687 -1725 -687 -1725 -724 -1725 c 0,24,25
 -738 -1725 -738 -1725 -738 -1711 c 0,26,27
 -738 -1678 -738 -1678 -652 -1600 c 0,28,29
 -129 -1124 -129 -1124 271 -634 c 0,30,31
 694 -114 694 -114 799 208 c 0,32,33
 830 302 830 302 830 373 c 0,34,35
 830 495 830 495 761 595 c 0,36,37
 683 706 683 706 550 727 c 0,38,39
 538 728 538 728 511 728 c 0,40,41
 277 728 277 728 220 568 c 0,42,43
 204 524 204 524 204 472 c 0,44,45
 204 408 204 408 247 354 c 0,46,47
 281 313 281 313 287 299 c 0,48,49
 296 279 296 279 296 257 c 0,50,51
 296 186 296 186 233 146 c 0,52,53
 198 124 198 124 161 124 c 0,0,1
EndSplineSet
Validated: 1
EndChar

StartChar: esse
Encoding: 112 57382 50
Width: 824
Flags: W
AnchorPoint: "tehta_contact_down" 0 -800 basechar 0
AnchorPoint: "shook" 510 -350 basechar 0
AnchorPoint: "TehtaBelow" -34 -1150 basechar 0
AnchorPoint: "Inside" 121 -400 basechar 0
AnchorPoint: "tehta_contact_up" 624 200 basechar 0
AnchorPoint: "TehtaAbove" 261 1200 basechar 0
LayerCount: 2
Fore
SplineSet
111 40 m 1,0,1
 28 115 28 115 17 249 c 0,2,3
 16 267 16 267 16 286 c 0,4,5
 16 574 16 574 442 1152 c 0,6,7
 788 1620 788 1620 1297 2128 c 1,8,-1
 1507 2332 l 2,9,10
 1631 2448 1631 2448 1660 2472 c 0,11,12
 1724 2525 1724 2525 1753 2525 c 0,13,14
 1768 2525 1768 2525 1768 2511 c 0,15,16
 1768 2478 1768 2478 1687 2404 c 0,17,18
 1166 1932 1166 1932 764 1441 c 0,19,20
 335 918 335 918 224 591 c 0,21,22
 189 490 189 490 189 415 c 0,23,24
 189 342 189 342 224 267 c 0,25,26
 281 143 281 143 402 143 c 0,27,28
 490 143 490 143 567 197 c 0,29,30
 613 230 613 230 625 234 c 0,31,32
 635 238 635 238 643 238 c 0,33,34
 659 238 659 238 659 224 c 0,35,36
 659 198 659 198 604 141 c 0,37,38
 502 36 502 36 361 -1 c 0,39,40
 330 -10 330 -10 298 -14 c 0,41,42
 176 -29 176 -29 47 -92 c 0,43,44
 -49 -139 -49 -139 -109 -200 c 0,45,46
 -194 -284 -194 -284 -194 -395 c 0,47,48
 -194 -534 -194 -534 -91 -630 c 0,49,50
 16 -725 16 -725 161 -727 c 0,51,52
 277 -727 277 -727 369 -688 c 0,53,54
 413 -670 413 -670 424 -650 c 0,55,56
 450 -607 450 -607 450 -548 c 0,57,58
 450 -494 450 -494 410 -442 c 0,59,60
 377 -399 377 -399 371 -379 c 0,61,62
 366 -364 366 -364 366 -347 c 0,63,64
 366 -260 366 -260 449 -225 c 0,65,66
 478 -213 478 -213 501 -213 c 0,67,68
 569 -213 569 -213 603 -294 c 0,69,70
 624 -344 624 -344 624 -409 c 0,71,72
 624 -535 624 -535 517 -660 c 0,73,74
 398 -800 398 -800 215 -856 c 0,75,76
 119 -887 119 -887 18 -887 c 0,77,78
 -153 -887 -153 -887 -264 -776 c 0,79,80
 -364 -678 -364 -678 -368 -540 c 1,81,-1
 -368 -529 l 2,82,83
 -368 -365 -368 -365 -194 -184 c 0,84,85
 -65 -50 -65 -50 111 40 c 1,0,1
EndSplineSet
Validated: 1
EndChar

StartChar: esse_nuquerna
Encoding: 113 57383 51
Width: 847
Flags: W
AnchorPoint: "tehta_contact_up" -40 700 basechar 0
AnchorPoint: "tehta_contact_down" 65 0 basechar 0
AnchorPoint: "shook" 725 600 basechar 0
AnchorPoint: "TehtaAbove" 474 1200 basechar 0
AnchorPoint: "Inside" 286 450 basechar 0
AnchorPoint: "TehtaBelow" -119 -450 basechar 0
LayerCount: 2
Fore
SplineSet
-166 575 m 0,0,1
 -182 575 -182 575 -182 588 c 0,2,3
 -182 627 -182 627 -75 719 c 0,4,5
 26 806 26 806 124 855 c 0,6,7
 236 912 236 912 382 921 c 0,8,9
 397 922 397 922 413 923 c 2,10,-1
 474 923 l 2,11,12
 523 923 523 923 554 916 c 0,13,14
 678 889 678 889 751 782 c 0,15,16
 810 696 810 696 810 593 c 0,17,18
 810 457 810 457 669 309 c 0,19,20
 581 216 581 216 442 129 c 1,21,22
 581 52 581 52 587 -117 c 0,23,24
 588 -124 588 -124 588 -131 c 0,25,26
 588 -295 588 -295 443 -533 c 0,27,28
 347 -693 347 -693 196 -863 c 0,29,30
 -101 -1196 -101 -1196 -536 -1512 c 0,31,32
 -700 -1631 -700 -1631 -823 -1704 c 0,33,34
 -849 -1718 -849 -1718 -864 -1718 c 128,-1,35
 -879 -1718 -879 -1718 -879 -1703 c 0,36,37
 -877 -1670 -877 -1670 -818 -1617 c 0,38,39
 -789 -1591 -789 -1591 -752 -1567 c 0,40,41
 -195 -1214 -195 -1214 127 -830 c 0,42,43
 360 -553 360 -553 404 -342 c 0,44,45
 413 -300 413 -300 413 -264 c 0,46,47
 413 -142 413 -142 335 -67 c 0,48,49
 274 -7 274 -7 188 -7 c 0,50,51
 130 -7 130 -7 87 -38 c 0,52,53
 46 -68 46 -68 24 -75 c 2,54,-1
 10 -79 l 1,55,56
 -8 -79 -8 -79 -8 -64 c 0,57,58
 -8 -37 -8 -37 43 15 c 0,59,60
 124 98 124 98 255 143 c 0,61,62
 417 198 417 198 531 280 c 0,63,64
 567 306 567 306 586 328 c 0,65,66
 636 384 636 384 636 460 c 0,67,68
 636 583 636 583 552 670 c 0,69,70
 462 763 462 763 320 763 c 0,71,72
 213 763 213 763 170 755 c 0,73,74
 47 734 47 734 -57 640 c 0,75,76
 -131 575 -131 575 -166 575 c 0,0,1
EndSplineSet
Validated: 1
EndChar

StartChar: stemless_parma
Encoding: 122 57393 52
Width: 1079
Flags: W
AnchorPoint: "tehta_contact_up" -95 700 basechar 0
AnchorPoint: "shook" 825 100 basechar 0
AnchorPoint: "tehta_contact_down" 1015 250 basechar 0
AnchorPoint: "TehtaBelow" 426 -250 basechar 0
AnchorPoint: "Inside" 201 450 basechar 0
AnchorPoint: "TehtaAbove" 479 1200 basechar 0
LayerCount: 2
Fore
SplineSet
-244 588 m 0,0,1
 -244 623 -244 623 -159 700 c 0,2,3
 -31 817 -31 817 128 879 c 0,4,5
 241 924 241 924 339 924 c 0,6,7
 483 924 483 924 591 837 c 0,8,9
 708 743 708 743 713 598 c 1,10,-1
 713 587 l 2,11,12
 713 403 713 403 552 239 c 0,13,14
 506 196 506 196 465 161 c 0,15,16
 465 160 465 160 468 160 c 0,17,18
 475 160 475 160 598 140 c 0,19,20
 682 126 682 126 730 126 c 0,21,22
 820 126 820 126 914 210 c 2,23,-1
 986 274 l 2,24,25
 993 280 993 280 1000 284 c 0,26,27
 1036 307 1036 307 1056 307 c 0,28,29
 1070 307 1070 307 1070 292 c 0,30,31
 1070 263 1070 263 1003 199 c 2,32,-1
 956 156 l 2,33,34
 812 27 812 27 708 -11 c 0,35,36
 646 -34 646 -34 585 -34 c 0,37,38
 533 -34 533 -34 400 -11 c 0,39,40
 308 4 308 4 247 4 c 0,41,42
 171 4 171 4 69 -24 c 0,43,44
 32 -34 32 -34 15 -34 c 0,45,46
 0 -34 0 -34 0 -20 c 0,47,48
 0 10 0 10 56 64 c 0,49,50
 91 98 91 98 125 115 c 0,51,52
 146 125 146 125 246 151 c 0,53,54
 389 186 389 186 453 243 c 0,55,56
 539 319 539 319 539 456 c 0,57,58
 539 617 539 617 388 708 c 0,59,60
 361 725 361 725 332 737 c 0,61,62
 264 764 264 764 189 764 c 0,63,64
 42 764 42 764 -86 667 c 2,65,-1
 -175 596 l 2,66,67
 -206 575 -206 575 -228 575 c 0,68,69
 -244 575 -244 575 -244 588 c 0,0,1
EndSplineSet
Validated: 1
EndChar

StartChar: stemless_calma
Encoding: 123 57394 53
Width: 954
Flags: W
AnchorPoint: "tehta_contact_up" 255 700 basechar 0
AnchorPoint: "tehta_contact_down" 270 50 basechar 0
AnchorPoint: "shook" 780 100 basechar 0
AnchorPoint: "TehtaBelow" 326 -250 basechar 0
AnchorPoint: "Inside" 451 450 basechar 0
AnchorPoint: "TehtaAbove" 619 1200 basechar 0
LayerCount: 2
Fore
SplineSet
1043 307 m 0,0,1
 1057 307 1057 307 1057 293 c 0,2,3
 1057 251 1057 251 963 174 c 0,4,5
 852 83 852 83 713 29 c 0,6,7
 607 -13 607 -13 508 -16 c 0,8,9
 487 -17 487 -17 451 -17 c 0,10,11
 338 -17 338 -17 297 -11 c 0,12,13
 140 11 140 11 63 124 c 0,14,15
 9 202 9 202 7 304 c 2,16,-1
 7 318 l 2,17,18
 7 414 7 414 73 532 c 0,19,20
 159 684 159 684 321 789 c 0,21,22
 455 876 455 876 583 887 c 0,23,24
 599 888 599 888 614 888 c 0,25,26
 696 888 696 888 734 868 c 0,27,28
 766 852 766 852 781 821 c 0,29,30
 790 802 790 802 790 777 c 0,31,32
 790 691 790 691 707 655 c 0,33,34
 678 642 678 642 656 642 c 0,35,36
 611 642 611 642 579 677 c 0,37,38
 551 708 551 708 541 715 c 0,39,40
 519 729 519 729 487 729 c 0,41,42
 392 729 392 729 315 692 c 0,43,44
 283 676 283 676 262 655 c 0,45,46
 196 589 196 589 184 476 c 0,47,48
 181 455 181 455 181 435 c 0,49,50
 181 263 181 263 339 184 c 0,51,52
 408 149 408 149 475 144 c 0,53,54
 510 143 510 143 603 143 c 0,55,56
 791 143 791 143 921 234 c 1,57,-1
 998 292 l 2,58,59
 1023 307 1023 307 1043 307 c 0,0,1
EndSplineSet
Validated: 1
Substitution2: "Single Substitution lookup 13 subtable" osse.tick
Substitution2: "Single Substitution lookup 12 subtable" osse.tick
Substitution2: "Single Substitution lookup 11 subtable" osse.tick
Substitution2: "Single Substitution lookup 10 subtable" osse.tick
Substitution2: "Single Substitution lookup 9 subtable" osse.tick
Substitution2: "Single Substitution lookup 8 subtable" osse.tick
EndChar

StartChar: telco_ligating
Encoding: 125 57396 54
Width: 939
Flags: W
AnchorPoint: "tehta_contact_up" 325 700 basechar 0
AnchorPoint: "tehta_contact_down" 40 50 basechar 0
AnchorPoint: "shook" 1060 800 basechar 0
AnchorPoint: "TehtaBelow" 426 -250 basechar 0
AnchorPoint: "Inside" 551 450 basechar 0
AnchorPoint: "TehtaAbove" 479 1200 basechar 0
LayerCount: 2
Fore
SplineSet
-174 675 m 0,0,1
 -174 703 -174 703 -126 755 c 0,2,3
 -28 861 -28 861 128 895 c 0,4,5
 170 903 170 903 214 906 c 0,6,7
 330 913 330 913 477 890 c 2,8,-1
 571 875 l 1,9,-1
 687 859 l 2,10,11
 866 833 866 833 946 833 c 0,12,13
 1033 833 1033 833 1082 861 c 0,14,15
 1103 873 1103 873 1117 873 c 128,-1,16
 1131 873 1131 873 1131 859 c 0,17,18
 1131 808 1131 808 1030 739 c 0,19,20
 971 698 971 698 932 687 c 0,21,22
 881 672 881 672 807 672 c 0,23,24
 723 672 723 672 511 703 c 2,25,-1
 438 713 l 2,26,27
 394 720 394 720 391 720 c 0,28,29
 389 720 389 720 389 708 c 0,30,31
 383 608 383 608 310 422 c 0,32,33
 240 241 240 241 157 129 c 0,34,35
 68 8 68 8 -1 -13 c 0,36,37
 -12 -16 -12 -16 -20 -16 c 0,38,39
 -36 -16 -36 -16 -36 -3 c 0,40,41
 -36 17 -36 17 15 78 c 0,42,43
 32 98 32 98 37 106 c 0,44,45
 123 234 123 234 183 435 c 0,46,47
 215 540 215 540 215 590 c 0,48,49
 215 689 215 689 154 729 c 0,50,51
 128 747 128 747 94 747 c 0,52,53
 -15 747 -15 747 -90 695 c 0,54,55
 -131 667 -131 667 -143 664 c 0,56,57
 -150 662 -150 662 -158 662 c 0,58,59
 -174 662 -174 662 -174 675 c 0,0,1
EndSplineSet
Validated: 33
EndChar

StartChar: digit_two
Encoding: 177 57458 55
Width: 1721
Flags: W
AnchorPoint: "tehta_contact_up" 410 700 basechar 0
AnchorPoint: "tehta_contact_down" 480 50 basechar 0
AnchorPoint: "shook" 1720 800 basechar 0
AnchorPoint: "TehtaBelow" 686 -250 basechar 0
AnchorPoint: "Inside" 641 450 basechar 0
AnchorPoint: "TehtaAbove" 919 1200 basechar 0
LayerCount: 2
Fore
SplineSet
1529 715 m 2,0,-1
 1175 720 l 2,1,2
 1117 720 1117 720 1099 695 c 0,3,4
 1097 693 1097 693 1079 654 c 0,5,6
 1041 570 1041 570 1041 478 c 0,7,8
 1041 403 1041 403 1076 315 c 0,9,10
 1142 150 1142 150 1282 143 c 1,11,-1
 1293 143 l 2,12,13
 1435 143 1435 143 1518 202 c 0,14,15
 1562 233 1562 233 1566 235 c 0,16,17
 1581 242 1581 242 1596 242 c 0,18,19
 1612 242 1612 242 1612 228 c 0,20,21
 1612 197 1612 197 1554 141 c 0,22,23
 1448 38 1448 38 1290 1 c 0,24,25
 1244 -10 1244 -10 1197 -14 c 0,26,27
 1175 -16 1175 -16 1144 -16 c 0,28,29
 1020 -16 1020 -16 942 97 c 0,30,31
 913 138 913 138 893 193 c 1,32,-1
 876 176 l 2,33,34
 726 26 726 26 542 -8 c 0,35,36
 496 -16 496 -16 452 -16 c 0,37,38
 341 -16 341 -16 266 80 c 0,39,40
 192 174 192 174 192 309 c 0,41,42
 192 518 192 518 371 710 c 0,43,44
 400 742 400 742 432 770 c 1,45,-1
 400 770 l 1,46,-1
 385 770 l 2,47,48
 33 770 33 770 -134 627 c 0,49,50
 -186 583 -186 583 -217 583 c 0,51,52
 -233 583 -233 583 -233 598 c 0,53,54
 -233 629 -233 629 -181 677 c 0,55,56
 40 876 40 876 370 907 c 0,57,58
 436 913 436 913 510 913 c 0,59,60
 651 913 651 913 868 891 c 0,61,62
 1193 858 1193 858 1615 858 c 0,63,64
 1760 858 1760 858 1813 889 c 0,65,66
 1835 901 1835 901 1851 901 c 0,67,68
 1868 901 1868 901 1868 885 c 0,69,70
 1868 864 1868 864 1837 827 c 0,71,72
 1750 724 1750 724 1560 716 c 0,73,74
 1545 715 1545 715 1529 715 c 2,0,-1
367 446 m 0,75,76
 367 296 367 296 452 209 c 0,77,78
 514 144 514 144 599 144 c 0,79,80
 685 144 685 144 765 179 c 0,81,82
 790 190 790 190 799 199 c 0,83,84
 838 238 838 238 856 332 c 0,85,86
 880 454 880 454 882 464 c 0,87,88
 919 608 919 608 1020 718 c 1,89,-1
 1026 726 l 1,90,-1
 736 748 l 1,91,92
 586 764 586 764 554 764 c 0,93,94
 524 764 524 764 476 715 c 0,95,96
 384 625 384 625 370 489 c 0,97,98
 367 468 367 468 367 446 c 0,75,76
EndSplineSet
Validated: 1
EndChar

StartChar: digit_three
Encoding: 178 57459 56
Width: 2048
Flags: W
AnchorPoint: "tehta_contact_up" 370 700 basechar 0
AnchorPoint: "tehta_contact_down" 470 50 basechar 0
AnchorPoint: "shook" 2050 800 basechar 0
AnchorPoint: "TehtaBelow" 846 -250 basechar 0
AnchorPoint: "Inside" 561 450 basechar 0
AnchorPoint: "TehtaAbove" 1163 1200 basechar 0
LayerCount: 2
Fore
SplineSet
-217 583 m 0,0,1
 -233 583 -233 583 -233 598 c 0,2,3
 -233 632 -233 632 -162 695 c 0,4,5
 -94 756 -94 756 6 806 c 0,6,7
 227 917 227 917 573 917 c 0,8,9
 700 917 700 917 986 895 c 0,10,11
 1451 858 1451 858 2010 858 c 0,12,13
 2161 858 2161 858 2214 889 c 0,14,15
 2235 901 2235 901 2251 901 c 0,16,17
 2269 901 2269 901 2269 886 c 0,18,19
 2269 855 2269 855 2220 810 c 0,20,21
 2136 734 2136 734 1998 717 c 0,22,23
 1985 715 1985 715 1783 715 c 0,24,25
 1579 715 1579 715 1566 712 c 0,26,27
 1549 709 1549 709 1524 628 c 0,28,29
 1498 543 1498 543 1498 476 c 0,30,31
 1498 374 1498 374 1540 285 c 0,32,33
 1607 144 1607 144 1729 144 c 0,34,35
 1849 144 1849 144 1937 202 c 0,36,37
 1982 232 1982 232 1993 235 c 0,38,39
 2000 237 2000 237 2007 237 c 0,40,41
 2022 237 2022 237 2022 223 c 0,42,43
 2022 193 2022 193 1965 137 c 0,44,45
 1860 35 1860 35 1712 -1 c 0,46,47
 1649 -16 1649 -16 1585 -16 c 0,48,49
 1454 -16 1454 -16 1382 116 c 0,50,51
 1369 140 1369 140 1354 174 c 1,52,-1
 1333 154 l 1,53,54
 1187 8 1187 8 1012 -13 c 0,55,56
 989 -16 989 -16 968 -16 c 0,57,58
 860 -16 860 -16 792 99 c 0,59,60
 766 142 766 142 765 159 c 1,61,-1
 706 106 l 2,62,63
 682 86 682 86 656 70 c 0,64,65
 522 -16 522 -16 397 -16 c 0,66,67
 286 -16 286 -16 221 92 c 0,68,69
 169 180 169 180 169 303 c 0,70,71
 169 440 169 440 245 581 c 0,72,73
 303 689 303 689 398 773 c 1,74,-1
 380 773 l 1,75,76
 14 759 14 759 -134 626 c 0,77,78
 -184 583 -184 583 -217 583 c 0,0,1
941 745 m 1,79,-1
 685 766 l 2,80,81
 580 773 580 773 519 773 c 1,82,-1
 506 774 l 1,83,84
 446 720 446 720 420 686 c 0,85,86
 344 584 344 584 344 435 c 0,87,88
 344 283 344 283 422 199 c 0,89,90
 474 144 474 144 543 144 c 0,91,92
 609 144 609 144 673 175 c 0,93,94
 699 187 699 187 719 263 c 2,95,-1
 762 441 l 2,96,97
 803 597 803 597 919 721 c 2,98,-1
 941 745 l 1,79,-1
1445 719 m 2,99,100
 1379 719 1379 719 1136 732 c 0,101,102
 1092 735 1092 735 1069 735 c 0,103,104
 1017 735 1017 735 985 679 c 0,105,106
 977 665 977 665 961 631 c 0,107,108
 917 535 917 535 917 433 c 0,109,110
 917 296 917 296 988 210 c 0,111,112
 1043 144 1043 144 1116 144 c 0,113,114
 1181 144 1181 144 1240 171 c 0,115,116
 1261 181 1261 181 1267 190 c 0,117,118
 1306 250 1306 250 1319 347 c 0,119,120
 1334 455 1334 455 1346 497 c 0,121,122
 1366 564 1366 564 1405 631 c 0,123,124
 1432 676 1432 676 1468 718 c 1,125,-1
 1445 719 l 2,99,100
EndSplineSet
Validated: 1
EndChar

StartChar: digit_four
Encoding: 179 57460 57
Width: 469
Flags: W
AnchorPoint: "tehta_contact_up" 360 700 basechar 0
AnchorPoint: "tehta_contact_down" 0 -1400 basechar 0
AnchorPoint: "shook" 810 -900 basechar 0
AnchorPoint: "TehtaBelow" 256 -1850 basechar 0
AnchorPoint: "Inside" 311 -1100 basechar 0
AnchorPoint: "TehtaAbove" 3 1200 basechar 0
LayerCount: 2
Fore
SplineSet
931 -978 m 0,0,1
 931 -1124 931 -1124 816 -1267 c 0,2,3
 682 -1433 682 -1433 463 -1509 c 0,4,5
 319 -1558 319 -1558 158 -1558 c 0,6,7
 11 -1558 11 -1558 -109 -1468 c 0,8,9
 -259 -1356 -259 -1356 -284 -1161 c 0,10,11
 -286 -1145 -286 -1145 -286 -1092 c 0,12,13
 -286 -850 -286 -850 -154 -489 c 1,14,-1
 -91 -326 l 2,15,16
 -12 -122 -12 -122 35 18 c 2,17,-1
 374 1060 l 1,18,19
 620 1792 620 1792 919 2195 c 0,20,21
 1002 2305 1002 2305 1107 2417 c 0,22,23
 1282 2605 1282 2605 1338 2605 c 0,24,25
 1354 2605 1354 2605 1354 2591 c 0,26,27
 1354 2565 1354 2565 1298 2508 c 2,28,-1
 1247 2459 l 2,29,30
 839 2066 839 2066 559 1216 c 2,31,-1
 201 113 l 2,32,33
 170 20 170 20 58 -268 c 0,34,35
 -55 -559 -55 -559 -89 -735 c 0,36,37
 -113 -859 -113 -859 -113 -975 c 0,38,39
 -113 -1116 -113 -1116 -26 -1232 c 0,40,41
 80 -1374 80 -1374 262 -1396 c 0,42,43
 283 -1399 283 -1399 312 -1399 c 0,44,45
 483 -1399 483 -1399 620 -1337 c 0,46,47
 672 -1314 672 -1314 697 -1289 c 0,48,49
 739 -1249 739 -1249 753 -1168 c 0,50,51
 757 -1147 757 -1147 757 -1128 c 0,52,53
 758 -1093 758 -1093 722 -1049 c 0,54,55
 687 -1005 687 -1005 681 -980 c 0,56,57
 678 -969 678 -969 678 -956 c 2,58,-1
 678 -949 l 2,59,60
 678 -884 678 -884 739 -844 c 0,61,62
 775 -820 775 -820 812 -820 c 0,63,64
 873 -820 873 -820 908 -882 c 0,65,66
 931 -924 931 -924 931 -978 c 0,0,1
EndSplineSet
Validated: 33
EndChar

StartChar: digit_five
Encoding: 180 57461 58
Width: 1663
Flags: W
AnchorPoint: "tehta_contact_up" 940 700 basechar 0
AnchorPoint: "tehta_contact_down" 0 -1400 basechar 0
AnchorPoint: "shook" 1640 800 basechar 0
AnchorPoint: "TehtaBelow" 256 -1850 basechar 0
AnchorPoint: "Inside" 1191 450 basechar 0
AnchorPoint: "TehtaAbove" 3 1200 basechar 0
LayerCount: 2
Fore
SplineSet
1426 715 m 2,0,-1
 1097 720 l 2,1,2
 984 722 984 722 951 659 c 1,3,4
 890 568 890 568 890 440 c 0,5,6
 890 370 890 370 929 292 c 0,7,8
 1003 146 1003 146 1161 144 c 0,9,10
 1338 144 1338 144 1429 207 c 2,11,-1
 1478 242 l 2,12,13
 1494 251 1494 251 1511 252 c 128,-1,14
 1528 253 1528 253 1528 237 c 0,15,16
 1528 212 1528 212 1474 157 c 0,17,18
 1370 50 1370 50 1224 11 c 1,19,-1
 1186 2 l 1,20,-1
 1196 -18 l 2,21,22
 1293 -218 1293 -218 1293 -440 c 0,23,24
 1293 -784 1293 -784 1074 -1075 c 0,25,26
 983 -1197 983 -1197 861 -1297 c 0,27,28
 542 -1558 542 -1558 167 -1558 c 0,29,30
 -103 -1558 -103 -1558 -186 -1353 c 0,31,32
 -225 -1255 -225 -1255 -225 -1110 c 0,33,34
 -225 -891 -225 -891 -136 -554 c 0,35,36
 -71 -311 -71 -311 89 181 c 2,37,-1
 374 1060 l 1,38,39
 620 1792 620 1792 919 2195 c 0,40,41
 1002 2305 1002 2305 1107 2417 c 0,42,43
 1282 2605 1282 2605 1338 2605 c 0,44,45
 1354 2605 1354 2605 1354 2591 c 0,46,47
 1354 2565 1354 2565 1298 2508 c 2,48,-1
 1247 2459 l 2,49,50
 867 2093 867 2093 593 1314 c 1,51,-1
 547 1178 l 1,52,-1
 464 924 l 1,53,-1
 460 913 l 1,54,-1
 485 913 l 1,55,-1
 504 913 l 2,56,57
 600 913 600 913 833 891 c 0,58,59
 1184 859 1184 859 1584 859 c 0,60,61
 1685 859 1685 859 1745 889 c 0,62,63
 1768 901 1768 901 1782 901 c 0,64,65
 1799 901 1799 901 1799 885 c 0,66,67
 1799 855 1799 855 1751 812 c 0,68,69
 1670 737 1670 737 1533 717 c 0,70,71
 1509 715 1509 715 1426 715 c 2,0,-1
916 731 m 1,72,73
 537 765 537 765 425 770 c 1,74,-1
 414 770 l 1,75,-1
 132 -102 l 1,76,77
 -29 -620 -29 -620 -48 -877 c 0,78,79
 -51 -926 -51 -926 -51 -979 c 0,80,81
 -51 -1300 -51 -1300 151 -1374 c 0,82,83
 219 -1399 219 -1399 313 -1399 c 0,84,85
 514 -1399 514 -1399 689 -1317 c 0,86,87
 760 -1285 760 -1285 819 -1240 c 0,88,89
 981 -1118 981 -1118 1062 -890 c 0,90,91
 1119 -733 1119 -733 1119 -570 c 0,92,93
 1119 -273 1119 -273 930 -10 c 2,94,-1
 925 -3 l 1,95,96
 715 92 715 92 715 322 c 0,97,98
 715 443 715 443 791 573 c 0,99,100
 833 646 833 646 896 710 c 2,101,-1
 916 731 l 1,72,73
EndSplineSet
Validated: 33
EndChar

StartChar: digit_six
Encoding: 181 57462 59
Width: 2048
Flags: W
AnchorPoint: "tehta_contact_up" 910 700 basechar 0
AnchorPoint: "tehta_contact_down" 0 -1400 basechar 0
AnchorPoint: "shook" 2140 800 basechar 0
AnchorPoint: "TehtaBelow" 256 -1850 basechar 0
AnchorPoint: "Inside" 1131 450 basechar 0
AnchorPoint: "TehtaAbove" 3 1200 basechar 0
LayerCount: 2
Fore
SplineSet
463 914 m 0,0,1
 536 917 536 917 613 918 c 0,2,3
 727 918 727 918 982 897 c 0,4,5
 1445 858 1445 858 2090 858 c 0,6,7
 2230 858 2230 858 2284 889 c 0,8,9
 2306 901 2306 901 2322 901 c 128,-1,10
 2338 901 2338 901 2338 886 c 0,11,12
 2338 855 2338 855 2290 810 c 0,13,14
 2206 734 2206 734 2070 717 c 0,15,16
 2059 716 2059 716 1935 715 c 0,17,18
 1774 715 1774 715 1725 716 c 0,19,20
 1610 716 1610 716 1602 715 c 0,21,22
 1582 711 1582 711 1570 692 c 0,23,24
 1513 597 1513 597 1511 480 c 0,25,26
 1511 325 1511 325 1600 224 c 0,27,28
 1657 159 1657 159 1727 146 c 0,29,30
 1740 144 1740 144 1762 144 c 0,31,32
 1899 144 1899 144 1991 203 c 0,33,34
 2038 234 2038 234 2047 237 c 0,35,36
 2059 242 2059 242 2070 242 c 128,-1,37
 2081 242 2081 242 2082 229 c 0,38,39
 2082 199 2082 199 2027 144 c 0,40,41
 1921 39 1921 39 1759 1 c 0,42,43
 1686 -16 1686 -16 1607 -16 c 0,44,45
 1483 -16 1483 -16 1400 117 c 0,46,47
 1377 154 1377 154 1364 190 c 1,48,49
 1266 92 1266 92 1178 47 c 1,50,-1
 1119 20 l 1,51,-1
 1168 -66 l 1,52,53
 1259 -248 1259 -248 1259 -478 c 0,54,55
 1259 -873 1259 -873 964 -1186 c 0,56,57
 812 -1348 812 -1348 629 -1445 c 1,58,-1
 595 -1462 l 1,59,60
 390 -1558 390 -1558 159 -1558 c 0,61,62
 -140 -1558 -140 -1558 -206 -1291 c 0,63,64
 -225 -1213 -225 -1213 -225 -1110 c 0,65,66
 -225 -891 -225 -891 -136 -554 c 0,67,68
 -71 -311 -71 -311 89 181 c 2,69,-1
 374 1060 l 1,70,71
 620 1792 620 1792 919 2195 c 0,72,73
 1002 2305 1002 2305 1107 2417 c 0,74,75
 1282 2605 1282 2605 1338 2605 c 0,76,77
 1354 2605 1354 2605 1354 2591 c 0,78,79
 1354 2565 1354 2565 1298 2508 c 2,80,-1
 1247 2459 l 2,81,82
 867 2093 867 2093 593 1314 c 1,83,-1
 547 1178 l 1,84,-1
 461 917 l 2,85,86
 461 914 461 914 463 914 c 0,0,1
898 751 m 1,87,88
 775 766 775 766 560 773 c 0,89,90
 508 774 508 774 463 774 c 2,91,-1
 432 774 l 1,92,-1
 416 774 l 1,93,-1
 132 -102 l 1,94,95
 -29 -620 -29 -620 -48 -878 c 0,96,97
 -51 -927 -51 -927 -51 -980 c 0,98,99
 -51 -1314 -51 -1314 171 -1380 c 0,100,101
 232 -1398 232 -1398 312 -1398 c 0,102,103
 709 -1398 709 -1398 917 -1124 c 0,104,105
 993 -1025 993 -1025 1037 -896 c 0,106,107
 1085 -757 1085 -757 1085 -604 c 0,108,109
 1085 -299 1085 -299 892 -48 c 1,110,-1
 855 -2 l 1,111,112
 723 54 723 54 690 220 c 0,113,114
 681 260 681 260 681 297 c 0,115,116
 679 522 679 522 861 714 c 2,117,-1
 883 737 l 1,118,-1
 898 751 l 1,87,88
1489 719 m 2,119,-1
 1033 739 l 1,120,121
 934 739 934 739 884 591 c 0,122,123
 856 507 856 507 856 439 c 0,124,125
 856 362 856 362 890 282 c 0,126,127
 951 143 951 143 1078 143 c 0,128,129
 1160 143 1160 143 1239 179 c 0,130,131
 1262 189 1262 189 1271 198 c 0,132,133
 1313 241 1313 241 1341 409 c 1,134,135
 1361 570 1361 570 1477 704 c 0,136,137
 1489 718 1489 718 1489 719 c 2,119,-1
EndSplineSet
Validated: 33
EndChar

StartChar: digit_seven
Encoding: 182 57463 60
Width: 717
Flags: W
AnchorPoint: "tehta_contact_up" 322 700 basechar 0
AnchorPoint: "tehta_contact_down" -1230 -900 basechar 0
AnchorPoint: "shook" 350 800 basechar 0
AnchorPoint: "TehtaBelow" -894 -1850 basechar 0
AnchorPoint: "Inside" -889 -1100 basechar 0
AnchorPoint: "TehtaAbove" 3 1200 basechar 0
LayerCount: 2
Fore
SplineSet
-1210 -877 m 0,0,1
 -1199 -877 -1199 -877 -1197 -890 c 0,2,3
 -1197 -908 -1197 -908 -1227 -943 c 0,4,5
 -1271 -994 -1271 -994 -1281 -1042 c 0,6,7
 -1286 -1064 -1286 -1064 -1286 -1089 c 0,8,9
 -1286 -1195 -1286 -1195 -1211 -1283 c 0,10,11
 -1129 -1379 -1129 -1379 -993 -1396 c 0,12,13
 -980 -1398 -980 -1398 -945 -1398 c 0,14,15
 -646 -1398 -646 -1398 -471 -1186 c 0,16,17
 -458 -1170 -458 -1170 -442 -1149 c 0,18,19
 -327 -996 -327 -996 -224 -739 c 0,20,21
 -143 -536 -143 -536 -6 -113 c 2,22,-1
 265 724 l 2,23,24
 384 1094 384 1094 409 1167 c 0,25,26
 626 1787 626 1787 911 2180 c 0,27,28
 997 2298 997 2298 1091 2400 c 0,29,30
 1274 2597 1274 2597 1338 2605 c 0,31,32
 1354 2605 1354 2605 1354 2592 c 0,33,34
 1354 2558 1354 2558 1284 2493 c 0,35,36
 874 2117 874 2117 576 1267 c 0,37,38
 548 1186 548 1186 440 847 c 2,39,-1
 165 -1 l 1,40,41
 -33 -644 -33 -644 -198 -936 c 0,42,43
 -281 -1083 -281 -1083 -391 -1208 c 0,44,45
 -615 -1462 -615 -1462 -893 -1534 c 0,46,47
 -989 -1558 -989 -1558 -1086 -1558 c 0,48,49
 -1259 -1558 -1259 -1558 -1366 -1450 c 0,50,51
 -1460 -1355 -1460 -1355 -1460 -1221 c 128,-1,52
 -1460 -1087 -1460 -1087 -1347 -967 c 0,53,54
 -1282 -898 -1282 -898 -1227 -880 c 0,55,56
 -1217 -877 -1217 -877 -1210 -877 c 0,0,1
EndSplineSet
Validated: 1
EndChar

StartChar: digit_eight
Encoding: 183 57464 61
Width: 1333
Flags: W
AnchorPoint: "tehta_contact_up" 322 700 basechar 0
AnchorPoint: "tehta_contact_down" 870 100 basechar 0
AnchorPoint: "shook" 1095 100 basechar 0
AnchorPoint: "TehtaBelow" 596 -250 basechar 0
AnchorPoint: "Inside" 681 450 basechar 0
AnchorPoint: "TehtaAbove" 983 1200 basechar 0
LayerCount: 2
Fore
SplineSet
-1210 -877 m 0,0,1
 -1199 -877 -1199 -877 -1197 -890 c 0,2,3
 -1197 -908 -1197 -908 -1227 -943 c 0,4,5
 -1271 -994 -1271 -994 -1281 -1042 c 0,6,7
 -1286 -1064 -1286 -1064 -1286 -1089 c 0,8,9
 -1286 -1195 -1286 -1195 -1211 -1283 c 0,10,11
 -1129 -1379 -1129 -1379 -993 -1396 c 0,12,13
 -980 -1398 -980 -1398 -945 -1398 c 0,14,15
 -646 -1398 -646 -1398 -471 -1186 c 0,16,17
 -458 -1170 -458 -1170 -442 -1149 c 0,18,19
 -327 -996 -327 -996 -224 -739 c 0,20,21
 -143 -536 -143 -536 -6 -113 c 2,22,-1
 265 724 l 2,23,24
 384 1094 384 1094 409 1167 c 0,25,26
 626 1787 626 1787 911 2180 c 0,27,28
 997 2298 997 2298 1091 2400 c 0,29,30
 1274 2597 1274 2597 1338 2605 c 0,31,32
 1354 2605 1354 2605 1354 2592 c 0,33,34
 1354 2563 1354 2563 1285 2494 c 0,35,36
 1186 2396 1186 2396 1173 2382 c 0,37,38
 933 2117 933 2117 747 1697 c 0,39,40
 633 1441 633 1441 505 1050 c 2,41,-1
 370 633 l 2,42,43
 352 579 352 579 352 576 c 1,44,-1
 388 609 l 2,45,46
 428 647 428 647 484 691 c 0,47,48
 691 855 691 855 826 882 c 0,49,50
 860 889 860 889 893 889 c 0,51,52
 1014 889 1014 889 1099 807 c 0,53,54
 1185 725 1185 725 1185 601 c 0,55,56
 1185 444 1185 444 1031 264 c 0,57,58
 981 206 981 206 934 167 c 1,59,-1
 943 167 l 2,60,61
 983 164 983 164 1032 164 c 0,62,63
 1238 164 1238 164 1346 242 c 2,64,-1
 1405 286 l 2,65,66
 1425 298 1425 298 1445 298 c 2,67,-1
 1449 298 l 2,68,69
 1462 298 1462 298 1462 281 c 0,70,71
 1460 249 1460 249 1399 193 c 0,72,73
 1282 84 1282 84 1099 41 c 0,74,75
 1005 19 1005 19 904 20 c 0,76,77
 821 21 821 21 650 40 c 0,78,79
 538 52 538 52 450 52 c 0,80,81
 357 52 357 52 230 35 c 0,82,83
 179 28 179 28 173 22 c 1,84,85
 173 3 173 3 46 -365 c 0,86,87
 -11 -531 -11 -531 -36 -594 c 0,88,89
 -278 -1196 -278 -1196 -635 -1420 c 0,90,91
 -674 -1445 -674 -1445 -717 -1467 c 0,92,93
 -892 -1558 -892 -1558 -1086 -1558 c 0,94,95
 -1259 -1558 -1259 -1558 -1366 -1450 c 0,96,97
 -1460 -1355 -1460 -1355 -1460 -1221 c 128,-1,98
 -1460 -1087 -1460 -1087 -1347 -967 c 0,99,100
 -1282 -898 -1282 -898 -1227 -880 c 0,101,102
 -1217 -877 -1217 -877 -1210 -877 c 0,0,1
570 196 m 2,103,-1
 716 193 l 2,104,105
 863 193 863 193 913 244 c 0,106,107
 997 330 997 330 1009 442 c 0,108,109
 1010 456 1010 456 1010 470 c 0,110,111
 1010 580 1010 580 933 656 c 0,112,113
 858 729 858 729 748 729 c 0,114,115
 645 729 645 729 515 626 c 1,116,-1
 465 584 l 2,117,118
 320 460 320 460 259 294 c 1,119,-1
 212 148 l 1,120,-1
 332 175 l 1,121,122
 448 196 448 196 570 196 c 2,103,-1
EndSplineSet
Validated: 33
EndChar

StartChar: digit_nine
Encoding: 184 57465 62
Width: 2048
Flags: W
AnchorPoint: "tehta_contact_up" 322 700 basechar 0
AnchorPoint: "tehta_contact_down" 840 100 basechar 0
AnchorPoint: "shook" 1725 100 basechar 0
AnchorPoint: "TehtaBelow" 896 -250 basechar 0
AnchorPoint: "Inside" 621 450 basechar 0
AnchorPoint: "TehtaAbove" 1253 1200 basechar 0
LayerCount: 2
Fore
SplineSet
-1210 -877 m 0,0,1
 -1199 -877 -1199 -877 -1197 -890 c 0,2,3
 -1197 -908 -1197 -908 -1227 -943 c 0,4,5
 -1271 -994 -1271 -994 -1281 -1042 c 0,6,7
 -1286 -1064 -1286 -1064 -1286 -1089 c 0,8,9
 -1286 -1195 -1286 -1195 -1211 -1283 c 0,10,11
 -1129 -1379 -1129 -1379 -993 -1396 c 0,12,13
 -980 -1398 -980 -1398 -945 -1398 c 0,14,15
 -646 -1398 -646 -1398 -471 -1186 c 0,16,17
 -458 -1170 -458 -1170 -442 -1149 c 0,18,19
 -327 -996 -327 -996 -224 -739 c 0,20,21
 -143 -536 -143 -536 -6 -113 c 2,22,-1
 265 724 l 2,23,24
 384 1094 384 1094 409 1167 c 0,25,26
 626 1787 626 1787 911 2180 c 0,27,28
 997 2298 997 2298 1091 2400 c 0,29,30
 1274 2597 1274 2597 1338 2605 c 0,31,32
 1354 2605 1354 2605 1354 2592 c 0,33,34
 1354 2558 1354 2558 1284 2493 c 0,35,36
 828 2076 828 2076 490 1015 c 1,37,-1
 367 620 l 2,38,39
 363 607 363 607 359 598 c 1,40,41
 361 598 361 598 420 654 c 0,42,43
 663 889 663 889 831 889 c 0,44,45
 986 889 986 889 1062 750 c 0,46,47
 1099 681 1099 681 1101 621 c 2,48,-1
 1101 615 l 1,49,50
 1103 615 1103 615 1156 667 c 0,51,52
 1382 889 1382 889 1552 889 c 0,53,54
 1663 889 1663 889 1741 807 c 0,55,56
 1819 724 1819 724 1819 600 c 0,57,58
 1819 397 1819 397 1614 192 c 2,59,-1
 1587 165 l 1,60,-1
 1635 165 l 1,61,62
 1902 171 1902 171 2004 247 c 1,63,-1
 2053 286 l 2,64,65
 2071 298 2071 298 2094 298 c 2,66,-1
 2098 298 l 2,67,68
 2111 298 2111 298 2111 283 c 0,69,70
 2111 224 2111 224 1975 139 c 0,71,72
 1896 90 1896 90 1838 70 c 0,73,74
 1702 22 1702 22 1485 22 c 0,75,76
 1367 22 1367 22 1075 41 c 0,77,78
 882 54 882 54 738 54 c 0,79,80
 570 54 570 54 319 31 c 0,81,82
 191 20 191 20 171 10 c 0,83,84
 169 10 169 10 160 -18 c 0,85,86
 -31 -630 -31 -630 -182 -908 c 0,87,88
 -271 -1072 -271 -1072 -391 -1208 c 0,89,90
 -615 -1462 -615 -1462 -893 -1534 c 0,91,92
 -989 -1558 -989 -1558 -1086 -1558 c 0,93,94
 -1259 -1558 -1259 -1558 -1366 -1450 c 0,95,96
 -1460 -1355 -1460 -1355 -1460 -1221 c 128,-1,97
 -1460 -1087 -1460 -1087 -1347 -967 c 0,98,99
 -1282 -898 -1282 -898 -1227 -880 c 0,100,101
 -1217 -877 -1217 -877 -1210 -877 c 0,0,1
927 461 m 2,102,103
 927 569 927 569 861 647 c 0,104,105
 801 718 801 718 708 728 c 0,106,107
 699 729 699 729 691 729 c 0,108,109
 622 729 622 729 556 680 c 0,110,111
 543 670 543 670 527 657 c 0,112,113
 344 507 344 507 267 313 c 1,114,-1
 210 142 l 1,115,116
 504 184 504 184 692 195 c 0,117,118
 737 197 737 197 781 205 c 0,119,120
 826 213 826 213 836 223 c 0,121,122
 837 225 837 225 851 243 c 0,123,124
 920 334 920 334 927 441 c 1,125,-1
 927 461 l 2,102,103
1646 462 m 0,126,127
 1646 579 1646 579 1569 659 c 0,128,129
 1501 729 1501 729 1407 729 c 0,130,131
 1280 729 1280 729 1152 550 c 0,132,133
 1110 492 1110 492 1046 382 c 2,134,-1
 1008 320 l 2,135,136
 969 263 969 263 925 215 c 2,137,-1
 910 198 l 1,138,-1
 916 197 l 1,139,-1
 938 197 l 2,140,141
 1011 196 1011 196 1292 177 c 0,142,143
 1352 173 1352 173 1380 173 c 0,144,145
 1502 173 1502 173 1548 225 c 0,146,147
 1617 301 1617 301 1638 398 c 0,148,149
 1646 430 1646 430 1646 462 c 0,126,127
EndSplineSet
Validated: 1
EndChar

StartChar: digit_ten
Encoding: 185 57466 63
Width: 1146
Flags: W
AnchorPoint: "tehta_contact_down" 760 100 basechar 0
AnchorPoint: "shook" 755 100 basechar 0
AnchorPoint: "TehtaBelow" 446 -250 basechar 0
AnchorPoint: "Inside" 521 450 basechar 0
AnchorPoint: "tehta_contact_up" 250 650 basechar 0
AnchorPoint: "TehtaAbove" 433 1200 basechar 0
LayerCount: 2
Fore
SplineSet
870 394 m 0,0,1
 870 619 870 619 799 975 c 2,2,-1
 728 1333 l 1,3,4
 681 1594 681 1594 681 1784 c 0,5,6
 681 2119 681 2119 849 2360 c 0,7,8
 915 2454 915 2454 1010 2541 c 0,9,10
 1078 2605 1078 2605 1116 2605 c 0,11,12
 1131 2605 1131 2605 1131 2593 c 2,13,-1
 1131 2589 l 2,14,15
 1131 2562 1131 2562 1055 2486 c 0,16,17
 1029 2460 1029 2460 1022 2452 c 0,18,19
 855 2257 855 2257 855 1914 c 0,20,21
 855 1694 855 1694 924 1356 c 2,22,-1
 994 1008 l 2,23,24
 1044 740 1044 740 1044 534 c 128,-1,25
 1044 328 1044 328 888 167 c 0,26,27
 762 36 762 36 590 -13 c 0,28,29
 517 -34 517 -34 449 -34 c 0,30,31
 260 -34 260 -34 132 71 c 0,32,33
 11 169 11 169 1 312 c 0,34,35
 0 324 0 324 0 336 c 0,36,37
 0 440 0 440 114 567 c 0,38,39
 190 652 190 652 254 682 c 0,40,41
 271 690 271 690 281 690 c 0,42,43
 296 690 296 690 296 676 c 0,44,45
 296 649 296 649 257 613 c 0,46,47
 211 569 211 569 197 546 c 0,48,49
 175 509 175 509 175 464 c 0,50,51
 175 306 175 306 321 209 c 0,52,53
 423 140 423 140 550 128 c 0,54,55
 570 126 570 126 591 126 c 0,56,57
 678 126 678 126 750 155 c 0,58,59
 787 170 787 170 806 191 c 0,60,61
 867 267 867 267 870 394 c 0,0,1
EndSplineSet
Validated: 1
EndChar

StartChar: digit_eleven
Encoding: 186 57467 64
Width: 1168
Flags: W
AnchorPoint: "tehta_contact_down" -60 -250 basechar 0
AnchorPoint: "shook" 755 100 basechar 0
AnchorPoint: "TehtaBelow" 186 -1150 basechar 0
AnchorPoint: "Inside" 521 450 basechar 0
AnchorPoint: "tehta_contact_up" 250 650 basechar 0
AnchorPoint: "TehtaAbove" 433 1200 basechar 0
LayerCount: 2
Fore
SplineSet
870 394 m 0,0,1
 870 619 870 619 799 975 c 2,2,-1
 728 1333 l 1,3,4
 681 1594 681 1594 681 1784 c 0,5,6
 681 2119 681 2119 849 2360 c 0,7,8
 915 2454 915 2454 1010 2541 c 0,9,10
 1078 2605 1078 2605 1116 2605 c 0,11,12
 1131 2605 1131 2605 1131 2593 c 2,13,-1
 1131 2589 l 2,14,15
 1131 2562 1131 2562 1055 2486 c 0,16,17
 1029 2460 1029 2460 1022 2452 c 0,18,19
 855 2257 855 2257 855 1914 c 0,20,21
 855 1694 855 1694 924 1356 c 2,22,-1
 994 1008 l 2,23,24
 1044 740 1044 740 1044 534 c 0,25,26
 1044 286 1044 286 819 109 c 0,27,28
 782 79 782 79 738 52 c 0,29,30
 730 47 730 47 730 45 c 2,31,-1
 753 -121 l 2,32,33
 766 -237 766 -237 766 -338 c 0,34,35
 766 -542 766 -542 608 -704 c 0,36,37
 482 -834 482 -834 310 -884 c 0,38,39
 266 -897 266 -897 223 -902 c 0,40,41
 208 -904 208 -904 173 -904 c 0,42,43
 -5 -904 -5 -904 -133 -810 c 0,44,45
 -175 -780 -175 -780 -205 -742 c 0,46,47
 -278 -653 -278 -653 -278 -545 c 0,48,49
 -278 -446 -278 -446 -212 -359 c 0,50,51
 -186 -325 -186 -325 -142 -281 c 0,52,53
 -44 -180 -44 -180 3 -180 c 0,54,55
 18 -180 18 -180 18 -195 c 0,56,57
 18 -223 18 -223 -22 -261 c 0,58,59
 -68 -303 -68 -303 -81 -325 c 0,60,61
 -104 -361 -104 -361 -104 -407 c 0,62,63
 -104 -557 -104 -557 33 -655 c 0,64,65
 130 -725 130 -725 253 -740 c 0,66,67
 286 -744 286 -744 317 -744 c 0,68,69
 410 -744 410 -744 480 -712 c 0,70,71
 517 -695 517 -695 535 -671 c 0,72,73
 592 -598 592 -598 592 -467 c 0,74,75
 592 -276 592 -276 544 -25 c 1,76,77
 486 -33 486 -33 454 -33 c 2,78,-1
 437 -33 l 2,79,80
 305 -33 305 -33 186 35 c 0,81,82
 27 125 27 125 4 286 c 0,83,84
 3 289 3 289 3 292 c 0,85,86
 0 309 0 309 0 336 c 0,87,88
 0 442 0 442 115 569 c 0,89,90
 192 653 192 653 255 683 c 0,91,92
 271 690 271 690 281 690 c 0,93,94
 296 690 296 690 296 676 c 0,95,96
 296 649 296 649 257 613 c 0,97,98
 211 569 211 569 197 546 c 0,99,100
 175 509 175 509 175 464 c 0,101,102
 175 306 175 306 321 209 c 0,103,104
 423 140 423 140 550 128 c 0,105,106
 570 126 570 126 591 126 c 0,107,108
 678 126 678 126 750 155 c 0,109,110
 787 170 787 170 806 191 c 0,111,112
 867 267 867 267 870 394 c 0,0,1
EndSplineSet
Validated: 1
EndChar

StartChar: digit_twelve
Encoding: 187 57468 65
Width: 983
Flags: W
AnchorPoint: "tehta_contact_down" 177 200 basechar 0
AnchorPoint: "shook" 857 600 basechar 0
AnchorPoint: "TehtaBelow" 393 -250 basechar 0
AnchorPoint: "Inside" 498 450 basechar 0
AnchorPoint: "tehta_contact_up" 247 700 basechar 0
AnchorPoint: "TehtaAbove" 670 1200 basechar 0
LayerCount: 2
Fore
SplineSet
29 327 m 0,0,1
 29 514 29 514 172 676 c 0,2,3
 287 807 287 807 439 862 c 0,4,5
 497 884 497 884 561 888 c 1,6,-1
 576 888 l 2,7,8
 737 888 737 888 837 787 c 0,9,10
 951 672 951 672 951 448 c 0,11,12
 951 -165 951 -165 460 -786 c 0,13,14
 278 -1017 278 -1017 30 -1243 c 0,15,16
 -62 -1327 -62 -1327 -95 -1338 c 0,17,18
 -105 -1341 -105 -1341 -113 -1341 c 0,19,20
 -127 -1341 -127 -1341 -127 -1326 c 0,21,22
 -127 -1299 -127 -1299 -72 -1243 c 2,23,-1
 -27 -1201 l 1,24,25
 643 -584 643 -584 755 63 c 0,26,27
 777 189 777 189 777 316 c 0,28,29
 777 532 777 532 660 645 c 0,30,31
 573 728 573 728 444 728 c 0,32,33
 306 728 306 728 259 658 c 0,34,35
 205 573 205 573 204 461 c 0,36,37
 204 342 204 342 277 252 c 0,38,39
 346 166 346 166 455 148 c 0,40,41
 478 144 478 144 503 144 c 0,42,43
 568 144 568 144 629 178 c 0,44,45
 660 195 660 195 676 195 c 0,46,47
 691 195 691 195 691 182 c 0,48,49
 691 155 691 155 637 104 c 0,50,51
 542 12 542 12 421 -10 c 0,52,53
 390 -16 390 -16 359 -16 c 0,54,55
 220 -16 220 -16 125 82 c 0,56,57
 29 182 29 182 29 327 c 0,0,1
EndSplineSet
Validated: 1
EndChar

StartChar: doubledot_above
Encoding: 137 57410 66
Width: 0
GlyphClass: 4
Flags: W
AnchorPoint: "TehtaAbove" 196 1269 mark 0
AnchorPoint: "mkmk_up" 196 1269 mark 0
AnchorPoint: "mkmk_up" 366 1779 basemark 0
LayerCount: 2
Fore
SplineSet
38 1276 m 0,0,1
 22 1276 22 1276 16 1293 c 0,2,3
 15 1297 15 1297 15 1300 c 0,4,5
 15 1324 15 1324 71 1475 c 0,6,7
 129 1632 129 1632 154 1648 c 0,8,9
 169 1658 169 1658 186 1658 c 0,10,11
 217 1658 217 1658 228 1625 c 0,12,13
 231 1616 231 1616 231 1606 c 0,14,15
 231 1568 231 1568 112 1373 c 2,16,-1
 71 1306 l 2,17,18
 56 1276 56 1276 38 1276 c 0,0,1
351 1276 m 0,19,20
 332 1276 332 1276 329 1301 c 0,21,22
 329 1327 329 1327 386 1478 c 0,23,24
 443 1632 443 1632 468 1648 c 0,25,26
 482 1658 482 1658 499 1658 c 0,27,28
 532 1658 532 1658 542 1624 c 0,29,30
 544 1616 544 1616 544 1606 c 0,31,32
 544 1561 544 1561 402 1333 c 0,33,34
 375 1290 375 1290 372 1287 c 0,35,36
 363 1276 363 1276 351 1276 c 0,19,20
EndSplineSet
Validated: 1
Ligature2: "Ligatures subtable" amatixe amatixe
LCarets2: 1 0
EndChar

StartChar: tripledot_below
Encoding: 136 57409 67
Width: 0
GlyphClass: 4
AnchorPoint: "TehtaBelow" 480 -350 mark 0
AnchorPoint: "mkmk_down" 480 -350 mark 0
AnchorPoint: "mkmk_down" 280 -950 basemark 0
LayerCount: 2
Fore
SplineSet
171 -675 m 0,0,1
 130 -675 130 -675 116 -639 c 0,2,3
 113 -628 113 -628 113 -617 c 0,4,5
 113 -588 113 -588 143 -555 c 0,6,7
 168 -527 168 -527 238 -466 c 0,8,9
 331 -385 331 -385 365 -347 c 0,10,11
 392 -317 392 -317 404 -312 c 0,12,13
 410 -311 410 -311 416 -311 c 0,14,15
 439 -317 439 -317 443 -341 c 1,16,17
 443 -383 443 -383 333 -531 c 0,18,19
 277 -605 277 -605 243 -639 c 0,20,21
 206 -675 206 -675 171 -675 c 0,0,1
520 -517 m 0,22,23
 520 -318 520 -318 570 -318 c 0,24,25
 594 -318 594 -318 602 -355 c 2,26,-1
 624 -489 l 1,27,28
 642 -571 642 -571 678 -647 c 0,29,30
 694 -683 694 -683 694 -703 c 0,31,32
 694 -744 694 -744 663 -761 c 0,33,34
 651 -767 651 -767 636 -767 c 0,35,36
 581 -767 581 -767 547 -684 c 0,37,38
 520 -616 520 -616 520 -517 c 0,22,23
350 -901 m 1,39,40
 312 -901 312 -901 293 -863 c 0,41,42
 284 -844 284 -844 284 -821 c 0,43,44
 284 -767 284 -767 383 -553 c 2,45,-1
 413 -487 l 2,46,47
 430 -447 430 -447 441 -438 c 0,48,49
 450 -431 450 -431 461 -431 c 0,50,51
 482 -431 482 -431 488 -452 c 0,52,53
 490 -458 490 -458 489 -465 c 0,54,55
 454 -755 454 -755 430 -825 c 0,56,57
 409 -888 409 -888 368 -899 c 1,58,-1
 350 -901 l 1,39,40
EndSplineSet
Validated: 1
EndChar

StartChar: doubledot_below
Encoding: 138 57411 68
Width: 0
GlyphClass: 4
Flags: W
AnchorPoint: "mkmk_down" 220 -860 basemark 0
AnchorPoint: "mkmk_down" 370 -410 mark 0
AnchorPoint: "TehtaBelow" 370 -410 mark 0
LayerCount: 2
Fore
SplineSet
52 -775 m 0,0,1
 20 -775 20 -775 10 -744 c 0,2,3
 7 -735 7 -735 7 -726 c 0,4,5
 7 -688 7 -688 99 -557 c 2,6,-1
 185 -435 l 2,7,8
 206 -404 206 -404 223 -404 c 0,9,10
 243 -404 243 -404 243 -429 c 2,11,-1
 243 -432 l 1,12,13
 135 -718 135 -718 86 -761 c 0,14,15
 71 -775 71 -775 52 -775 c 0,0,1
365 -775 m 0,16,17
 334 -775 334 -775 323 -745 c 0,18,19
 320 -736 320 -736 320 -725 c 0,20,21
 320 -688 320 -688 412 -557 c 2,22,-1
 498 -435 l 2,23,24
 519 -406 519 -406 536 -404 c 1,25,26
 555 -408 555 -408 557 -429 c 2,27,-1
 557 -432 l 1,28,29
 448 -709 448 -709 406 -755 c 0,30,31
 388 -775 388 -775 365 -775 c 0,16,17
EndSplineSet
Validated: 1
Ligature2: "Ligatures subtable" unutixe unutixe
LCarets2: 1 0
EndChar

StartChar: bar_below
Encoding: 150 57425 69
Width: 0
GlyphClass: 4
Flags: W
AnchorPoint: "TehtaBelow" 480 -190 mark 0
AnchorPoint: "mkmk_down" 460 -250 basemark 0
AnchorPoint: "mkmk_down" 560 48 mark 0
LayerCount: 2
Fore
SplineSet
768 -103 m 4,0,1
 869 -103 869 -103 911 -69 c 6,2,-1
 943 -43 l 6,3,4
 957 -34 957 -34 975 -29 c 5,5,-1
 984 -29 l 6,6,7
 994 -30 994 -30 994 -39 c 4,8,9
 994 -63 994 -63 945 -110 c 4,10,11
 848 -201 848 -201 717 -221 c 4,12,13
 687 -226 687 -226 656 -226 c 4,14,15
 580 -226 580 -226 432 -198 c 4,16,17
 310 -174 310 -174 237 -174 c 4,18,19
 134 -174 134 -174 73 -220 c 4,20,21
 42 -244 42 -244 31 -247 c 4,22,23
 26 -248 26 -248 19 -248 c 4,24,25
 8 -248 8 -248 8 -238 c 4,26,27
 8 -213 8 -213 58 -165 c 4,28,29
 154 -75 154 -75 286 -55 c 4,30,31
 317 -51 317 -51 347 -51 c 4,32,33
 420 -51 420 -51 574 -80 c 4,34,35
 697 -103 697 -103 768 -103 c 4,0,1
EndSplineSet
Validated: 1
Substitution2: "Single Substitution lookup 37 subtable" bar_below_narrow
Substitution2: "Single Substitution lookup 36 subtable" bar_below_medium
Substitution2: "Single Substitution lookup 35 subtable" bar_below_wide
Substitution2: "Single Substitution lookup 34 subtable" bar_below_narrow
Substitution2: "Single Substitution lookup 33 subtable" bar_below_medium
Substitution2: "Single Substitution lookup 32 subtable" bar_below_wide
Substitution2: "Single Substitution lookup 31 subtable" bar_below_narrow
Substitution2: "Single Substitution lookup 30 subtable" bar_below_medium
Substitution2: "Single Substitution lookup 29 subtable" bar_below_wide
Substitution2: "Single Substitution lookup 28 subtable" bar_below_narrow
Substitution2: "Single Substitution lookup 27 subtable" bar_below_medium
Substitution2: "Single Substitution lookup 26 subtable" bar_below_wide
EndChar

StartChar: tecco_above
Encoding: 141 57414 70
Width: 0
GlyphClass: 4
Flags: W
AnchorPoint: "TehtaAbove" 46 1139 mark 0
AnchorPoint: "mkmk_up" 46 1139 mark 0
AnchorPoint: "mkmk_up" 246 1739 basemark 0
LayerCount: 2
Fore
SplineSet
42 1104 m 4,0,1
 21 1103 21 1103 18 1127 c 4,2,3
 18 1166 18 1166 469 1611 c 6,4,-1
 578 1718 l 6,5,6
 612 1751 612 1751 639 1751 c 4,7,8
 672 1751 672 1751 682 1722 c 4,9,10
 685 1714 685 1714 685 1705 c 4,11,12
 685 1681 685 1681 657 1651 c 4,13,14
 648 1641 648 1641 545 1542 c 4,15,16
 211 1225 211 1225 86 1130 c 4,17,18
 51 1104 51 1104 42 1104 c 4,0,1
EndSplineSet
Validated: 1
EndChar

StartChar: amatixe
Encoding: 139 57412 71
Width: 0
GlyphClass: 4
Flags: W
AnchorPoint: "mkmk_up" 206 1749 basemark 0
AnchorPoint: "mkmk_up" 46 1269 mark 0
AnchorPoint: "TehtaAbove" 46 1269 mark 0
LayerCount: 2
Fore
SplineSet
45 1276 m 4,0,1
 29 1276 29 1276 24 1294 c 4,2,3
 23 1297 23 1297 23 1301 c 4,4,5
 23 1324 23 1324 78 1474 c 4,6,7
 137 1632 137 1632 162 1648 c 4,8,9
 177 1658 177 1658 194 1658 c 4,10,11
 225 1658 225 1658 236 1625 c 4,12,13
 239 1616 239 1616 239 1606 c 4,14,15
 239 1566 239 1566 117 1370 c 5,16,-1
 79 1306 l 6,17,18
 61 1277 61 1277 45 1276 c 4,0,1
EndSplineSet
Validated: 1
EndChar

StartChar: leftcurl_above
Encoding: 147 57420 72
Width: 0
GlyphClass: 4
Flags: W
AnchorPoint: "tehta_contact_up" 122 791 mark 0
AnchorPoint: "mkmk_up" 612 791 mark 0
AnchorPoint: "mkmk_up" 1012 1991 basemark 0
LayerCount: 2
Fore
SplineSet
670 1631 m 0,0,1
 670 1720 670 1720 757 1816 c 0,2,3
 848 1917 848 1917 965 1948 c 0,4,5
 1002 1958 1002 1958 1038 1958 c 0,6,7
 1141 1958 1141 1958 1203 1886 c 0,8,9
 1250 1830 1250 1830 1250 1755 c 0,10,11
 1250 1542 1250 1542 882 1258 c 0,12,13
 782 1181 782 1181 660 1103 c 2,14,-1
 94 749 l 2,15,16
 77 741 77 741 68 741 c 0,17,18
 57 741 57 741 57 751 c 0,19,20
 57 790 57 790 176 871 c 0,21,22
 211 894 211 894 470 1053 c 1,23,-1
 753 1233 l 1,24,25
 992 1391 992 1391 1070 1513 c 0,26,27
 1116 1586 1116 1586 1116 1653 c 0,28,29
 1116 1737 1116 1737 1051 1791 c 0,30,31
 998 1835 998 1835 924 1835 c 0,32,33
 829 1835 829 1835 810 1775 c 0,34,35
 804 1757 804 1757 804 1733 c 0,36,37
 804 1652 804 1652 875 1622 c 0,38,39
 897 1614 897 1614 913 1614 c 0,40,41
 922 1614 922 1614 950 1631 c 0,42,43
 968 1642 968 1642 981 1642 c 0,44,45
 992 1642 992 1642 992 1632 c 0,46,47
 992 1614 992 1614 951 1570 c 0,48,49
 876 1492 876 1492 799 1492 c 0,50,51
 726 1492 726 1492 690 1555 c 0,52,53
 670 1590 670 1590 670 1631 c 0,0,1
EndSplineSet
Validated: 1
Substitution2: "Single Substitution lookup 37 subtable" leftcurl_above_narrow
Substitution2: "Single Substitution lookup 36 subtable" leftcurl_above_medium
Substitution2: "Single Substitution lookup 35 subtable" leftcurl_above_wide
Substitution2: "Single Substitution lookup 34 subtable" leftcurl_above_narrow
Substitution2: "Single Substitution lookup 33 subtable" leftcurl_above_medium
Substitution2: "Single Substitution lookup 32 subtable" leftcurl_above_wide
Substitution2: "Single Substitution lookup 31 subtable" leftcurl_above_narrow
Substitution2: "Single Substitution lookup 30 subtable" leftcurl_above_medium
Substitution2: "Single Substitution lookup 29 subtable" leftcurl_above_wide
Substitution2: "Single Substitution lookup 28 subtable" leftcurl_above_narrow
Substitution2: "Single Substitution lookup 27 subtable" leftcurl_above_medium
Substitution2: "Single Substitution lookup 26 subtable" leftcurl_above_wide
Substitution2: "Single Substitution lookup 19 subtable" leftcurl_above_narrow
Substitution2: "Single Substitution lookup 18 subtable" leftcurl_above_narrow
Substitution2: "Single Substitution lookup 17 subtable" leftcurl_above_narrow
Substitution2: "Single Substitution lookup 16 subtable" leftcurl_above_narrow
EndChar

StartChar: bar_above
Encoding: 149 57424 73
Width: 0
GlyphClass: 4
Flags: W
AnchorPoint: "mkmk_up" 398 1321 mark 0
AnchorPoint: "mkmk_up" 498 1620 basemark 0
AnchorPoint: "TehtaAbove" 498 1620 mark 0
LayerCount: 2
Fore
SplineSet
748 1537 m 0,0,1
 849 1537 849 1537 891 1571 c 2,2,-1
 923 1597 l 2,3,4
 937 1606 937 1606 955 1611 c 1,5,-1
 964 1611 l 2,6,7
 974 1610 974 1610 974 1601 c 0,8,9
 974 1577 974 1577 925 1530 c 0,10,11
 828 1439 828 1439 697 1419 c 0,12,13
 667 1414 667 1414 636 1414 c 0,14,15
 560 1414 560 1414 412 1442 c 0,16,17
 290 1466 290 1466 217 1466 c 0,18,19
 114 1466 114 1466 53 1420 c 0,20,21
 22 1396 22 1396 11 1393 c 0,22,23
 6 1392 6 1392 -1 1392 c 0,24,25
 -12 1392 -12 1392 -12 1402 c 0,26,27
 -12 1427 -12 1427 38 1475 c 0,28,29
 134 1565 134 1565 266 1585 c 0,30,31
 297 1589 297 1589 327 1589 c 0,32,33
 400 1589 400 1589 554 1560 c 0,34,35
 677 1537 677 1537 748 1537 c 0,0,1
EndSplineSet
Validated: 1
Substitution2: "Single Substitution lookup 37 subtable" bar_above_narrow
Substitution2: "Single Substitution lookup 36 subtable" bar_above_medium
Substitution2: "Single Substitution lookup 35 subtable" bar_above_wide
Substitution2: "Single Substitution lookup 34 subtable" bar_above_narrow
Substitution2: "Single Substitution lookup 33 subtable" bar_above_medium
Substitution2: "Single Substitution lookup 32 subtable" bar_above_wide
Substitution2: "Single Substitution lookup 31 subtable" bar_above_narrow
Substitution2: "Single Substitution lookup 30 subtable" bar_above_medium
Substitution2: "Single Substitution lookup 29 subtable" bar_above_wide
Substitution2: "Single Substitution lookup 28 subtable" bar_above_narrow
Substitution2: "Single Substitution lookup 27 subtable" bar_above_medium
Substitution2: "Single Substitution lookup 26 subtable" bar_above_wide
EndChar

StartChar: rightcurl_above
Encoding: 145 57418 74
Width: 0
GlyphClass: 4
Flags: W
AnchorPoint: "mkmk_up" 1032 1991 basemark 0
AnchorPoint: "mkmk_up" 632 791 mark 0
AnchorPoint: "tehta_contact_up" 82 791 mark 0
LayerCount: 2
Fore
SplineSet
34 741 m 4,0,1
 23 741 23 741 23 750 c 4,2,3
 23 760 23 760 31 773 c 6,4,-1
 411 1332 l 6,5,6
 686 1730 686 1730 916 1861 c 4,7,8
 1015 1917 1015 1917 1099 1917 c 4,9,10
 1197 1917 1197 1917 1257 1845 c 4,11,12
 1304 1788 1304 1788 1304 1707 c 4,13,14
 1304 1584 1304 1584 1198 1473 c 4,15,16
 1112 1382 1112 1382 1012 1357 c 4,17,18
 986 1350 986 1350 962 1350 c 4,19,20
 885 1350 885 1350 844 1406 c 4,21,22
 821 1438 821 1438 821 1478 c 4,23,24
 821 1543 821 1543 891 1612 c 4,25,26
 942 1663 942 1663 974 1663 c 6,27,-1
 975 1663 l 6,28,29
 986 1663 986 1663 986 1653 c 4,30,31
 986 1640 986 1640 969 1618 c 4,32,33
 955 1600 955 1600 955 1583 c 4,34,35
 955 1546 955 1546 983 1512 c 4,36,37
 1015 1473 1015 1473 1074 1473 c 4,38,39
 1129 1473 1129 1473 1148 1507 c 4,40,41
 1151 1514 1151 1514 1159 1534 c 4,42,43
 1170 1568 1170 1568 1170 1602 c 4,44,45
 1170 1695 1170 1695 1102 1752 c 4,46,47
 1052 1794 1052 1794 987 1794 c 4,48,49
 838 1794 838 1794 642 1543 c 5,50,-1
 620 1514 l 6,51,52
 565 1442 565 1442 376 1165 c 6,53,-1
 320 1082 l 5,54,-1
 153 837 l 6,55,56
 110 777 110 777 71 755 c 4,57,58
 66 753 66 753 61 750 c 4,59,60
 43 741 43 741 34 741 c 4,0,1
EndSplineSet
Validated: 1
Substitution2: "Single Substitution lookup 37 subtable" rightcurl_above_narrow
Substitution2: "Single Substitution lookup 36 subtable" rightcurl_above_medium
Substitution2: "Single Substitution lookup 35 subtable" rightcurl_above_wide
Substitution2: "Single Substitution lookup 34 subtable" rightcurl_above_narrow
Substitution2: "Single Substitution lookup 33 subtable" rightcurl_above_medium
Substitution2: "Single Substitution lookup 32 subtable" rightcurl_above_wide
Substitution2: "Single Substitution lookup 31 subtable" rightcurl_above_narrow
Substitution2: "Single Substitution lookup 30 subtable" rightcurl_above_medium
Substitution2: "Single Substitution lookup 29 subtable" rightcurl_above_wide
Substitution2: "Single Substitution lookup 28 subtable" rightcurl_above_narrow
Substitution2: "Single Substitution lookup 27 subtable" rightcurl_above_medium
Substitution2: "Single Substitution lookup 26 subtable" rightcurl_above_wide
Substitution2: "Single Substitution lookup 19 subtable" rightcurl_above_narrow
Substitution2: "Single Substitution lookup 18 subtable" rightcurl_above_narrow
Substitution2: "Single Substitution lookup 17 subtable" rightcurl_above_narrow
Substitution2: "Single Substitution lookup 16 subtable" rightcurl_above_narrow
EndChar

StartChar: rightcurl_below
Encoding: 146 57419 75
Width: 0
GlyphClass: 4
Flags: W
AnchorPoint: "mkmk_down" 1049 97 mark 0
AnchorPoint: "tehta_contact_down" 1049 97 mark 0
AnchorPoint: "mkmk_down" 649 -1103 basemark 0
LayerCount: 2
Fore
SplineSet
268 -1222 m 0,0,1
 160 -1222 160 -1222 101 -1140 c 0,2,3
 61 -1085 61 -1085 61 -1013 c 0,4,5
 61 -879 61 -879 210 -675 c 0,6,7
 291 -564 291 -564 410 -445 c 0,8,9
 548 -307 548 -307 1015 101 c 0,10,11
 1050 131 1050 131 1074 132 c 0,12,13
 1084 132 1084 132 1085 124 c 0,14,15
 1085 91 1085 91 973 -8 c 2,16,-1
 848 -117 l 1,17,18
 522 -407 522 -407 414 -519 c 0,19,20
 277 -663 277 -663 226 -782 c 0,21,22
 196 -851 196 -851 196 -912 c 0,23,24
 196 -1005 196 -1005 265 -1060 c 0,25,26
 315 -1099 315 -1099 383 -1099 c 0,27,28
 468 -1099 468 -1099 489 -1043 c 0,29,30
 498 -1019 498 -1019 498 -984 c 0,31,32
 498 -890 498 -890 421 -858 c 0,33,34
 407 -853 407 -853 395 -851 c 2,35,-1
 387 -851 l 1,36,37
 331 -897 331 -897 308 -897 c 0,38,39
 298 -897 298 -897 298 -888 c 0,40,41
 298 -866 298 -866 340 -817 c 0,42,43
 420 -733 420 -733 498 -729 c 0,44,45
 570 -729 570 -729 609 -793 c 0,46,47
 633 -832 633 -832 633 -882 c 0,48,49
 633 -976 633 -976 546 -1076 c 0,50,51
 457 -1180 457 -1180 342 -1212 c 0,52,53
 304 -1222 304 -1222 268 -1222 c 0,0,1
EndSplineSet
Validated: 1
Substitution2: "Single Substitution lookup 37 subtable" rightcurl_below_narrow
Substitution2: "Single Substitution lookup 36 subtable" rightcurl_below_medium
Substitution2: "Single Substitution lookup 35 subtable" rightcurl_below_wide
Substitution2: "Single Substitution lookup 34 subtable" rightcurl_below_narrow
Substitution2: "Single Substitution lookup 33 subtable" rightcurl_below_medium
Substitution2: "Single Substitution lookup 32 subtable" rightcurl_below_wide
Substitution2: "Single Substitution lookup 31 subtable" rightcurl_below_narrow
Substitution2: "Single Substitution lookup 30 subtable" rightcurl_below_medium
Substitution2: "Single Substitution lookup 29 subtable" rightcurl_below_wide
Substitution2: "Single Substitution lookup 28 subtable" rightcurl_below_narrow
Substitution2: "Single Substitution lookup 27 subtable" rightcurl_below_medium
Substitution2: "Single Substitution lookup 26 subtable" rightcurl_below_wide
EndChar

StartChar: unutixe
Encoding: 140 57413 76
Width: 0
GlyphClass: 4
Flags: W
AnchorPoint: "TehtaBelow" 230 -420 mark 0
AnchorPoint: "mkmk_down" 230 -420 mark 0
AnchorPoint: "mkmk_down" 80 -870 basemark 0
LayerCount: 2
Fore
SplineSet
60 -775 m 4,0,1
 28 -775 28 -775 17 -745 c 4,2,3
 14 -736 14 -736 14 -725 c 4,4,5
 14 -691 14 -691 109 -549 c 4,6,7
 198 -416 198 -416 230 -404 c 5,8,9
 251 -404 251 -404 251 -429 c 6,10,-1
 251 -432 l 5,11,12
 142 -709 142 -709 100 -756 c 4,13,14
 82 -775 82 -775 60 -775 c 4,0,1
EndSplineSet
Validated: 1
EndChar

StartChar: tengwa_mh
Encoding: 131 57402 77
Width: 1929
Flags: W
AnchorPoint: "tehta_contact_up" 310 700 basechar 0
AnchorPoint: "tehta_contact_down" 70 50 basechar 0
AnchorPoint: "shook" 1510 100 basechar 0
AnchorPoint: "TehtaBelow" 566 -250 basechar 0
AnchorPoint: "Inside" 651 450 basechar 0
AnchorPoint: "TehtaAbove" 1119 1200 basechar 0
LayerCount: 2
Fore
SplineSet
-174 675 m 0,0,1
 -174 705 -174 705 -119 761 c 0,2,3
 -16 862 -16 862 135 895 c 0,4,5
 174 903 174 903 214 906 c 2,6,-1
 243 906 l 2,7,8
 330 906 330 906 368 825 c 0,9,10
 389 781 389 781 389 723 c 0,11,12
 389 689 389 689 376 627 c 1,13,14
 377 627 377 627 402 650 c 0,15,16
 644 889 644 889 821 889 c 0,17,18
 971 889 971 889 1047 751 c 0,19,20
 1086 681 1086 681 1087 621 c 0,21,22
 1087 618 1087 618 1088 615 c 1,23,24
 1101 625 1101 625 1182 701 c 0,25,26
 1320 831 1320 831 1430 869 c 0,27,28
 1487 888 1487 888 1543 888 c 0,29,30
 1650 888 1650 888 1727 808 c 0,31,32
 1807 724 1807 724 1807 598 c 0,33,34
 1807 427 1807 427 1651 244 c 0,35,36
 1605 190 1605 190 1561 153 c 0,37,38
 1550 144 1550 144 1550 143 c 128,-1,39
 1550 142 1550 142 1570 135 c 0,40,41
 1592 129 1592 129 1619 115 c 0,42,43
 1739 58 1739 58 1799 -43 c 0,44,45
 1843 -118 1843 -118 1843 -207 c 0,46,47
 1843 -334 1843 -334 1738 -461 c 0,48,49
 1623 -600 1623 -600 1449 -655 c 0,50,51
 1361 -683 1361 -683 1268 -683 c 0,52,53
 1079 -683 1079 -683 957 -585 c 0,54,55
 869 -515 869 -515 860 -430 c 0,56,57
 859 -423 859 -423 859 -415 c 0,58,59
 859 -344 859 -344 932 -264 c 1,60,61
 997 -199 997 -199 1043 -192 c 0,62,63
 1060 -192 1060 -192 1060 -208 c 0,64,65
 1060 -225 1060 -225 1037 -254 c 0,66,67
 1015 -281 1015 -281 1015 -305 c 0,68,69
 1015 -375 1015 -375 1092 -441 c 0,70,71
 1197 -531 1197 -531 1360 -538 c 2,72,-1
 1391 -539 l 2,73,74
 1489 -539 1489 -539 1571 -506 c 0,75,76
 1627 -483 1627 -483 1651 -448 c 0,77,78
 1687 -394 1687 -394 1687 -315 c 0,79,80
 1687 -196 1687 -196 1593 -102 c 0,81,82
 1508 -17 1508 -17 1374 13 c 0,83,84
 1211 50 1211 50 967 50 c 0,85,86
 636 50 636 50 147 2 c 1,87,-1
 -22 -16 l 2,88,89
 -36 -16 -36 -16 -36 -4 c 0,90,91
 -36 20 -36 20 6 67 c 0,92,93
 29 93 29 93 37 105 c 0,94,95
 122 232 122 232 182 431 c 0,96,97
 215 538 215 538 215 590 c 0,98,99
 215 689 215 689 154 729 c 0,100,101
 128 747 128 747 94 747 c 0,102,103
 -15 747 -15 747 -90 695 c 0,104,105
 -131 667 -131 667 -143 664 c 0,106,107
 -150 662 -150 662 -158 662 c 0,108,109
 -174 662 -174 662 -174 675 c 0,0,1
914 462 m 0,110,111
 914 524 914 524 880 594 c 0,112,113
 814 729 814 729 675 729 c 0,114,115
 525 729 525 729 361 475 c 0,116,117
 325 420 325 420 224 238 c 0,118,119
 192 178 192 178 173 151 c 2,120,-1
 162 135 l 1,121,-1
 164 135 l 1,122,-1
 736 186 l 1,123,124
 797 196 797 196 822 223 c 0,125,126
 830 232 830 232 849 259 c 0,127,128
 914 356 914 356 914 462 c 0,110,111
1078 193 m 0,129,130
 1193 193 1193 193 1341 182 c 0,131,132
 1366 180 1366 180 1386 180 c 0,133,134
 1476 180 1476 180 1517 210 c 0,135,136
 1529 219 1529 219 1540 231 c 0,137,138
 1624 326 1624 326 1633 444 c 1,139,-1
 1633 466 l 2,140,141
 1633 591 1633 591 1544 670 c 0,142,143
 1491 716 1491 716 1427 727 c 0,144,145
 1413 728 1413 728 1392 728 c 0,146,147
 1258 728 1258 728 1118 520 c 0,148,149
 1101 496 1101 496 1016 355 c 0,150,151
 997 322 997 322 984 304 c 0,152,153
 948 253 948 253 888 188 c 1,154,155
 930 193 930 193 1078 193 c 0,129,130
EndSplineSet
Validated: 1
EndChar

StartChar: tengwa_exclamation
Encoding: 167 57445 78
Width: 830
Flags: W
LayerCount: 2
Fore
SplineSet
-72 -253 m 4,0,1
 -86 -253 -86 -253 -86 -238 c 4,2,3
 -86 -214 -86 -214 -32 -157 c 4,4,5
 41 -79 41 -79 66 -41 c 4,6,7
 142 76 142 76 181 224 c 4,8,9
 225 390 225 390 262 717 c 4,10,11
 300 1046 300 1046 339 1200 c 4,12,13
 409 1476 409 1476 574 1666 c 4,14,15
 597 1693 597 1693 623 1719 c 4,16,17
 724 1822 724 1822 768 1822 c 4,18,19
 785 1822 785 1822 785 1808 c 4,20,21
 785 1785 785 1785 743 1741 c 4,22,23
 674 1668 674 1668 644 1626 c 4,24,25
 606 1572 606 1572 577 1508 c 4,26,27
 496 1329 496 1329 458 1030 c 6,28,-1
 413 645 l 5,29,30
 384 432 384 432 334 278 c 4,31,32
 266 69 266 69 119 -105 c 4,33,34
 20 -222 20 -222 -48 -248 c 4,35,36
 -62 -253 -62 -253 -72 -253 c 4,0,1
EndSplineSet
Validated: 1
EndChar

StartChar: tengwa_question
Encoding: 168 57446 79
Width: 1376
Flags: W
LayerCount: 2
Fore
SplineSet
174 1354 m 0,0,1
 174 1396 174 1396 261 1467 c 0,2,3
 372 1556 372 1556 494 1590 c 0,4,5
 541 1602 541 1602 581 1602 c 0,6,7
 708 1602 708 1602 732 1478 c 0,8,9
 738 1453 738 1453 738 1424 c 0,10,11
 738 1367 738 1367 729 1350 c 1,12,13
 731 1350 731 1350 775 1386 c 0,14,15
 956 1536 956 1536 1151 1536 c 0,16,17
 1263 1536 1263 1536 1332 1441 c 0,18,19
 1386 1366 1386 1366 1386 1269 c 2,20,-1
 1386 1255 l 2,21,22
 1386 994 1386 994 1082 782 c 0,23,24
 978 709 978 709 816 636 c 0,25,26
 810 634 810 634 809 633 c 1,27,28
 922 576 922 576 934 431 c 0,29,30
 935 417 935 417 935 404 c 0,31,32
 935 -27 935 -27 311 -302 c 1,33,-1
 26 -423 l 2,34,35
 -104 -481 -104 -481 -165 -522 c 0,36,37
 -248 -579 -248 -579 -293 -646 c 0,38,39
 -567 -1054 -567 -1054 -867 -1358 c 0,40,41
 -961 -1453 -961 -1453 -1035 -1514 c 0,42,43
 -1089 -1559 -1089 -1559 -1119 -1559 c 0,44,45
 -1134 -1559 -1134 -1559 -1134 -1545 c 0,46,47
 -1134 -1519 -1134 -1519 -1077 -1461 c 2,48,-1
 -924 -1312 l 1,49,-1
 -868 -1254 l 1,50,51
 -526 -890 -526 -890 -175 -278 c 2,52,-1
 -106 -157 l 2,53,54
 11 53 11 53 259 532 c 2,55,-1
 329 666 l 2,56,57
 437 872 437 872 510 1074 c 0,58,59
 564 1224 564 1224 564 1294 c 0,60,61
 564 1380 564 1380 510 1421 c 0,62,63
 481 1442 481 1442 442 1442 c 0,64,65
 354 1442 354 1442 273 1384 c 0,66,67
 222 1349 222 1349 210 1344 c 0,68,69
 200 1340 200 1340 190 1340 c 0,70,71
 174 1340 174 1340 174 1354 c 0,0,1
1212 1126 m 0,72,73
 1212 1252 1212 1252 1137 1323 c 0,74,75
 1082 1376 1082 1376 1005 1376 c 0,76,77
 811 1376 811 1376 704 1208 c 0,78,79
 673 1160 673 1160 640 1080 c 0,80,81
 565 901 565 901 529 829 c 2,82,-1
 416 611 l 1,83,-1
 370 521 l 1,84,-1
 416 554 l 1,85,86
 515 618 515 618 766 722 c 0,87,88
 1011 824 1011 824 1088 877 c 0,89,90
 1171 933 1171 933 1195 1010 c 0,91,92
 1206 1043 1206 1043 1211 1090 c 0,93,94
 1212 1101 1212 1101 1212 1126 c 0,72,73
761 272 m 0,95,96
 761 379 761 379 692 445 c 0,97,98
 640 496 640 496 570 496 c 0,99,100
 444 496 444 496 358 417 c 0,101,102
 281 347 281 347 181 161 c 2,103,-1
 -49 -254 l 2,104,105
 -104 -349 -104 -349 -140 -405 c 0,106,107
 -146 -416 -146 -416 -146 -417 c 1,108,-1
 -63 -366 l 2,109,110
 11 -324 11 -324 119 -276 c 2,111,-1
 266 -213 l 2,112,113
 532 -103 532 -103 618 -42 c 0,114,115
 638 -28 638 -28 656 -13 c 0,116,117
 723 44 723 44 749 157 c 0,118,119
 761 211 761 211 761 272 c 0,95,96
EndSplineSet
Validated: 1
EndChar

StartChar: tengwa_parenthesis
Encoding: 169 57447 80
Width: 1009
Flags: W
LayerCount: 2
Fore
SplineSet
190 1340 m 0,0,1
 174 1340 174 1340 174 1354 c 0,2,3
 174 1379 174 1379 230 1437 c 0,4,5
 334 1544 334 1544 470 1584 c 0,6,7
 526 1601 526 1601 582 1602 c 2,8,-1
 603 1603 l 1,9,10
 683 1683 683 1683 791 1734 c 0,11,12
 883 1776 883 1776 964 1776 c 0,13,14
 1090 1776 1090 1776 1115 1654 c 0,15,16
 1121 1629 1121 1629 1121 1600 c 0,17,18
 1123 1388 1123 1388 733 656 c 0,19,20
 593 395 593 395 463 177 c 0,21,22
 186 -287 186 -287 -138 -651 c 0,23,24
 -352 -892 -352 -892 -679 -1193 c 1,25,-1
 -1039 -1517 l 2,26,27
 -1085 -1557 -1085 -1557 -1120 -1559 c 0,28,29
 -1134 -1559 -1134 -1559 -1134 -1544 c 0,30,31
 -1134 -1518 -1134 -1518 -1077 -1461 c 2,32,-1
 -928 -1316 l 1,33,-1
 -868 -1254 l 1,34,35
 -452 -812 -452 -812 -106 -157 c 2,36,-1
 329 666 l 2,37,38
 437 872 437 872 510 1074 c 0,39,40
 564 1224 564 1224 564 1294 c 0,41,42
 564 1380 564 1380 510 1421 c 0,43,44
 481 1442 481 1442 442 1442 c 0,45,46
 354 1442 354 1442 273 1384 c 0,47,48
 222 1349 222 1349 210 1344 c 0,49,50
 200 1340 200 1340 190 1340 c 0,0,1
947 1465 m 0,51,52
 947 1540 947 1540 904 1584 c 0,53,54
 872 1616 872 1616 824 1616 c 0,55,56
 744 1616 744 1616 676 1575 c 1,57,58
 724 1527 724 1527 734 1468 c 0,59,60
 738 1446 738 1446 738 1421 c 0,61,62
 738 1307 738 1307 607 1003 c 0,63,64
 549 868 549 868 485 745 c 2,65,-1
 128 63 l 1,66,67
 -181 -508 -181 -508 -459 -879 c 1,68,-1
 -478 -906 l 1,69,-1
 -331 -755 l 1,70,71
 -134 -546 -134 -546 -5 -374 c 0,72,73
 264 -12 264 -12 631 686 c 0,74,75
 947 1287 947 1287 947 1465 c 0,51,52
EndSplineSet
Validated: 33
EndChar

StartChar: tengwa_section
Encoding: 170 57448 81
Width: 1154
Flags: W
LayerCount: 2
Fore
SplineSet
818 523 m 0,0,1
 926 523 926 523 998 575 c 0,2,3
 1036 602 1036 602 1046 605 c 0,4,5
 1052 607 1052 607 1058 607 c 0,6,7
 1069 607 1069 607 1069 597 c 0,8,9
 1069 574 1069 574 1022 527 c 0,10,11
 925 430 925 430 781 406 c 0,12,13
 741 400 741 400 701 400 c 0,14,15
 620 400 620 400 467 430 c 0,16,17
 321 458 321 458 227 458 c 0,18,19
 115 458 115 458 49 408 c 0,20,21
 15 381 15 381 7 378 c 0,22,23
 -2 375 -2 375 -11 375 c 0,24,25
 -22 375 -22 375 -22 385 c 0,26,27
 -22 411 -22 411 30 460 c 0,28,29
 129 552 129 552 267 575 c 0,30,31
 303 581 303 581 341 581 c 0,32,33
 426 581 426 581 589 550 c 0,34,35
 734 523 734 523 818 523 c 0,0,1
EndSplineSet
Validated: 1
EndChar

StartChar: tengwa_section_double
Encoding: 171 57449 82
Width: 893
Flags: W
LayerCount: 2
Fore
SplineSet
343 707 m 0,0,1
 392 707 392 707 518 684 c 0,2,3
 595 671 595 671 640 671 c 0,4,5
 713 671 713 671 747 701 c 0,6,7
 768 720 768 720 781 722 c 0,8,9
 787 724 787 724 795 724 c 0,10,11
 807 724 807 724 807 713 c 0,12,13
 807 692 807 692 763 648 c 0,14,15
 674 560 674 560 557 549 c 0,16,17
 543 548 543 548 528 548 c 0,18,19
 479 548 479 548 350 571 c 0,20,21
 276 584 276 584 235 584 c 2,22,-1
 219 584 l 2,23,24
 163 584 163 584 114 549 c 0,25,26
 88 531 88 531 75 531 c 0,27,28
 63 531 63 531 63 542 c 0,29,30
 63 565 63 565 109 609 c 0,31,32
 198 696 198 696 316 706 c 0,33,34
 330 707 330 707 343 707 c 0,0,1
470 357 m 0,35,36
 533 357 533 357 583 393 c 0,37,38
 608 411 608 411 621 411 c 0,39,40
 632 411 632 411 632 400 c 0,41,42
 632 377 632 377 587 333 c 0,43,44
 498 246 498 246 381 236 c 0,45,46
 367 235 367 235 354 235 c 0,47,48
 305 235 305 235 181 257 c 0,49,50
 103 271 103 271 56 271 c 0,51,52
 -16 271 -16 271 -53 240 c 1,53,54
 -84 220 -84 220 -99 218 c 0,55,56
 -111 218 -111 218 -111 229 c 0,57,58
 -111 252 -111 252 -65 296 c 0,59,60
 24 383 24 383 142 393 c 0,61,62
 156 394 156 394 169 394 c 0,63,64
 216 394 216 394 345 371 c 0,65,66
 424 357 424 357 470 357 c 0,35,36
EndSplineSet
Validated: 1
EndChar

StartChar: pusta
Encoding: 162 57440 83
Width: 512
Flags: W
LayerCount: 2
Fore
SplineSet
160 436 m 0,0,1
 160 468 160 468 184 500 c 0,2,3
 212 537 212 537 260 537 c 0,4,5
 324 537 324 537 351 485 c 0,6,7
 362 463 362 463 362 436 c 0,8,9
 362 376 362 376 313 348 c 0,10,11
 290 336 290 336 261 336 c 0,12,13
 199 336 199 336 172 387 c 0,14,15
 160 410 160 410 160 436 c 0,0,1
EndSplineSet
Validated: 1
EndChar

StartChar: pusta_double
Encoding: 163 57441 84
Width: 581
Flags: W
LayerCount: 2
Fore
SplineSet
246 697 m 0,0,1
 246 755 246 755 297 785 c 0,2,3
 319 798 319 798 341 798 c 0,4,5
 421 798 421 798 443 733 c 0,6,7
 448 716 448 716 448 698 c 0,8,9
 448 637 448 637 400 609 c 0,10,11
 376 596 376 596 347 596 c 0,12,13
 286 596 286 596 258 648 c 0,14,15
 246 671 246 671 246 697 c 0,0,1
72 174 m 0,16,17
 72 207 72 207 96 239 c 0,18,19
 125 276 125 276 172 276 c 0,20,21
 239 276 239 276 264 222 c 0,22,23
 274 201 274 201 274 175 c 0,24,25
 274 110 274 110 221 85 c 0,26,27
 199 74 199 74 173 74 c 0,28,29
 111 74 111 74 84 126 c 0,30,31
 72 148 72 148 72 174 c 0,16,17
EndSplineSet
Validated: 1
EndChar

StartChar: pusta_triple
Encoding: 164 57442 85
Width: 536
Flags: W
LayerCount: 2
Fore
SplineSet
264 802 m 0,0,1
 264 840 264 840 292 872 c 0,2,3
 319 903 319 903 363 903 c 0,4,5
 426 903 426 903 454 854 c 0,6,7
 466 831 466 831 466 802 c 0,8,9
 466 738 466 738 414 712 c 0,10,11
 392 701 392 701 366 701 c 0,12,13
 293 701 293 701 270 772 c 0,14,15
 264 789 264 789 264 802 c 0,0,1
160 436 m 0,16,17
 160 468 160 468 184 500 c 0,18,19
 212 537 212 537 260 537 c 0,20,21
 324 537 324 537 351 485 c 0,22,23
 362 463 362 463 362 436 c 0,24,25
 362 376 362 376 313 348 c 0,26,27
 290 336 290 336 261 336 c 0,28,29
 199 336 199 336 172 387 c 0,30,31
 160 410 160 410 160 436 c 0,16,17
55 71 m 0,32,33
 55 116 55 116 91 149 c 0,34,35
 117 171 117 171 151 171 c 0,36,37
 227 171 227 171 250 111 c 0,38,39
 258 93 258 93 258 70 c 0,40,41
 258 8 258 8 206 -19 c 0,42,43
 183 -30 183 -30 156 -30 c 0,44,45
 84 -30 84 -30 61 40 c 0,46,47
 55 58 55 58 55 71 c 0,32,33
EndSplineSet
Validated: 1
EndChar

StartChar: tengwa_section_small
Encoding: 191 -1 86
Width: 1154
Flags: W
LayerCount: 2
Fore
SplineSet
818 523 m 0,0,1
 926 523 926 523 998 575 c 0,2,3
 1036 602 1036 602 1046 605 c 0,4,5
 1052 607 1052 607 1058 607 c 0,6,7
 1069 607 1069 607 1069 597 c 0,8,9
 1069 574 1069 574 1022 527 c 0,10,11
 925 430 925 430 781 406 c 0,12,13
 741 400 741 400 701 400 c 0,14,15
 620 400 620 400 467 430 c 0,16,17
 321 458 321 458 227 458 c 0,18,19
 115 458 115 458 49 408 c 0,20,21
 15 381 15 381 7 378 c 0,22,23
 -2 375 -2 375 -11 375 c 0,24,25
 -22 375 -22 375 -22 385 c 0,26,27
 -22 411 -22 411 30 460 c 0,28,29
 129 552 129 552 267 575 c 0,30,31
 303 581 303 581 341 581 c 0,32,33
 426 581 426 581 589 550 c 0,34,35
 734 523 734 523 818 523 c 0,0,1
EndSplineSet
Validated: 1
EndChar

StartChar: tengwa_tilde
Encoding: 151 57426 87
Width: 0
GlyphClass: 4
Flags: W
AnchorPoint: "mkmk_up" 563 2340 basemark 0
AnchorPoint: "mkmk_up" 163 1140 mark 0
AnchorPoint: "tehta_contact_up" 260 1200 mark 0
LayerCount: 2
Fore
SplineSet
840 1605 m 1,0,1
 730 1600 730 1600 616 1599 c 2,2,-1
 569 1599 l 2,3,4
 312 1599 312 1599 182 1663 c 0,5,6
 122 1693 122 1693 79 1737 c 0,7,8
 15 1807 15 1807 14 1881 c 0,9,10
 14 2016 14 2016 131 2117 c 0,11,12
 210 2186 210 2186 289 2199 c 0,13,14
 301 2201 301 2201 311 2201 c 0,15,16
 361 2201 361 2201 409 2171 c 0,17,18
 468 2135 468 2135 468 2073 c 0,19,20
 468 2015 468 2015 401 1952 c 0,21,22
 351 1904 351 1904 320 1904 c 0,23,24
 310 1904 310 1904 309 1915 c 0,25,26
 310 1926 310 1926 333 1958 c 1,27,-1
 333 1970 l 2,28,29
 333 2040 333 2040 250 2068 c 0,30,31
 221 2077 221 2077 199 2077 c 0,32,33
 169 2077 169 2077 162 2065 c 0,34,35
 160 2060 160 2060 156 2045 c 0,36,37
 148 2018 148 2018 148 1989 c 2,38,-1
 148 1978 l 2,39,40
 148 1862 148 1862 307 1785 c 0,41,42
 356 1761 356 1761 404 1748 c 0,43,44
 512 1721 512 1721 704 1721 c 1,45,-1
 711 1722 l 1,46,47
 891 1722 891 1722 1041 1736 c 0,48,49
 1070 1739 1070 1739 1093 1739 c 0,50,51
 1104 1739 1104 1739 1104 1729 c 0,52,53
 1104 1706 1104 1706 1063 1665 c 0,54,55
 1029 1631 1029 1631 994 1618 c 0,56,57
 993 1618 993 1618 813 1503 c 2,58,-1
 469 1287 l 2,59,60
 285 1176 285 1176 179 1124 c 0,61,62
 152 1111 152 1111 146 1111 c 0,63,64
 131 1111 131 1111 128 1125 c 0,65,66
 127 1127 127 1127 127 1129 c 0,67,68
 127 1172 127 1172 780 1569 c 1,69,-1
 840 1605 l 1,0,1
EndSplineSet
Validated: 1
Substitution2: "Single Substitution lookup 37 subtable" tengwa_tilde_narrow
Substitution2: "Single Substitution lookup 36 subtable" tengwa_tilde_medium
Substitution2: "Single Substitution lookup 35 subtable" tengwa_tilde_wide
Substitution2: "Single Substitution lookup 34 subtable" tengwa_tilde_narrow
Substitution2: "Single Substitution lookup 33 subtable" tengwa_tilde_medium
Substitution2: "Single Substitution lookup 32 subtable" tengwa_tilde_wide
Substitution2: "Single Substitution lookup 31 subtable" tengwa_tilde_narrow
Substitution2: "Single Substitution lookup 30 subtable" tengwa_tilde_medium
Substitution2: "Single Substitution lookup 29 subtable" tengwa_tilde_wide
Substitution2: "Single Substitution lookup 28 subtable" tengwa_tilde_narrow
Substitution2: "Single Substitution lookup 27 subtable" tengwa_tilde_medium
Substitution2: "Single Substitution lookup 26 subtable" tengwa_tilde_wide
Substitution2: "Single Substitution lookup 24 subtable" tengwa_tilde_narrow_shifted
Substitution2: "Single Substitution lookup 23 subtable" tengwa_tilde_narrow_shifted
Substitution2: "Single Substitution lookup 22 subtable" tengwa_tilde_narrow_shifted
Substitution2: "Single Substitution lookup 21 subtable" tengwa_tilde_narrow_shifted
Substitution2: "Single Substitution lookup 19 subtable" tengwa_tilde_narrow
Substitution2: "Single Substitution lookup 18 subtable" tengwa_tilde_narrow
Substitution2: "Single Substitution lookup 17 subtable" tengwa_tilde_narrow
Substitution2: "Single Substitution lookup 16 subtable" tengwa_tilde_narrow
EndChar

StartChar: tehta_breve
Encoding: 152 57427 88
Width: 0
GlyphClass: 4
Flags: W
AnchorPoint: "mkmk_up" 416 1909 basemark 0
AnchorPoint: "mkmk_up" 216 1309 mark 0
AnchorPoint: "TehtaAbove" 216 1309 mark 0
LayerCount: 2
Fore
SplineSet
162 1535 m 2,0,-1
 160 1505 l 2,1,2
 160 1459 160 1459 190 1419 c 0,3,4
 228 1368 228 1368 299 1368 c 0,5,6
 396 1368 396 1368 446 1420 c 1,7,-1
 506 1493 l 2,8,9
 531 1519 531 1519 563 1535 c 0,10,11
 579 1542 579 1542 586 1542 c 0,12,13
 597 1542 597 1542 597 1532 c 0,14,15
 597 1509 597 1509 548 1445 c 0,16,17
 451 1322 451 1322 321 1272 c 0,18,19
 252 1245 252 1245 181 1245 c 0,20,21
 131 1245 131 1245 86 1278 c 0,22,23
 26 1320 26 1320 26 1402 c 0,24,25
 26 1468 26 1468 98 1518 c 0,26,27
 132 1542 132 1542 150 1542 c 0,28,29
 161 1542 161 1542 162 1535 c 2,0,-1
EndSplineSet
Validated: 1
EndChar

StartChar: yanta_above
Encoding: 154 57429 89
Width: 0
GlyphClass: 4
Flags: W
AnchorPoint: "mkmk_up" 566 1869 basemark 0
AnchorPoint: "mkmk_up" 366 1269 mark 0
AnchorPoint: "TehtaAbove" 366 1269 mark 0
LayerCount: 2
Fore
SplineSet
543 1698 m 2,0,-1
 532 1541 l 2,1,2
 531 1523 531 1523 531 1508 c 0,3,4
 531 1388 531 1388 613 1368 c 0,5,6
 626 1365 626 1365 640 1365 c 0,7,8
 667 1365 667 1365 711 1406 c 0,9,10
 754 1447 754 1447 774 1453 c 0,11,12
 782 1455 782 1455 789 1455 c 0,13,14
 800 1455 800 1455 800 1445 c 0,15,16
 800 1419 800 1419 733 1356 c 0,17,18
 638 1267 638 1267 558 1246 c 0,19,20
 541 1242 541 1242 526 1242 c 0,21,22
 415 1242 415 1242 397 1378 c 1,23,24
 246 1245 246 1245 110 1243 c 0,25,26
 30 1243 30 1243 11 1309 c 0,27,28
 7 1324 7 1324 7 1338 c 0,29,30
 7 1373 7 1373 70 1421 c 0,31,32
 110 1452 110 1452 128 1452 c 0,33,34
 136 1452 136 1452 145 1426 c 0,35,36
 160 1381 160 1381 189 1370 c 0,37,38
 201 1365 201 1365 217 1365 c 0,39,40
 290 1365 290 1365 338 1396 c 0,41,42
 391 1431 391 1431 406 1560 c 0,43,44
 408 1583 408 1583 408 1600 c 0,45,46
 408 1711 408 1711 332 1734 c 0,47,48
 317 1739 317 1739 301 1739 c 0,49,50
 274 1739 274 1739 228 1697 c 128,-1,51
 182 1655 182 1655 161 1650 c 0,52,53
 155 1648 155 1648 150 1648 c 0,54,55
 141 1648 141 1648 140 1660 c 0,56,57
 140 1683 140 1683 205 1746 c 0,58,59
 302 1838 302 1838 381 1858 c 0,60,61
 397 1862 397 1862 411 1862 c 0,62,63
 516 1862 516 1862 538 1754 c 0,64,65
 543 1729 543 1729 543 1698 c 2,0,-1
EndSplineSet
Validated: 1
EndChar

StartChar: tripledot_above_inverted
Encoding: 155 57430 90
Width: 0
GlyphClass: 4
Flags: W
AnchorPoint: "mkmk_up" 446 1789 basemark 0
AnchorPoint: "mkmk_up" 246 1189 mark 0
AnchorPoint: "TehtaAbove" 246 1189 mark 0
LayerCount: 2
Fore
SplineSet
68 1380 m 0,0,1
 23 1380 23 1380 12 1425 c 0,2,3
 10 1433 10 1433 10 1439 c 0,4,5
 10 1477 10 1477 83 1543 c 2,6,-1
 206 1652 l 2,7,8
 237 1682 237 1682 262 1709 c 0,9,10
 289 1738 289 1738 299 1742 c 0,11,12
 305 1745 305 1745 312 1745 c 0,13,14
 336 1738 336 1738 340 1715 c 1,15,16
 340 1672 340 1672 234 1528 c 0,17,18
 175 1450 175 1450 140 1416 c 0,19,20
 104 1380 104 1380 68 1380 c 0,0,1
417 1537 m 0,21,22
 417 1737 417 1737 466 1737 c 0,23,24
 490 1737 490 1737 499 1702 c 2,25,-1
 522 1565 l 2,26,27
 539 1484 539 1484 575 1408 c 0,28,29
 591 1374 591 1374 591 1352 c 0,30,31
 591 1307 591 1307 556 1292 c 0,32,33
 545 1288 545 1288 533 1288 c 0,34,35
 474 1288 474 1288 441 1381 c 0,36,37
 417 1449 417 1449 417 1537 c 0,21,22
252 1154 m 0,38,39
 207 1151 207 1151 188 1196 c 0,40,41
 181 1213 181 1213 181 1234 c 0,42,43
 181 1288 181 1288 280 1502 c 2,44,-1
 310 1568 l 2,45,46
 326 1604 326 1604 329 1608 c 0,47,48
 341 1625 341 1625 357 1625 c 0,49,50
 379 1625 379 1625 385 1604 c 0,51,52
 387 1598 387 1598 386 1591 c 0,53,54
 351 1297 351 1297 326 1226 c 0,55,56
 305 1165 305 1165 265 1156 c 0,57,58
 259 1155 259 1155 252 1154 c 0,38,39
EndSplineSet
Validated: 33
EndChar

StartChar: thinnas
Encoding: 156 57431 91
Width: 0
GlyphClass: 4
Flags: W
AnchorPoint: "mkmk_down" -930 -900 basemark 0
AnchorPoint: "mkmk_down" -730 -300 mark 0
AnchorPoint: "TehtaBelow" -730 -300 mark 0
LayerCount: 2
Fore
SplineSet
-722 -197 m 0,0,1
 -662 -93 -662 -93 -589 -59 c 0,2,3
 -569 -50 -569 -50 -556 -50 c 0,4,5
 -540 -50 -540 -50 -540 -64 c 0,6,7
 -540 -76 -540 -76 -570 -126 c 0,8,9
 -1087 -1023 -1087 -1023 -1725 -1630 c 1,10,-1
 -1753 -1656 l 2,11,12
 -1858 -1754 -1858 -1754 -1894 -1770 c 0,13,14
 -1908 -1777 -1908 -1777 -1920 -1777 c 0,15,16
 -1938 -1777 -1938 -1777 -1936 -1760 c 0,17,18
 -1932 -1726 -1932 -1726 -1880 -1677 c 2,19,-1
 -1723 -1532 l 1,20,21
 -1504 -1321 -1504 -1321 -1254 -999 c 0,22,23
 -984 -651 -984 -651 -722 -197 c 0,0,1
EndSplineSet
Validated: 1
Ligature2: "Ligatures subtable" zwj aara
LCarets2: 1 0
EndChar

StartChar: sarince_end
Encoding: 157 57432 92
Width: 1192
GlyphClass: 2
Flags: W
AnchorPoint: "TehtaBelow" 225.362 -250 basechar 0
AnchorPoint: "TehtaAbove" 691.362 600 basechar 0
AnchorPoint: "tehta_contact_down" 549.362 -250 basechar 0
AnchorPoint: "tehta_contact_up" 789.362 100 basechar 0
AnchorPoint: "shook" -0.637695 100 mark 0
LayerCount: 2
Fore
SplineSet
-16.6376953125 26 m 0,0,1
 -72.6376953125 26 -72.6376953125 26 -77.6376953125 33 c 0,2,3
 -79.6376953125 36 -79.6376953125 36 -79.6376953125 42 c 0,4,5
 -79.6376953125 81 -79.6376953125 81 -11.6376953125 134 c 0,6,7
 24.3623046875 162 24.3623046875 162 47.3623046875 168 c 0,8,9
 61.3623046875 170 61.3623046875 170 104.362304688 170 c 0,10,11
 328.362304688 170 328.362304688 170 625.362304688 145 c 0,12,13
 754.362304688 134 754.362304688 134 808.362304688 123 c 0,14,15
 1008.36230469 85 1008.36230469 85 1114.36230469 -59 c 0,16,17
 1189.36230469 -162 1189.36230469 -162 1189.36230469 -281 c 0,18,19
 1189.36230469 -403 1189.36230469 -403 1095.36230469 -528 c 0,20,21
 994.362304688 -662 994.362304688 -662 847.362304688 -713 c 0,22,23
 777.362304688 -737 777.362304688 -737 706.362304688 -737 c 0,24,25
 591.362304688 -737 591.362304688 -737 493.362304688 -674 c 0,26,27
 382.362304688 -601 382.362304688 -601 370.362304688 -485 c 0,28,29
 369.362304688 -476 369.362304688 -476 369.362304688 -467 c 0,30,31
 369.362304688 -395 369.362304688 -395 437.362304688 -315 c 0,32,33
 496.362304688 -247 496.362304688 -247 549.362304688 -240 c 0,34,35
 569.362304688 -240 569.362304688 -240 569.362304688 -255 c 0,36,37
 569.362304688 -275 569.362304688 -275 549.362304688 -299 c 0,38,39
 525.362304688 -326 525.362304688 -326 525.362304688 -357 c 0,40,41
 525.362304688 -430 525.362304688 -430 594.362304688 -500 c 0,42,43
 683.362304688 -589 683.362304688 -589 813.362304688 -594 c 1,44,-1
 826.362304688 -594 l 2,45,46
 1031.36230469 -594 1031.36230469 -594 1033.36230469 -392 c 2,47,-1
 1033.36230469 -387 l 2,48,49
 1033.36230469 -269 1033.36230469 -269 944.362304688 -167 c 0,50,51
 844.362304688 -51 844.362304688 -51 678.362304688 -19 c 0,52,53
 558.362304688 6 558.362304688 6 155.362304688 22 c 0,54,55
 47.3623046875 26 47.3623046875 26 -16.6376953125 26 c 0,0,1
EndSplineSet
EndChar

StartChar: sarince_combine
Encoding: 158 57433 93
Width: -4
GlyphClass: 4
Flags: W
AnchorPoint: "mkmk_down" 21 -1133 basemark 0
AnchorPoint: "tehta_contact_down" 871 67 mark 0
AnchorPoint: "mkmk_down" 871 67 mark 0
LayerCount: 2
Fore
SplineSet
153 -930 m 0,0,1
 78 -930 78 -930 40 -871 c 0,2,3
 17 -837 17 -837 17 -791 c 0,4,5
 17 -675 17 -675 143 -545 c 1,6,-1
 807 59 l 2,7,8
 818 68 818 68 820 70 c 0,9,10
 866 109 866 109 895 109 c 0,11,12
 913 109 913 109 913 94 c 0,13,14
 913 70 913 70 877 30 c 0,15,16
 859 12 859 12 541 -276 c 0,17,18
 216 -572 216 -572 206 -584 c 0,19,20
 173 -632 173 -632 173 -681 c 0,21,22
 173 -745 173 -745 223 -774 c 0,23,24
 246 -786 246 -786 272 -786 c 0,25,26
 316 -786 316 -786 383 -728 c 0,27,28
 442 -677 442 -677 460 -668 c 0,29,30
 480 -657 480 -657 496 -657 c 128,-1,31
 512 -657 512 -657 513 -672 c 0,32,33
 513 -706 513 -706 428 -783 c 0,34,35
 319 -880 319 -880 218 -916 c 0,36,37
 181 -930 181 -930 153 -930 c 0,0,1
EndSplineSet
Validated: 1
EndChar

StartChar: tehta_dotinside
Encoding: 159 57434 94
Width: 512
Flags: W
AnchorPoint: "Inside" 260 435 mark 0
LayerCount: 2
Fore
SplineSet
160 436 m 0,0,1
 160 468 160 468 184 500 c 0,2,3
 212 537 212 537 260 537 c 0,4,5
 324 537 324 537 351 485 c 0,6,7
 362 463 362 463 362 436 c 0,8,9
 362 376 362 376 313 348 c 0,10,11
 290 336 290 336 261 336 c 0,12,13
 199 336 199 336 172 387 c 0,14,15
 160 410 160 410 160 436 c 0,0,1
EndSplineSet
Validated: 1
EndChar

StartChar: tengwa_quotation_up
Encoding: 172 57450 95
Width: 743
Flags: W
LayerCount: 2
Fore
SplineSet
17 1053 m 0,0,1
 1 1053 1 1053 0 1068 c 0,2,3
 0 1091 0 1091 41 1135 c 0,4,5
 74 1170 74 1170 83 1186 c 0,6,7
 129 1264 129 1264 159 1427 c 0,8,9
 175 1514 175 1514 185 1531 c 0,10,11
 218 1587 218 1587 282 1627 c 0,12,13
 314 1648 314 1648 332 1648 c 0,14,15
 348 1648 348 1648 348 1634 c 0,16,17
 348 1558 348 1558 307 1428 c 0,18,19
 262 1284 262 1284 193 1194 c 0,20,21
 123 1103 123 1103 54 1066 c 0,22,23
 32 1054 32 1054 17 1053 c 0,0,1
279 1053 m 0,24,25
 262 1053 262 1053 261 1068 c 0,26,27
 261 1090 261 1090 317 1152 c 0,28,29
 339 1177 339 1177 345 1186 c 0,30,31
 392 1267 392 1267 422 1432 c 0,32,33
 437 1516 437 1516 446 1531 c 0,34,35
 479 1587 479 1587 543 1627 c 0,36,37
 575 1648 575 1648 593 1648 c 0,38,39
 609 1648 609 1648 609 1634 c 0,40,41
 609 1563 609 1563 559 1405 c 0,42,43
 536 1330 536 1330 517 1293 c 0,44,45
 454 1172 454 1172 359 1096 c 0,46,47
 309 1055 309 1055 279 1053 c 0,24,25
EndSplineSet
Validated: 1
EndChar

StartChar: tengwa_quotation_down
Encoding: 173 57451 96
Width: 412
Flags: W
LayerCount: 2
Fore
SplineSet
-29 -201 m 0,0,1
 -4 -183 -4 -183 23 -180 c 0,2,3
 38 -180 38 -180 38 -194 c 0,4,5
 38 -261 38 -261 -13 -422 c 0,6,7
 -36 -498 -36 -498 -55 -535 c 0,8,9
 -111 -646 -111 -646 -204 -725 c 0,10,11
 -263 -775 -263 -775 -295 -775 c 0,12,13
 -310 -775 -310 -775 -310 -762 c 2,14,-1
 -310 -759 l 2,15,16
 -310 -735 -310 -735 -288 -714 c 0,17,18
 -249 -677 -249 -677 -230 -644 c 0,19,20
 -176 -552 -176 -552 -142 -354 c 2,21,-1
 -135 -316 l 1,22,23
 -104 -247 -104 -247 -29 -201 c 0,0,1
127 -314 m 1,24,25
 152 -255 152 -255 226 -206 c 0,26,27
 255 -183 255 -183 284 -180 c 0,28,29
 299 -180 299 -180 299 -194 c 0,30,31
 299 -259 299 -259 249 -418 c 0,32,33
 225 -497 225 -497 206 -534 c 0,34,35
 148 -649 148 -649 53 -728 c 0,36,37
 -4 -775 -4 -775 -35 -775 c 0,38,39
 -49 -775 -49 -775 -49 -762 c 0,40,41
 -49 -737 -49 -737 -3 -687 c 0,42,43
 27 -655 27 -655 34 -642 c 0,44,45
 94 -537 94 -537 127 -314 c 1,24,25
EndSplineSet
Validated: 1
EndChar

StartChar: leftcurl_below
Encoding: 148 57421 97
Width: 0
GlyphClass: 4
Flags: W
AnchorPoint: "mkmk_down" 569 -1143 basemark 0
AnchorPoint: "tehta_contact_down" 969 57 mark 0
AnchorPoint: "mkmk_down" 969 57 mark 0
LayerCount: 2
Fore
SplineSet
202 -876 m 0,0,1
 202 -1010 202 -1010 313 -1061 c 0,2,3
 354 -1080 354 -1080 389 -1080 c 0,4,5
 461 -1080 461 -1080 517 -1009 c 0,6,7
 554 -962 554 -962 608 -855 c 0,8,9
 664 -743 664 -743 710 -604 c 0,10,11
 742 -505 742 -505 821 -241 c 0,12,13
 901 31 901 31 904 36 c 0,14,15
 922 75 922 75 977 112 c 0,16,17
 1006 132 1006 132 1020 132 c 0,18,19
 1032 132 1032 132 1032 122 c 0,20,21
 1032 115 1032 115 952 -155 c 2,22,-1
 843 -516 l 1,23,24
 648 -1075 648 -1075 366 -1185 c 0,25,26
 320 -1203 320 -1203 277 -1203 c 0,27,28
 180 -1203 180 -1203 118 -1127 c 0,29,30
 68 -1064 68 -1064 68 -980 c 0,31,32
 68 -860 68 -860 169 -753 c 0,33,34
 252 -666 252 -666 345 -643 c 0,35,36
 368 -638 368 -638 388 -638 c 0,37,38
 484 -638 484 -638 516 -715 c 0,39,40
 525 -736 525 -736 525 -753 c 0,41,42
 525 -812 525 -812 452 -876 c 0,43,44
 405 -917 405 -917 380 -917 c 0,45,46
 370 -917 370 -917 370 -909 c 2,47,-1
 370 -906 l 2,48,49
 370 -895 370 -895 385 -874 c 0,50,51
 391 -864 391 -864 391 -857 c 0,52,53
 391 -792 391 -792 317 -768 c 0,54,55
 295 -761 295 -761 277 -761 c 0,56,57
 233 -761 233 -761 223 -783 c 0,58,59
 204 -824 204 -824 202 -876 c 0,0,1
EndSplineSet
Validated: 1
Substitution2: "Single Substitution lookup 37 subtable" leftcurl_below_narrow
Substitution2: "Single Substitution lookup 36 subtable" leftcurl_below_medium
Substitution2: "Single Substitution lookup 35 subtable" leftcurl_below_wide
Substitution2: "Single Substitution lookup 34 subtable" leftcurl_below_narrow
Substitution2: "Single Substitution lookup 33 subtable" leftcurl_below_medium
Substitution2: "Single Substitution lookup 32 subtable" leftcurl_below_wide
Substitution2: "Single Substitution lookup 31 subtable" leftcurl_below_narrow
Substitution2: "Single Substitution lookup 30 subtable" leftcurl_below_medium
Substitution2: "Single Substitution lookup 29 subtable" leftcurl_below_wide
Substitution2: "Single Substitution lookup 28 subtable" leftcurl_below_narrow
Substitution2: "Single Substitution lookup 27 subtable" leftcurl_below_medium
Substitution2: "Single Substitution lookup 26 subtable" leftcurl_below_wide
EndChar

StartChar: bar_above_wide
Encoding: 192 -1 98
Width: 4
Flags: W
AnchorPoint: "TehtaAbove" 908 1620 mark 0
AnchorPoint: "mkmk_up" 908 1620 basemark 0
AnchorPoint: "mkmk_up" 808 1321 mark 0
LayerCount: 2
Fore
SplineSet
1283 1500 m 0,0,1
 1476 1500 1476 1500 1578 1579 c 2,2,-1
 1632 1622 l 2,3,4
 1650 1634 1650 1634 1667 1634 c 0,5,6
 1680 1634 1680 1634 1680 1624 c 0,7,8
 1680 1599 1680 1599 1631 1555 c 0,9,10
 1467 1407 1467 1407 1260 1382 c 0,11,12
 1216 1377 1216 1377 1168 1377 c 0,13,14
 1033 1377 1033 1377 803 1421 c 0,15,16
 581 1463 581 1463 476 1469 c 0,17,18
 443 1471 443 1471 412 1471 c 0,19,20
 217 1471 217 1471 116 1393 c 2,21,-1
 61 1349 l 2,22,23
 43 1337 43 1337 25 1337 c 0,24,25
 14 1337 14 1337 14 1347 c 0,26,27
 14 1376 14 1376 76 1431 c 0,28,29
 191 1533 191 1533 356 1574 c 0,30,31
 439 1594 439 1594 524 1594 c 0,32,33
 652 1594 652 1594 881 1551 c 0,34,35
 1110 1507 1110 1507 1220 1502 c 0,36,37
 1252 1500 1252 1500 1283 1500 c 0,0,1
EndSplineSet
Validated: 1
EndChar

StartChar: bar_below_narrow
Encoding: 193 -1 99
Width: 2
Flags: W
AnchorPoint: "mkmk_down" 494 58 mark 0
AnchorPoint: "mkmk_down" 394 -240 basemark 0
AnchorPoint: "TehtaBelow" 414 -180 mark 0
LayerCount: 2
Fore
SplineSet
552 -86 m 0,0,1
 613 -106 613 -106 717 -38 c 0,2,3
 758 -11 758 -11 771 -10 c 0,4,5
 782 -9 782 -9 782 -20 c 0,6,7
 782 -43 782 -43 734 -91 c 0,8,9
 628 -200 628 -200 495 -203 c 0,10,11
 398 -204 398 -204 245 -170 c 0,12,13
 181 -156 181 -156 79 -219 c 0,14,15
 43 -242 43 -242 34 -245 c 0,16,17
 31 -246 31 -246 27 -246 c 0,18,19
 16 -246 16 -246 16 -236 c 0,20,21
 16 -209 16 -209 68 -161 c 0,22,23
 168 -68 168 -68 299 -51 c 0,24,25
 330 -47 330 -47 361 -47 c 0,26,27
 435 -47 435 -47 552 -86 c 0,0,1
EndSplineSet
Validated: 33
EndChar

StartChar: rightcurl_above_narrow
Encoding: 194 -1 100
Width: 1148
Flags: W
AnchorPoint: "tehta_contact_up" 129 791 mark 0
AnchorPoint: "mkmk_up" 489 791 mark 0
AnchorPoint: "mkmk_up" 889 1991 basemark 0
LayerCount: 2
Fore
SplineSet
79 741 m 0,0,1
 68 741 68 741 68 750 c 0,2,3
 68 767 68 767 249 1117 c 1,4,-1
 277 1169 l 1,5,6
 449 1497 449 1497 664 1652 c 0,7,8
 791 1743 791 1743 887 1743 c 0,9,10
 980 1743 980 1743 1041 1675 c 0,11,12
 1094 1615 1094 1615 1094 1528 c 0,13,14
 1094 1406 1094 1406 990 1296 c 0,15,16
 905 1207 905 1207 809 1182 c 0,17,18
 784 1176 784 1176 763 1176 c 0,19,20
 683 1176 683 1176 643 1232 c 0,21,22
 621 1263 621 1263 621 1301 c 0,23,24
 621 1371 621 1371 700 1437 c 0,25,26
 747 1477 747 1477 771 1477 c 0,27,28
 782 1477 782 1477 782 1467 c 0,29,30
 782 1456 782 1456 765 1432 c 0,31,32
 755 1418 755 1418 755 1407 c 0,33,34
 755 1334 755 1334 829 1307 c 0,35,36
 853 1299 853 1299 871 1299 c 0,37,38
 937 1299 937 1299 953 1361 c 0,39,40
 959 1387 959 1387 959 1424 c 0,41,42
 959 1530 959 1530 882 1586 c 0,43,44
 835 1620 835 1620 777 1620 c 0,45,46
 621 1620 621 1620 434 1297 c 0,47,48
 383 1209 383 1209 262 963 c 0,49,50
 217 871 217 871 194 832 c 0,51,52
 167 786 167 786 113 754 c 0,53,54
 91 741 91 741 79 741 c 0,0,1
EndSplineSet
Validated: 1
EndChar

StartChar: rightcurl_above_medium
Encoding: 195 -1 101
Width: 1314
Flags: W
AnchorPoint: "mkmk_up" 1029 1991 basemark 0
AnchorPoint: "mkmk_up" 629 791 mark 0
AnchorPoint: "tehta_contact_up" 79 791 mark 0
LayerCount: 2
Fore
SplineSet
31 741 m 0,0,1
 20 741 20 741 20 750 c 0,2,3
 20 760 20 760 28 773 c 2,4,-1
 408 1332 l 2,5,6
 683 1730 683 1730 913 1861 c 0,7,8
 1012 1917 1012 1917 1096 1917 c 0,9,10
 1194 1917 1194 1917 1254 1845 c 0,11,12
 1301 1788 1301 1788 1301 1707 c 0,13,14
 1301 1584 1301 1584 1195 1473 c 0,15,16
 1109 1382 1109 1382 1009 1357 c 0,17,18
 983 1350 983 1350 959 1350 c 0,19,20
 882 1350 882 1350 841 1406 c 0,21,22
 818 1438 818 1438 818 1478 c 0,23,24
 818 1543 818 1543 888 1612 c 0,25,26
 939 1663 939 1663 971 1663 c 2,27,-1
 972 1663 l 2,28,29
 983 1663 983 1663 983 1653 c 0,30,31
 983 1640 983 1640 966 1618 c 0,32,33
 952 1600 952 1600 952 1583 c 0,34,35
 952 1546 952 1546 980 1512 c 0,36,37
 1012 1473 1012 1473 1071 1473 c 0,38,39
 1126 1473 1126 1473 1145 1507 c 0,40,41
 1148 1514 1148 1514 1156 1534 c 0,42,43
 1167 1568 1167 1568 1167 1602 c 0,44,45
 1167 1695 1167 1695 1099 1752 c 0,46,47
 1049 1794 1049 1794 984 1794 c 0,48,49
 835 1794 835 1794 639 1543 c 1,50,-1
 617 1514 l 2,51,52
 562 1442 562 1442 373 1165 c 2,53,-1
 317 1082 l 1,54,-1
 150 837 l 2,55,56
 107 777 107 777 68 755 c 0,57,58
 63 753 63 753 58 750 c 0,59,60
 40 741 40 741 31 741 c 0,0,1
EndSplineSet
Validated: 1
EndChar

